<?xml version="1.0" encoding="UTF-8" standalone="no"?>
<!DOCTYPE svg PUBLIC "-//W3C//DTD SVG 1.1//EN"
 "http://www.w3.org/Graphics/SVG/1.1/DTD/svg11.dtd">
<!-- Generated by graphviz version 8.0.2 (20230410.1723)
 -->
<!-- Title: main Pages: 1 -->
<svg width="376pt" height="158pt"
 viewBox="0.00 0.00 376.00 158.00" xmlns="http://www.w3.org/2000/svg" xmlns:xlink="http://www.w3.org/1999/xlink">
<g id="graph0" class="graph" transform="scale(1 1) rotate(0) translate(4 154)">
<title>main</title>
<!-- Node1 -->
<g id="node1" class="node">
<title>Node1</title>
<g id="a_node1"><a xlink:title="Main function.">
<polygon fill="#999999" stroke="#666666" points="38,-84 0,-84 0,-65 38,-65 38,-84"/>
<text text-anchor="middle" x="19" y="-72" font-family="Helvetica,sans-Serif" font-size="10.00">main</text>
</a>
</g>
</g>
<!-- Node2 -->
<g id="node2" class="node">
<title>Node2</title>
<g id="a_node2"><a target="_blank" xlink:href="http://en.cppreference.com/w/cpp/io/manip/endl.html#" xlink:title=" ">
<polygon fill="white" stroke="#666666" points="158.5,-150 104.5,-150 104.5,-131 158.5,-131 158.5,-150"/>
<text text-anchor="middle" x="131.5" y="-138" font-family="Helvetica,sans-Serif" font-size="10.00">std::endl</text>
</a>
</g>
</g>
<!-- Node1&#45;&gt;Node2 -->
<g id="edge1" class="edge">
<title>Node1&#45;&gt;Node2</title>
<path fill="none" stroke="#63b8ff" d="M30.97,-84.42C41.47,-93.57 58.03,-107.11 74,-116.5 80.36,-120.24 87.41,-123.71 94.31,-126.78"/>
<polygon fill="#63b8ff" stroke="#63b8ff" points="92.65,-130.3 103.22,-130.99 95.38,-123.86 92.65,-130.3"/>
</g>
<!-- Node3 -->
<g id="node3" class="node">
<title>Node3</title>
<g id="a_node3"><a xlink:href="../../d8/dee/avltree_8cpp.html#ae4a66d8b0c2b0d626aea45977e358c83" target="_top" xlink:title=" ">
<polygon fill="white" stroke="#666666" points="272.5,-103 229.5,-103 229.5,-84 272.5,-84 272.5,-103"/>
<text text-anchor="middle" x="251" y="-91" font-family="Helvetica,sans-Serif" font-size="10.00">height</text>
</a>
</g>
</g>
<!-- Node1&#45;&gt;Node3 -->
<g id="edge2" class="edge">
<title>Node1&#45;&gt;Node3</title>
<path fill="none" stroke="#63b8ff" d="M38.43,-78.08C48.83,-79.97 62.1,-82.17 74,-83.5 124.36,-89.11 183.21,-91.65 218.49,-92.74"/>
<polygon fill="#63b8ff" stroke="#63b8ff" points="217.98,-96.25 228.08,-93.04 218.18,-89.26 217.98,-96.25"/>
</g>
<!-- Node5 -->
<g id="node5" class="node">
<title>Node5</title>
<g id="a_node5"><a xlink:href="../../db/dc0/namespacebacktracking.html#a78540bcb5ef3473b2348cbc34748ec50" target="_top" xlink:title="Check which is the maximum/minimum number in the array.">
<polygon fill="white" stroke="#666666" points="189,-56 74,-56 74,-37 189,-37 189,-56"/>
<text text-anchor="middle" x="131.5" y="-44" font-family="Helvetica,sans-Serif" font-size="10.00">backtracking::minimax</text>
</a>
</g>
</g>
<!-- Node1&#45;&gt;Node5 -->
<g id="edge5" class="edge">
<title>Node1&#45;&gt;Node5</title>
<path fill="none" stroke="#63b8ff" d="M38.25,-69.88C49.9,-66.92 65.62,-62.94 80.78,-59.1"/>
<polygon fill="#63b8ff" stroke="#63b8ff" points="81.29,-62.33 90.13,-56.48 79.58,-55.54 81.29,-62.33"/>
</g>
<!-- Node7 -->
<g id="node7" class="node">
<title>Node7</title>
<g id="a_node7"><a target="_blank" xlink:href="http://en.cppreference.com/w/cpp/container/array/size.html#" xlink:title=" ">
<polygon fill="white" stroke="#666666" points="172.5,-19 90.5,-19 90.5,0 172.5,0 172.5,-19"/>
<text text-anchor="middle" x="131.5" y="-7" font-family="Helvetica,sans-Serif" font-size="10.00">std::array::size</text>
</a>
</g>
</g>
<!-- Node1&#45;&gt;Node7 -->
<g id="edge10" class="edge">
<title>Node1&#45;&gt;Node7</title>
<path fill="none" stroke="#63b8ff" d="M29.1,-64.8C39.2,-54.53 56.42,-38.45 74,-28.5 77.2,-26.69 80.61,-25.01 84.1,-23.47"/>
<polygon fill="#63b8ff" stroke="#63b8ff" points="85.07,-26.45 93.05,-19.47 82.46,-19.95 85.07,-26.45"/>
</g>
<!-- Node3&#45;&gt;Node3 -->
<g id="edge3" class="edge">
<title>Node3&#45;&gt;Node3</title>
<path fill="none" stroke="#63b8ff" d="M236.99,-103.37C230.6,-111.94 235.27,-121 251,-121 259.85,-121 265.2,-118.13 267.05,-114.1"/>
<polygon fill="#63b8ff" stroke="#63b8ff" points="270.32,-113.54 265.01,-104.37 263.44,-114.85 270.32,-113.54"/>
</g>
<!-- Node4 -->
<g id="node4" class="node">
<title>Node4</title>
<g id="a_node4"><a target="_blank" xlink:href="http://en.cppreference.com/w/cpp/algorithm/max.html#" xlink:title=" ">
<polygon fill="white" stroke="#666666" points="368,-84 313,-84 313,-65 368,-65 368,-84"/>
<text text-anchor="middle" x="340.5" y="-72" font-family="Helvetica,sans-Serif" font-size="10.00">std::max</text>
</a>
</g>
</g>
<!-- Node3&#45;&gt;Node4 -->
<g id="edge4" class="edge">
<title>Node3&#45;&gt;Node4</title>
<path fill="none" stroke="#63b8ff" d="M272.74,-89C281.49,-87.1 291.97,-84.82 302.01,-82.64"/>
<polygon fill="#63b8ff" stroke="#63b8ff" points="302.58,-85.88 311.61,-80.34 301.1,-79.04 302.58,-85.88"/>
</g>
<!-- Node5&#45;&gt;Node3 -->
<g id="edge6" class="edge">
<title>Node5&#45;&gt;Node3</title>
<path fill="none" stroke="#63b8ff" d="M157.42,-56.47C175.38,-63.65 199.74,-73.4 218.97,-81.09"/>
<polygon fill="#63b8ff" stroke="#63b8ff" points="217.46,-84.65 228.04,-85.12 220.06,-78.15 217.46,-84.65"/>
</g>
<!-- Node5&#45;&gt;Node4 -->
<g id="edge7" class="edge">
<title>Node5&#45;&gt;Node4</title>
<path fill="none" stroke="#63b8ff" d="M189.34,-54.19C225.31,-59.05 270.8,-65.21 302.23,-69.46"/>
<polygon fill="#63b8ff" stroke="#63b8ff" points="301.34,-73.01 311.72,-70.88 302.28,-66.07 301.34,-73.01"/>
</g>
<!-- Node5&#45;&gt;Node5 -->
<g id="edge9" class="edge">
<title>Node5&#45;&gt;Node5</title>
<path fill="none" stroke="#63b8ff" d="M113.89,-56.37C105.85,-64.94 111.72,-74 131.5,-74 142.93,-74 149.72,-70.97 151.86,-66.76"/>
<polygon fill="#63b8ff" stroke="#63b8ff" points="155.05,-66.14 149.11,-57.37 148.28,-67.93 155.05,-66.14"/>
</g>
<!-- Node6 -->
<g id="node6" class="node">
<title>Node6</title>
<g id="a_node6"><a target="_blank" xlink:href="http://en.cppreference.com/w/cpp/algorithm/min.html#" xlink:title=" ">
<polygon fill="white" stroke="#666666" points="277,-27 225,-27 225,-8 277,-8 277,-27"/>
<text text-anchor="middle" x="251" y="-15" font-family="Helvetica,sans-Serif" font-size="10.00">std::min</text>
</a>
</g>
</g>
<!-- Node5&#45;&gt;Node6 -->
<g id="edge8" class="edge">
<title>Node5&#45;&gt;Node6</title>
<path fill="none" stroke="#63b8ff" d="M172.94,-36.52C186.32,-33.22 201.11,-29.57 214.12,-26.36"/>
<polygon fill="#63b8ff" stroke="#63b8ff" points="214.7,-29.57 223.57,-23.78 213.02,-22.78 214.7,-29.57"/>
</g>
</g>
</svg>
