<?xml version="1.0" encoding="UTF-8" standalone="no"?>
<!DOCTYPE svg PUBLIC "-//W3C//DTD SVG 1.1//EN"
 "http://www.w3.org/Graphics/SVG/1.1/DTD/svg11.dtd">
<!-- Generated by graphviz version 8.0.2 (20230410.1723)
 -->
<!-- Title: graph::depth_first_search::dfs Pages: 1 -->
<svg width="396pt" height="156pt"
 viewBox="0.00 0.00 396.00 156.00" xmlns="http://www.w3.org/2000/svg" xmlns:xlink="http://www.w3.org/1999/xlink">
<g id="graph0" class="graph" transform="scale(1 1) rotate(0) translate(4 152)">
<title>graph::depth_first_search::dfs</title>
<!-- Node1 -->
<g id="node1" class="node">
<title>Node1</title>
<g id="a_node1"><a xlink:title="Explores the given vertex, exploring a vertex means traversing over all the vertices which are connec...">
<polygon fill="#999999" stroke="#666666" points="92,-79.5 0,-79.5 0,-49.5 92,-49.5 92,-79.5"/>
<text text-anchor="start" x="8" y="-67.5" font-family="Helvetica,sans-Serif" font-size="10.00">graph::depth_first</text>
<text text-anchor="middle" x="46" y="-56.5" font-family="Helvetica,sans-Serif" font-size="10.00">_search::dfs</text>
</a>
</g>
</g>
<!-- Node1&#45;&gt;Node1 -->
<g id="edge1" class="edge">
<title>Node1&#45;&gt;Node1</title>
<path fill="none" stroke="#63b8ff" d="M21.39,-79.78C15.92,-88.91 24.12,-97.5 46,-97.5 58.65,-97.5 66.72,-94.63 70.23,-90.44"/>
<polygon fill="#63b8ff" stroke="#63b8ff" points="73.75,-90.89 70.61,-80.78 66.76,-90.64 73.75,-90.89"/>
</g>
<!-- Node2 -->
<g id="node2" class="node">
<title>Node2</title>
<g id="a_node2"><a xlink:href="../../d1/dc2/classstack.html#a6cd4b95d5de00d41b2491392338384dc" target="_top" xlink:title=" ">
<polygon fill="white" stroke="#666666" points="217,-130 155,-130 155,-111 217,-111 217,-130"/>
<text text-anchor="middle" x="186" y="-118" font-family="Helvetica,sans-Serif" font-size="10.00">stack::pop</text>
</a>
</g>
</g>
<!-- Node1&#45;&gt;Node2 -->
<g id="edge2" class="edge">
<title>Node1&#45;&gt;Node2</title>
<path fill="none" stroke="#63b8ff" d="M77.35,-79.91C92.38,-87.24 110.93,-95.83 128,-102.5 133.18,-104.52 138.7,-106.49 144.17,-108.33"/>
<polygon fill="#63b8ff" stroke="#63b8ff" points="142.97,-111.95 153.57,-111.71 145.14,-105.29 142.97,-111.95"/>
</g>
<!-- Node5 -->
<g id="node5" class="node">
<title>Node5</title>
<g id="a_node5"><a xlink:href="../../d1/dc2/classstack.html#a5705c3926dcf5fd3f9c964467a50b81d" target="_top" xlink:title=" ">
<polygon fill="white" stroke="#666666" points="220,-93 152,-93 152,-74 220,-74 220,-93"/>
<text text-anchor="middle" x="186" y="-81" font-family="Helvetica,sans-Serif" font-size="10.00">stack::push</text>
</a>
</g>
</g>
<!-- Node1&#45;&gt;Node5 -->
<g id="edge5" class="edge">
<title>Node1&#45;&gt;Node5</title>
<path fill="none" stroke="#63b8ff" d="M92.19,-70.72C107.75,-72.86 125.15,-75.26 140.64,-77.39"/>
<polygon fill="#63b8ff" stroke="#63b8ff" points="140.15,-81 150.53,-78.89 141.1,-74.06 140.15,-81"/>
</g>
<!-- Node6 -->
<g id="node6" class="node">
<title>Node6</title>
<g id="a_node6"><a target="_blank" xlink:href="http://en.cppreference.com/w/cpp/container/vector/push_back.html#" xlink:title=" ">
<polygon fill="white" stroke="#666666" points="244,-56 128,-56 128,-37 244,-37 244,-56"/>
<text text-anchor="middle" x="186" y="-44" font-family="Helvetica,sans-Serif" font-size="10.00">std::vector::push_back</text>
</a>
</g>
</g>
<!-- Node1&#45;&gt;Node6 -->
<g id="edge6" class="edge">
<title>Node1&#45;&gt;Node6</title>
<path fill="none" stroke="#63b8ff" d="M92.19,-58.61C100.06,-57.58 108.4,-56.49 116.73,-55.41"/>
<polygon fill="#63b8ff" stroke="#63b8ff" points="117.16,-58.75 126.62,-53.98 116.26,-51.81 117.16,-58.75"/>
</g>
<!-- Node7 -->
<g id="node7" class="node">
<title>Node7</title>
<g id="a_node7"><a xlink:href="../../d1/dc2/classstack.html#a21c0bb6ce7dcfe445cc12031977ea344" target="_top" xlink:title=" ">
<polygon fill="white" stroke="#666666" points="216,-19 156,-19 156,0 216,0 216,-19"/>
<text text-anchor="middle" x="186" y="-7" font-family="Helvetica,sans-Serif" font-size="10.00">stack::top</text>
</a>
</g>
</g>
<!-- Node1&#45;&gt;Node7 -->
<g id="edge7" class="edge">
<title>Node1&#45;&gt;Node7</title>
<path fill="none" stroke="#63b8ff" d="M79.8,-49.06C94.42,-42.4 111.93,-34.73 128,-28.5 133.53,-26.35 139.42,-24.22 145.23,-22.21"/>
<polygon fill="#63b8ff" stroke="#63b8ff" points="146.17,-25.25 154.52,-18.73 143.92,-18.62 146.17,-25.25"/>
</g>
<!-- Node3 -->
<g id="node3" class="node">
<title>Node3</title>
<g id="a_node3"><a target="_blank" xlink:href="http://en.cppreference.com/w/cpp/io/manip/endl.html#" xlink:title=" ">
<polygon fill="white" stroke="#666666" points="361,-148 307,-148 307,-129 361,-129 361,-148"/>
<text text-anchor="middle" x="334" y="-136" font-family="Helvetica,sans-Serif" font-size="10.00">std::endl</text>
</a>
</g>
</g>
<!-- Node2&#45;&gt;Node3 -->
<g id="edge3" class="edge">
<title>Node2&#45;&gt;Node3</title>
<path fill="none" stroke="#63b8ff" d="M217.25,-124.23C240.14,-127.05 271.68,-130.94 296.06,-133.95"/>
<polygon fill="#63b8ff" stroke="#63b8ff" points="295.35,-137.51 305.7,-135.26 296.21,-130.56 295.35,-137.51"/>
</g>
<!-- Node4 -->
<g id="node4" class="node">
<title>Node4</title>
<g id="a_node4"><a xlink:href="../../d1/dc2/classstack.html#a066e4505155b009913c47b2648b1067a" target="_top" xlink:title=" ">
<polygon fill="white" stroke="#666666" points="388,-111 280,-111 280,-92 388,-92 388,-111"/>
<text text-anchor="middle" x="334" y="-99" font-family="Helvetica,sans-Serif" font-size="10.00">stack::isEmptyStack</text>
</a>
</g>
</g>
<!-- Node2&#45;&gt;Node4 -->
<g id="edge4" class="edge">
<title>Node2&#45;&gt;Node4</title>
<path fill="none" stroke="#63b8ff" d="M217.25,-116.56C232.26,-114.61 251,-112.17 268.99,-109.83"/>
<polygon fill="#63b8ff" stroke="#63b8ff" points="269.3,-113.19 278.76,-108.43 268.39,-106.25 269.3,-113.19"/>
</g>
</g>
</svg>
