<?xml version="1.0" encoding="UTF-8" standalone="no"?>
<!DOCTYPE svg PUBLIC "-//W3C//DTD SVG 1.1//EN"
 "http://www.w3.org/Graphics/SVG/1.1/DTD/svg11.dtd">
<!-- Generated by graphviz version 8.0.2 (20230410.1723)
 -->
<!-- Title: test Pages: 1 -->
<svg width="387pt" height="323pt"
 viewBox="0.00 0.00 387.00 323.00" xmlns="http://www.w3.org/2000/svg" xmlns:xlink="http://www.w3.org/1999/xlink">
<g id="graph0" class="graph" transform="scale(1 1) rotate(0) translate(4 319)">
<title>test</title>
<!-- Node1 -->
<g id="node1" class="node">
<title>Node1</title>
<g id="a_node1"><a xlink:title="Self&#45;test implementations.">
<polygon fill="#999999" stroke="#666666" points="33,-167 0,-167 0,-148 33,-148 33,-167"/>
<text text-anchor="middle" x="16.5" y="-155" font-family="Helvetica,sans-Serif" font-size="10.00">test</text>
</a>
</g>
</g>
<!-- Node2 -->
<g id="node2" class="node">
<title>Node2</title>
<g id="a_node2"><a xlink:href="../../dd/d47/namespacemath.html#a40e36c67da78d2131408c57ee091ad75" target="_top" xlink:title="area of a circle (pi">
<polygon fill="white" stroke="#666666" points="185,-315 93,-315 93,-296 185,-296 185,-315"/>
<text text-anchor="middle" x="139" y="-303" font-family="Helvetica,sans-Serif" font-size="10.00">math::circle_area</text>
</a>
</g>
</g>
<!-- Node1&#45;&gt;Node2 -->
<g id="edge1" class="edge">
<title>Node1&#45;&gt;Node2</title>
<path fill="none" stroke="#63b8ff" d="M18.42,-167.35C21.23,-191.62 31.91,-254.68 69,-287.5 73.07,-291.1 77.77,-293.99 82.76,-296.32"/>
<polygon fill="#63b8ff" stroke="#63b8ff" points="81.06,-299.8 91.65,-300.13 83.57,-293.27 81.06,-299.8"/>
</g>
<!-- Node3 -->
<g id="node3" class="node">
<title>Node3</title>
<g id="a_node3"><a xlink:href="../../dd/d47/namespacemath.html#abc46c784a297fc1d2eb8b33a327fba4c" target="_top" xlink:title="surface area of a cube ( 6 * (l">
<polygon fill="white" stroke="#666666" points="202.5,-278 75.5,-278 75.5,-259 202.5,-259 202.5,-278"/>
<text text-anchor="middle" x="139" y="-266" font-family="Helvetica,sans-Serif" font-size="10.00">math::cube_surface_area</text>
</a>
</g>
</g>
<!-- Node1&#45;&gt;Node3 -->
<g id="edge2" class="edge">
<title>Node1&#45;&gt;Node3</title>
<path fill="none" stroke="#63b8ff" d="M20.12,-167.36C25.73,-186.46 40.72,-228.54 69,-250.5 70.45,-251.62 71.95,-252.67 73.51,-253.66"/>
<polygon fill="#63b8ff" stroke="#63b8ff" points="71.44,-257.05 81.92,-258.63 74.71,-250.87 71.44,-257.05"/>
</g>
<!-- Node4 -->
<g id="node4" class="node">
<title>Node4</title>
<g id="a_node4"><a xlink:href="../../dd/d47/namespacemath.html#ac5803413618fcfb922cb32c6db0fc864" target="_top" xlink:title="surface area of a cylinder (2 * pi * r * h + 2 * pi * r^2)">
<polygon fill="white" stroke="#666666" points="209,-241 69,-241 69,-222 209,-222 209,-241"/>
<text text-anchor="middle" x="139" y="-229" font-family="Helvetica,sans-Serif" font-size="10.00">math::cylinder_surface_area</text>
</a>
</g>
</g>
<!-- Node1&#45;&gt;Node4 -->
<g id="edge3" class="edge">
<title>Node1&#45;&gt;Node4</title>
<path fill="none" stroke="#63b8ff" d="M23.9,-167.41C32.59,-180.04 49.3,-201.66 69,-213.5 71.37,-214.92 73.85,-216.23 76.4,-217.44"/>
<polygon fill="#63b8ff" stroke="#63b8ff" points="74.96,-221.05 85.53,-221.62 77.62,-214.57 74.96,-221.05"/>
</g>
<!-- Node7 -->
<g id="node7" class="node">
<title>Node7</title>
<g id="a_node7"><a target="_blank" xlink:href="http://en.cppreference.com/w/cpp/io/manip/endl.html#" xlink:title=" ">
<polygon fill="white" stroke="#666666" points="166,-204 112,-204 112,-185 166,-185 166,-204"/>
<text text-anchor="middle" x="139" y="-192" font-family="Helvetica,sans-Serif" font-size="10.00">std::endl</text>
</a>
</g>
</g>
<!-- Node1&#45;&gt;Node7 -->
<g id="edge7" class="edge">
<title>Node1&#45;&gt;Node7</title>
<path fill="none" stroke="#63b8ff" d="M33.14,-163.73C43.28,-167.65 56.82,-172.67 69,-176.5 79.34,-179.75 90.69,-182.88 101.13,-185.6"/>
<polygon fill="#63b8ff" stroke="#63b8ff" points="100.06,-189.19 110.62,-188.26 101.79,-182.41 100.06,-189.19"/>
</g>
<!-- Node8 -->
<g id="node8" class="node">
<title>Node8</title>
<g id="a_node8"><a xlink:href="../../dd/d47/namespacemath.html#a5de184925e68658f15415dd53954df4f" target="_top" xlink:title="area of a parallelogram (b * h)">
<polygon fill="white" stroke="#666666" points="202,-167 76,-167 76,-148 202,-148 202,-167"/>
<text text-anchor="middle" x="139" y="-155" font-family="Helvetica,sans-Serif" font-size="10.00">math::parallelogram_area</text>
</a>
</g>
</g>
<!-- Node1&#45;&gt;Node8 -->
<g id="edge8" class="edge">
<title>Node1&#45;&gt;Node8</title>
<path fill="none" stroke="#63b8ff" d="M33.25,-157.5C41.7,-157.5 52.79,-157.5 64.59,-157.5"/>
<polygon fill="#63b8ff" stroke="#63b8ff" points="64.56,-161 74.56,-157.5 64.56,-154 64.56,-161"/>
</g>
<!-- Node9 -->
<g id="node9" class="node">
<title>Node9</title>
<g id="a_node9"><a xlink:href="../../dd/d47/namespacemath.html#ab31d141f7c5b551746b1eee0eb4dedca" target="_top" xlink:title="area of a rectangle (l * w)">
<polygon fill="white" stroke="#666666" points="181.5,-130 96.5,-130 96.5,-111 181.5,-111 181.5,-130"/>
<text text-anchor="middle" x="139" y="-118" font-family="Helvetica,sans-Serif" font-size="10.00">math::rect_area</text>
</a>
</g>
</g>
<!-- Node1&#45;&gt;Node9 -->
<g id="edge10" class="edge">
<title>Node1&#45;&gt;Node9</title>
<path fill="none" stroke="#63b8ff" d="M33.19,-151.71C43.34,-148.04 56.88,-143.28 69,-139.5 75.69,-137.41 82.79,-135.32 89.79,-133.33"/>
<polygon fill="#63b8ff" stroke="#63b8ff" points="90.22,-136.56 98.9,-130.5 88.33,-129.82 90.22,-136.56"/>
</g>
<!-- Node10 -->
<g id="node10" class="node">
<title>Node10</title>
<g id="a_node10"><a xlink:href="../../dd/d47/namespacemath.html#ab7f29862d30df351c317eedd60a0c656" target="_top" xlink:title="surface area of a sphere ( 4 * pi * r^2)">
<polygon fill="white" stroke="#666666" points="206.5,-93 71.5,-93 71.5,-74 206.5,-74 206.5,-93"/>
<text text-anchor="middle" x="139" y="-81" font-family="Helvetica,sans-Serif" font-size="10.00">math::sphere_surface_area</text>
</a>
</g>
</g>
<!-- Node1&#45;&gt;Node10 -->
<g id="edge11" class="edge">
<title>Node1&#45;&gt;Node10</title>
<path fill="none" stroke="#63b8ff" d="M23.97,-147.81C32.73,-135.45 49.52,-114.27 69,-102.5 72.03,-100.67 75.24,-99.01 78.56,-97.51"/>
<polygon fill="#63b8ff" stroke="#63b8ff" points="79.73,-100.41 87.73,-93.45 77.14,-93.9 79.73,-100.41"/>
</g>
<!-- Node11 -->
<g id="node11" class="node">
<title>Node11</title>
<g id="a_node11"><a xlink:href="../../dd/d47/namespacemath.html#a971ce57e368f2f631cf1f4ff3f864049" target="_top" xlink:title="area of a square (l * l)">
<polygon fill="white" stroke="#666666" points="188,-56 90,-56 90,-37 188,-37 188,-56"/>
<text text-anchor="middle" x="139" y="-44" font-family="Helvetica,sans-Serif" font-size="10.00">math::square_area</text>
</a>
</g>
</g>
<!-- Node1&#45;&gt;Node11 -->
<g id="edge12" class="edge">
<title>Node1&#45;&gt;Node11</title>
<path fill="none" stroke="#63b8ff" d="M20.18,-147.78C25.88,-128.94 41.05,-87.4 69,-65.5 72.32,-62.9 75.96,-60.66 79.8,-58.72"/>
<polygon fill="#63b8ff" stroke="#63b8ff" points="80.81,-61.67 88.63,-54.51 78.06,-55.23 80.81,-61.67"/>
</g>
<!-- Node12 -->
<g id="node12" class="node">
<title>Node12</title>
<g id="a_node12"><a xlink:href="../../dd/d47/namespacemath.html#ab3b920cc56442abd92279ba23b50f4dc" target="_top" xlink:title="area of a triangle (b * h / 2)">
<polygon fill="white" stroke="#666666" points="189,-19 89,-19 89,0 189,0 189,-19"/>
<text text-anchor="middle" x="139" y="-7" font-family="Helvetica,sans-Serif" font-size="10.00">math::triangle_area</text>
</a>
</g>
</g>
<!-- Node1&#45;&gt;Node12 -->
<g id="edge13" class="edge">
<title>Node1&#45;&gt;Node12</title>
<path fill="none" stroke="#63b8ff" d="M18.47,-147.75C21.4,-123.74 32.34,-61.3 69,-28.5 72,-25.82 75.35,-23.51 78.9,-21.52"/>
<polygon fill="#63b8ff" stroke="#63b8ff" points="80.11,-24.36 87.72,-16.98 77.17,-18 80.11,-24.36"/>
</g>
<!-- Node5 -->
<g id="node5" class="node">
<title>Node5</title>
<g id="a_node5"><a xlink:href="../../d8/dee/avltree_8cpp.html#ae4a66d8b0c2b0d626aea45977e358c83" target="_top" xlink:title=" ">
<polygon fill="white" stroke="#666666" points="288,-167 245,-167 245,-148 288,-148 288,-167"/>
<text text-anchor="middle" x="266.5" y="-155" font-family="Helvetica,sans-Serif" font-size="10.00">height</text>
</a>
</g>
</g>
<!-- Node4&#45;&gt;Node5 -->
<g id="edge4" class="edge">
<title>Node4&#45;&gt;Node5</title>
<path fill="none" stroke="#63b8ff" d="M190.6,-221.62C197,-219.42 203.3,-216.75 209,-213.5 225.8,-203.92 241.12,-188.07 251.56,-175.67"/>
<polygon fill="#63b8ff" stroke="#63b8ff" points="254.69,-178.37 258.25,-168.39 249.24,-173.97 254.69,-178.37"/>
</g>
<!-- Node5&#45;&gt;Node5 -->
<g id="edge5" class="edge">
<title>Node5&#45;&gt;Node5</title>
<path fill="none" stroke="#63b8ff" d="M253.19,-167.37C247.12,-175.94 251.56,-185 266.5,-185 274.9,-185 279.99,-182.13 281.74,-178.1"/>
<polygon fill="#63b8ff" stroke="#63b8ff" points="285.03,-177.59 279.81,-168.37 278.14,-178.83 285.03,-177.59"/>
</g>
<!-- Node6 -->
<g id="node6" class="node">
<title>Node6</title>
<g id="a_node6"><a target="_blank" xlink:href="http://en.cppreference.com/w/cpp/algorithm/max.html#" xlink:title=" ">
<polygon fill="white" stroke="#666666" points="379,-167 324,-167 324,-148 379,-148 379,-167"/>
<text text-anchor="middle" x="351.5" y="-155" font-family="Helvetica,sans-Serif" font-size="10.00">std::max</text>
</a>
</g>
</g>
<!-- Node5&#45;&gt;Node6 -->
<g id="edge6" class="edge">
<title>Node5&#45;&gt;Node6</title>
<path fill="none" stroke="#63b8ff" d="M288.44,-157.5C295.86,-157.5 304.44,-157.5 312.82,-157.5"/>
<polygon fill="#63b8ff" stroke="#63b8ff" points="312.59,-161 322.59,-157.5 312.59,-154 312.59,-161"/>
</g>
<!-- Node8&#45;&gt;Node5 -->
<g id="edge9" class="edge">
<title>Node8&#45;&gt;Node5</title>
<path fill="none" stroke="#63b8ff" d="M202.38,-157.5C213.23,-157.5 224.09,-157.5 233.67,-157.5"/>
<polygon fill="#63b8ff" stroke="#63b8ff" points="233.63,-161 243.63,-157.5 233.63,-154 233.63,-161"/>
</g>
<!-- Node12&#45;&gt;Node5 -->
<g id="edge14" class="edge">
<title>Node12&#45;&gt;Node5</title>
<path fill="none" stroke="#63b8ff" d="M189.49,-17.28C196.58,-19.99 203.36,-23.62 209,-28.5 242,-57.06 256.45,-108.51 262.17,-137.04"/>
<polygon fill="#63b8ff" stroke="#63b8ff" points="258.89,-137.52 264.12,-146.73 265.77,-136.27 258.89,-137.52"/>
</g>
</g>
</svg>
