<?xml version="1.0" encoding="UTF-8" standalone="no"?>
<!DOCTYPE svg PUBLIC "-//W3C//DTD SVG 1.1//EN"
 "http://www.w3.org/Graphics/SVG/1.1/DTD/svg11.dtd">
<!-- Generated by graphviz version 8.0.2 (20230410.1723)
 -->
<!-- Title: linear_algebra::gram_schmidt::gram_schmidt Pages: 1 -->
<svg width="421pt" height="56pt"
 viewBox="0.00 0.00 421.00 56.00" xmlns="http://www.w3.org/2000/svg" xmlns:xlink="http://www.w3.org/1999/xlink">
<g id="graph0" class="graph" transform="scale(1 1) rotate(0) translate(4 52)">
<title>linear_algebra::gram_schmidt::gram_schmidt</title>
<!-- Node1 -->
<g id="node1" class="node">
<title>Node1</title>
<g id="a_node1"><a xlink:title=" ">
<polygon fill="#999999" stroke="#666666" points="124,-30 0,-30 0,0 124,0 124,-30"/>
<text text-anchor="start" x="8" y="-18" font-family="Helvetica,sans-Serif" font-size="10.00">linear_algebra::gram</text>
<text text-anchor="middle" x="62" y="-7" font-family="Helvetica,sans-Serif" font-size="10.00">_schmidt::gram_schmidt</text>
</a>
</g>
</g>
<!-- Node2 -->
<g id="node2" class="node">
<title>Node2</title>
<g id="a_node2"><a xlink:href="../../d5/d33/gram__schmidt_8cpp.html#a46e459aff5eafffb5ad9ceb129b4d274" target="_top" xlink:title=" ">
<polygon fill="white" stroke="#666666" points="264,-30 160,-30 160,0 264,0 264,-30"/>
<text text-anchor="start" x="168" y="-18" font-family="Helvetica,sans-Serif" font-size="10.00">linear_algebra::gram</text>
<text text-anchor="middle" x="212" y="-7" font-family="Helvetica,sans-Serif" font-size="10.00">_schmidt::projection</text>
</a>
</g>
</g>
<!-- Node1&#45;&gt;Node2 -->
<g id="edge1" class="edge">
<title>Node1&#45;&gt;Node2</title>
<path fill="none" stroke="#63b8ff" d="M124.48,-15C132.56,-15 140.85,-15 148.94,-15"/>
<polygon fill="#63b8ff" stroke="#63b8ff" points="148.81,-18.5 158.81,-15 148.81,-11.5 148.81,-18.5"/>
</g>
<!-- Node2&#45;&gt;Node2 -->
<g id="edge4" class="edge">
<title>Node2&#45;&gt;Node2</title>
<path fill="none" stroke="#63b8ff" d="M186.6,-30.28C180.96,-39.41 189.42,-48 212,-48 225.05,-48 233.39,-45.13 237.01,-40.94"/>
<polygon fill="#63b8ff" stroke="#63b8ff" points="240.53,-41.4 237.4,-31.28 233.54,-41.14 240.53,-41.4"/>
</g>
<!-- Node3 -->
<g id="node3" class="node">
<title>Node3</title>
<g id="a_node3"><a xlink:href="../../d5/d33/gram__schmidt_8cpp.html#aed4d308f46ca1d91e348ca260ec1d2fb" target="_top" xlink:title=" ">
<polygon fill="white" stroke="#666666" points="413,-30 300,-30 300,0 413,0 413,-30"/>
<text text-anchor="start" x="308" y="-18" font-family="Helvetica,sans-Serif" font-size="10.00">linear_algebra::gram</text>
<text text-anchor="middle" x="356.5" y="-7" font-family="Helvetica,sans-Serif" font-size="10.00">_schmidt::dot_product</text>
</a>
</g>
</g>
<!-- Node2&#45;&gt;Node3 -->
<g id="edge2" class="edge">
<title>Node2&#45;&gt;Node3</title>
<path fill="none" stroke="#63b8ff" d="M264.45,-15C272.43,-15 280.77,-15 289.03,-15"/>
<polygon fill="#63b8ff" stroke="#63b8ff" points="288.79,-18.5 298.79,-15 288.79,-11.5 288.79,-18.5"/>
</g>
<!-- Node3&#45;&gt;Node3 -->
<g id="edge3" class="edge">
<title>Node3&#45;&gt;Node3</title>
<path fill="none" stroke="#63b8ff" d="M331.1,-30.28C325.46,-39.41 333.92,-48 356.5,-48 369.55,-48 377.89,-45.13 381.51,-40.94"/>
<polygon fill="#63b8ff" stroke="#63b8ff" points="385.03,-41.4 381.9,-31.28 378.04,-41.14 385.03,-41.4"/>
</g>
</g>
</svg>
