<?xml version="1.0" encoding="UTF-8" standalone="no"?>
<!DOCTYPE svg PUBLIC "-//W3C//DTD SVG 1.1//EN"
 "http://www.w3.org/Graphics/SVG/1.1/DTD/svg11.dtd">
<!-- Generated by graphviz version 8.0.2 (20230410.1723)
 -->
<!-- Title: linear_algebra::gram_schmidt::projection Pages: 1 -->
<svg width="261pt" height="56pt"
 viewBox="0.00 0.00 261.00 56.00" xmlns="http://www.w3.org/2000/svg" xmlns:xlink="http://www.w3.org/1999/xlink">
<g id="graph0" class="graph" transform="scale(1 1) rotate(0) translate(4 52)">
<title>linear_algebra::gram_schmidt::projection</title>
<!-- Node1 -->
<g id="node1" class="node">
<title>Node1</title>
<g id="a_node1"><a xlink:title=" ">
<polygon fill="#999999" stroke="#666666" points="104,-30 0,-30 0,0 104,0 104,-30"/>
<text text-anchor="start" x="8" y="-18" font-family="Helvetica,sans-Serif" font-size="10.00">linear_algebra::gram</text>
<text text-anchor="middle" x="52" y="-7" font-family="Helvetica,sans-Serif" font-size="10.00">_schmidt::projection</text>
</a>
</g>
</g>
<!-- Node1&#45;&gt;Node1 -->
<g id="edge3" class="edge">
<title>Node1&#45;&gt;Node1</title>
<path fill="none" stroke="#63b8ff" d="M26.6,-30.28C20.96,-39.41 29.42,-48 52,-48 65.05,-48 73.39,-45.13 77.01,-40.94"/>
<polygon fill="#63b8ff" stroke="#63b8ff" points="80.53,-41.4 77.4,-31.28 73.54,-41.14 80.53,-41.4"/>
</g>
<!-- Node2 -->
<g id="node2" class="node">
<title>Node2</title>
<g id="a_node2"><a xlink:href="../../d5/d33/gram__schmidt_8cpp.html#aed4d308f46ca1d91e348ca260ec1d2fb" target="_top" xlink:title=" ">
<polygon fill="white" stroke="#666666" points="253,-30 140,-30 140,0 253,0 253,-30"/>
<text text-anchor="start" x="148" y="-18" font-family="Helvetica,sans-Serif" font-size="10.00">linear_algebra::gram</text>
<text text-anchor="middle" x="196.5" y="-7" font-family="Helvetica,sans-Serif" font-size="10.00">_schmidt::dot_product</text>
</a>
</g>
</g>
<!-- Node1&#45;&gt;Node2 -->
<g id="edge1" class="edge">
<title>Node1&#45;&gt;Node2</title>
<path fill="none" stroke="#63b8ff" d="M104.45,-15C112.43,-15 120.77,-15 129.03,-15"/>
<polygon fill="#63b8ff" stroke="#63b8ff" points="128.79,-18.5 138.79,-15 128.79,-11.5 128.79,-18.5"/>
</g>
<!-- Node2&#45;&gt;Node2 -->
<g id="edge2" class="edge">
<title>Node2&#45;&gt;Node2</title>
<path fill="none" stroke="#63b8ff" d="M171.1,-30.28C165.46,-39.41 173.92,-48 196.5,-48 209.55,-48 217.89,-45.13 221.51,-40.94"/>
<polygon fill="#63b8ff" stroke="#63b8ff" points="225.03,-41.4 221.9,-31.28 218.04,-41.14 225.03,-41.4"/>
</g>
</g>
</svg>
