<?xml version="1.0" encoding="UTF-8" standalone="no"?>
<!DOCTYPE svg PUBLIC "-//W3C//DTD SVG 1.1//EN"
 "http://www.w3.org/Graphics/SVG/1.1/DTD/svg11.dtd">
<!-- Generated by graphviz version 8.0.2 (20230410.1723)
 -->
<!-- Title: hash_chain Pages: 1 -->
<svg width="223pt" height="255pt"
 viewBox="0.00 0.00 222.50 255.00" xmlns="http://www.w3.org/2000/svg" xmlns:xlink="http://www.w3.org/1999/xlink">
<g id="graph0" class="graph" transform="scale(1 1) rotate(0) translate(4 251)">
<title>hash_chain</title>
<!-- Node1 -->
<g id="node1" class="node">
<title>Node1</title>
<g id="a_node1"><a xlink:title="Chain class with a given modulus.">
<polygon fill="#999999" stroke="#666666" points="102,-19 36,-19 36,0 102,0 102,-19"/>
<text text-anchor="middle" x="69" y="-7" font-family="Helvetica,sans-Serif" font-size="10.00">hash_chain</text>
</a>
</g>
</g>
<!-- Node2 -->
<g id="node2" class="node">
<title>Node2</title>
<g id="a_node2"><a target="_blank" xlink:href="http://en.cppreference.com/w/cpp/memory/shared_ptr.html" xlink:title=" ">
<polygon fill="white" stroke="#666666" points="116,-144 0,-144 0,-114 116,-114 116,-144"/>
<text text-anchor="start" x="8" y="-132" font-family="Helvetica,sans-Serif" font-size="10.00">std::shared_ptr&lt; struct</text>
<text text-anchor="middle" x="58" y="-121" font-family="Helvetica,sans-Serif" font-size="10.00"> Node &gt;</text>
</a>
</g>
</g>
<!-- Node2&#45;&gt;Node1 -->
<g id="edge1" class="edge">
<title>Node2&#45;&gt;Node1</title>
<path fill="none" stroke="#9a32cd" stroke-dasharray="5,2" d="M59.27,-102.88C59.93,-91.59 60.85,-78.11 62,-66 63.58,-49.37 66.2,-30.03 67.75,-19.13"/>
<polygon fill="#9a32cd" stroke="#9a32cd" points="55.73,-102.52 58.67,-112.7 62.72,-102.91 55.73,-102.52"/>
<text text-anchor="middle" x="73" y="-78.5" font-family="Helvetica,sans-Serif" font-size="10.00"> next</text>
</g>
<!-- Node3 -->
<g id="node3" class="node">
<title>Node3</title>
<g id="a_node3"><a xlink:href="../../db/d8b/struct_node.html" target="_top" xlink:title=" ">
<polygon fill="white" stroke="#bfbfbf" points="100,-247 60,-247 60,-228 100,-228 100,-247"/>
<text text-anchor="middle" x="80" y="-235" font-family="Helvetica,sans-Serif" font-size="10.00">Node</text>
</a>
</g>
</g>
<!-- Node3&#45;&gt;Node2 -->
<g id="edge2" class="edge">
<title>Node3&#45;&gt;Node2</title>
<path fill="none" stroke="#9a32cd" stroke-dasharray="5,2" d="M76.02,-217.25C71.67,-196.19 64.8,-162.94 60.92,-144.15"/>
<polygon fill="#9a32cd" stroke="#9a32cd" points="72.75,-217.7 78.2,-226.78 79.6,-216.28 72.75,-217.7"/>
<text text-anchor="middle" x="82.5" y="-202" font-family="Helvetica,sans-Serif" font-size="10.00"> ptr</text>
</g>
<!-- Node3&#45;&gt;Node3 -->
<g id="edge3" class="edge">
<title>Node3&#45;&gt;Node3</title>
<path fill="none" stroke="#9a32cd" stroke-dasharray="5,2" d="M111.1,-242.97C115.25,-242.04 118,-240.22 118,-237.5 118,-232.79 109.76,-230.77 100.33,-231.43"/>
<polygon fill="#9a32cd" stroke="#9a32cd" points="111.12,-239.52 101.33,-243.57 111.51,-246.51 111.12,-239.52"/>
<text text-anchor="middle" x="129" y="-235" font-family="Helvetica,sans-Serif" font-size="10.00"> next</text>
</g>
<!-- Node5 -->
<g id="node5" class="node">
<title>Node5</title>
<g id="a_node5"><a target="_blank" xlink:href="http://en.cppreference.com/w/cpp/memory/shared_ptr.html" xlink:title=" ">
<polygon fill="white" stroke="#666666" points="213.5,-181 90.5,-181 90.5,-162 213.5,-162 213.5,-181"/>
<text text-anchor="middle" x="152" y="-169" font-family="Helvetica,sans-Serif" font-size="10.00">std::shared_ptr&lt; Node &gt;</text>
</a>
</g>
</g>
<!-- Node3&#45;&gt;Node5 -->
<g id="edge6" class="edge">
<title>Node3&#45;&gt;Node5</title>
<path fill="none" stroke="#9a32cd" stroke-dasharray="5,2" d="M97.95,-220.54C111.9,-208.14 130.72,-191.42 142.07,-181.32"/>
<polygon fill="#9a32cd" stroke="#9a32cd" points="96.16,-217.34 91.01,-226.6 100.81,-222.57 96.16,-217.34"/>
<text text-anchor="middle" x="127.5" y="-202" font-family="Helvetica,sans-Serif" font-size="10.00"> ptr</text>
</g>
<!-- Node4 -->
<g id="node4" class="node">
<title>Node4</title>
<g id="a_node4"><a target="_blank" xlink:href="http://en.cppreference.com/w/cpp/container/vector.html" xlink:title=" ">
<polygon fill="white" stroke="#666666" points="214.5,-96 93.5,-96 93.5,-66 214.5,-66 214.5,-96"/>
<text text-anchor="start" x="101.5" y="-84" font-family="Helvetica,sans-Serif" font-size="10.00">std::vector&lt; std::shared</text>
<text text-anchor="middle" x="154" y="-73" font-family="Helvetica,sans-Serif" font-size="10.00">_ptr&lt; Node &gt; &gt;</text>
</a>
</g>
</g>
<!-- Node4&#45;&gt;Node1 -->
<g id="edge4" class="edge">
<title>Node4&#45;&gt;Node1</title>
<path fill="none" stroke="#9a32cd" stroke-dasharray="5,2" d="M128.28,-58.97C111.97,-45.63 91.73,-29.08 79.61,-19.18"/>
<polygon fill="#9a32cd" stroke="#9a32cd" points="125.43,-61.98 135.39,-65.6 129.86,-56.56 125.43,-61.98"/>
<text text-anchor="middle" x="126.5" y="-40" font-family="Helvetica,sans-Serif" font-size="10.00"> head</text>
</g>
<!-- Node5&#45;&gt;Node4 -->
<g id="edge5" class="edge">
<title>Node5&#45;&gt;Node4</title>
<path fill="none" stroke="#9a32cd" stroke-dasharray="5,2" d="M152.44,-151.08C152.81,-134.54 153.34,-111.16 153.68,-96.29"/>
<polygon fill="#9a32cd" stroke="#9a32cd" points="148.93,-150.61 152.2,-160.69 155.92,-150.77 148.93,-150.61"/>
<text text-anchor="middle" x="174.5" y="-126.5" font-family="Helvetica,sans-Serif" font-size="10.00"> elements</text>
</g>
</g>
</svg>
