<?xml version="1.0" encoding="UTF-8" standalone="no"?>
<!DOCTYPE svg PUBLIC "-//W3C//DTD SVG 1.1//EN"
 "http://www.w3.org/Graphics/SVG/1.1/DTD/svg11.dtd">
<!-- Generated by graphviz version 8.0.2 (20230410.1723)
 -->
<!-- Title: Queue Pages: 1 -->
<svg width="129pt" height="162pt"
 viewBox="0.00 0.00 129.00 162.00" xmlns="http://www.w3.org/2000/svg" xmlns:xlink="http://www.w3.org/1999/xlink">
<g id="graph0" class="graph" transform="scale(1 1) rotate(0) translate(4 158)">
<title>Queue</title>
<!-- Node1 -->
<g id="node1" class="node">
<title>Node1</title>
<g id="a_node1"><a xlink:title=" ">
<polygon fill="#999999" stroke="#666666" points="60,-19 15,-19 15,0 60,0 60,-19"/>
<text text-anchor="middle" x="37.5" y="-7" font-family="Helvetica,sans-Serif" font-size="10.00">Queue</text>
</a>
</g>
</g>
<!-- Node2 -->
<g id="node2" class="node">
<title>Node2</title>
<g id="a_node2"><a xlink:href="../../d5/da1/structnode.html" target="_top" xlink:title=" ">
<polygon fill="white" stroke="#666666" points="75,-130.5 0,-130.5 0,-111.5 75,-111.5 75,-130.5"/>
<text text-anchor="middle" x="37.5" y="-118.5" font-family="Helvetica,sans-Serif" font-size="10.00">node&lt; Kind &gt;</text>
</a>
</g>
</g>
<!-- Node2&#45;&gt;Node1 -->
<g id="edge1" class="edge">
<title>Node2&#45;&gt;Node1</title>
<path fill="none" stroke="#9a32cd" stroke-dasharray="5,2" d="M37.5,-100.06C37.5,-76.03 37.5,-36.7 37.5,-19.28"/>
<polygon fill="#9a32cd" stroke="#9a32cd" points="34,-100.04 37.5,-110.04 41,-100.04 34,-100.04"/>
<text text-anchor="middle" x="49" y="-62" font-family="Helvetica,sans-Serif" font-size="10.00"> front</text>
<text text-anchor="middle" x="49" y="-51" font-family="Helvetica,sans-Serif" font-size="10.00">rear</text>
<text text-anchor="middle" x="49" y="-40" font-family="Helvetica,sans-Serif" font-size="10.00">t</text>
</g>
<!-- Node2&#45;&gt;Node2 -->
<g id="edge2" class="edge">
<title>Node2&#45;&gt;Node2</title>
<path fill="none" stroke="#9a32cd" stroke-dasharray="5,2" d="M65.92,-133.27C80.22,-135.01 93,-130.92 93,-121 93,-108.67 73.26,-105.35 55.4,-111.03"/>
<polygon fill="#9a32cd" stroke="#9a32cd" points="66.92,-129.68 56.4,-130.97 65.43,-136.52 66.92,-129.68"/>
<text text-anchor="middle" x="107" y="-146" font-family="Helvetica,sans-Serif" font-size="10.00"> left</text>
<text text-anchor="middle" x="107" y="-135" font-family="Helvetica,sans-Serif" font-size="10.00">link</text>
<text text-anchor="middle" x="107" y="-124" font-family="Helvetica,sans-Serif" font-size="10.00">next</text>
<text text-anchor="middle" x="107" y="-113" font-family="Helvetica,sans-Serif" font-size="10.00">parent</text>
<text text-anchor="middle" x="107" y="-102" font-family="Helvetica,sans-Serif" font-size="10.00">prev</text>
<text text-anchor="middle" x="107" y="-91" font-family="Helvetica,sans-Serif" font-size="10.00">right</text>
</g>
</g>
</svg>
