<?xml version="1.0" encoding="UTF-8" standalone="no"?>
<!DOCTYPE svg PUBLIC "-//W3C//DTD SVG 1.1//EN"
 "http://www.w3.org/Graphics/SVG/1.1/DTD/svg11.dtd">
<!-- Generated by graphviz version 8.0.2 (20230410.1723)
 -->
<!-- Title: main Pages: 1 -->
<svg width="321pt" height="196pt"
 viewBox="0.00 0.00 321.00 196.00" xmlns="http://www.w3.org/2000/svg" xmlns:xlink="http://www.w3.org/1999/xlink">
<g id="graph0" class="graph" transform="scale(1 1) rotate(0) translate(4 192)">
<title>main</title>
<!-- Node1 -->
<g id="node1" class="node">
<title>Node1</title>
<g id="a_node1"><a xlink:title=" ">
<polygon fill="#999999" stroke="#666666" points="38,-112 0,-112 0,-93 38,-93 38,-112"/>
<text text-anchor="middle" x="19" y="-100" font-family="Helvetica,sans-Serif" font-size="10.00">main</text>
</a>
</g>
</g>
<!-- Node2 -->
<g id="node2" class="node">
<title>Node2</title>
<g id="a_node2"><a target="_blank" xlink:href="http://en.cppreference.com/w/cpp/io/manip/endl.html#" xlink:title=" ">
<polygon fill="white" stroke="#666666" points="296.5,-169 242.5,-169 242.5,-150 296.5,-150 296.5,-169"/>
<text text-anchor="middle" x="269.5" y="-157" font-family="Helvetica,sans-Serif" font-size="10.00">std::endl</text>
</a>
</g>
</g>
<!-- Node1&#45;&gt;Node2 -->
<g id="edge1" class="edge">
<title>Node1&#45;&gt;Node2</title>
<path fill="none" stroke="#63b8ff" d="M38.27,-106.69C78.96,-116.02 177.68,-138.67 231.69,-151.06"/>
<polygon fill="#63b8ff" stroke="#63b8ff" points="230.65,-154.64 241.18,-153.46 232.22,-147.82 230.65,-154.64"/>
</g>
<!-- Node3 -->
<g id="node3" class="node">
<title>Node3</title>
<g id="a_node3"><a xlink:href="../../d1/df3/hash__search_8cpp.html#a566eaf0ffafd50bc61e644561fd27001" target="_top" xlink:title=" ">
<polygon fill="white" stroke="#666666" points="284,-103 255,-103 255,-84 284,-84 284,-103"/>
<text text-anchor="middle" x="269.5" y="-91" font-family="Helvetica,sans-Serif" font-size="10.00">h</text>
</a>
</g>
</g>
<!-- Node1&#45;&gt;Node3 -->
<g id="edge2" class="edge">
<title>Node1&#45;&gt;Node3</title>
<path fill="none" stroke="#63b8ff" d="M38.27,-101.84C82.27,-100.24 194.13,-96.19 243.93,-94.39"/>
<polygon fill="#63b8ff" stroke="#63b8ff" points="243.78,-97.86 253.65,-94 243.53,-90.87 243.78,-97.86"/>
</g>
<!-- Node4 -->
<g id="node4" class="node">
<title>Node4</title>
<g id="a_node4"><a xlink:href="../../d5/dc5/biggest__slice_8cpp.html#af7ee7a006f335948051efd0b913e45cd" target="_top" xlink:title=" ">
<polygon fill="white" stroke="#666666" points="160,-37 104,-37 104,-18 160,-18 160,-37"/>
<text text-anchor="middle" x="132" y="-25" font-family="Helvetica,sans-Serif" font-size="10.00">maxArea</text>
</a>
</g>
</g>
<!-- Node1&#45;&gt;Node4 -->
<g id="edge3" class="edge">
<title>Node1&#45;&gt;Node4</title>
<path fill="none" stroke="#63b8ff" d="M26.88,-92.57C36.17,-79.89 53.89,-58.08 74,-45.5 79.89,-41.82 86.59,-38.83 93.29,-36.42"/>
<polygon fill="#63b8ff" stroke="#63b8ff" points="94.21,-39.48 102.68,-33.11 92.09,-32.81 94.21,-39.48"/>
</g>
<!-- Node7 -->
<g id="node7" class="node">
<title>Node7</title>
<g id="a_node7"><a target="_blank" xlink:href="http://en.cppreference.com/w/cpp/container/vector/push_back.html#" xlink:title=" ">
<polygon fill="white" stroke="#666666" points="190,-74 74,-74 74,-55 190,-55 190,-74"/>
<text text-anchor="middle" x="132" y="-62" font-family="Helvetica,sans-Serif" font-size="10.00">std::vector::push_back</text>
</a>
</g>
</g>
<!-- Node1&#45;&gt;Node7 -->
<g id="edge7" class="edge">
<title>Node1&#45;&gt;Node7</title>
<path fill="none" stroke="#63b8ff" d="M38.33,-96.23C52.85,-91.26 73.64,-84.14 91.85,-77.9"/>
<polygon fill="#63b8ff" stroke="#63b8ff" points="92.88,-80.91 101.21,-74.36 90.62,-74.28 92.88,-80.91"/>
</g>
<!-- Node8 -->
<g id="node8" class="node">
<title>Node8</title>
<g id="a_node8"><a xlink:href="../../d6/d2c/caesar__cipher_8cpp.html#ae1a3968e7947464bee7714f6d43b7002" target="_top" xlink:title=" ">
<polygon fill="white" stroke="#666666" points="148.5,-188 115.5,-188 115.5,-169 148.5,-169 148.5,-188"/>
<text text-anchor="middle" x="132" y="-176" font-family="Helvetica,sans-Serif" font-size="10.00">test</text>
</a>
</g>
</g>
<!-- Node1&#45;&gt;Node8 -->
<g id="edge8" class="edge">
<title>Node1&#45;&gt;Node8</title>
<path fill="none" stroke="#63b8ff" d="M28.28,-112.45C38.19,-123.84 55.74,-142.47 74,-154.5 83.48,-160.75 94.86,-165.93 104.94,-169.86"/>
<polygon fill="#63b8ff" stroke="#63b8ff" points="103.64,-173.47 114.23,-173.62 106.04,-166.9 103.64,-173.47"/>
</g>
<!-- Node4&#45;&gt;Node3 -->
<g id="edge4" class="edge">
<title>Node4&#45;&gt;Node3</title>
<path fill="none" stroke="#63b8ff" d="M160.47,-34.7C170.01,-37.59 180.65,-41.24 190,-45.5 209.74,-54.49 230.63,-67.45 245.89,-77.64"/>
<polygon fill="#63b8ff" stroke="#63b8ff" points="243.37,-80.84 253.61,-83.56 247.31,-75.05 243.37,-80.84"/>
</g>
<!-- Node5 -->
<g id="node5" class="node">
<title>Node5</title>
<g id="a_node5"><a target="_blank" xlink:href="http://en.cppreference.com/w/cpp/algorithm/max.html#" xlink:title=" ">
<polygon fill="white" stroke="#666666" points="297,-19 242,-19 242,0 297,0 297,-19"/>
<text text-anchor="middle" x="269.5" y="-7" font-family="Helvetica,sans-Serif" font-size="10.00">std::max</text>
</a>
</g>
</g>
<!-- Node4&#45;&gt;Node5 -->
<g id="edge5" class="edge">
<title>Node4&#45;&gt;Node5</title>
<path fill="none" stroke="#63b8ff" d="M160.42,-23.86C180.66,-21.17 208.46,-17.48 230.79,-14.51"/>
<polygon fill="#63b8ff" stroke="#63b8ff" points="231.13,-17.86 240.58,-13.08 230.21,-10.92 231.13,-17.86"/>
</g>
<!-- Node6 -->
<g id="node6" class="node">
<title>Node6</title>
<g id="a_node6"><a target="_blank" xlink:href="http://en.cppreference.com/w/cpp/container/vector/size.html#" xlink:title=" ">
<polygon fill="white" stroke="#666666" points="313,-56 226,-56 226,-37 313,-37 313,-56"/>
<text text-anchor="middle" x="269.5" y="-44" font-family="Helvetica,sans-Serif" font-size="10.00">std::vector::size</text>
</a>
</g>
</g>
<!-- Node4&#45;&gt;Node6 -->
<g id="edge6" class="edge">
<title>Node4&#45;&gt;Node6</title>
<path fill="none" stroke="#63b8ff" d="M160.42,-31.34C176.06,-33.54 196.22,-36.36 214.88,-38.98"/>
<polygon fill="#63b8ff" stroke="#63b8ff" points="214.26,-42.57 224.64,-40.49 215.23,-35.64 214.26,-42.57"/>
</g>
<!-- Node8&#45;&gt;Node2 -->
<g id="edge9" class="edge">
<title>Node8&#45;&gt;Node2</title>
<path fill="none" stroke="#63b8ff" d="M148.81,-176.28C168.93,-173.46 204.34,-168.5 231.44,-164.7"/>
<polygon fill="#63b8ff" stroke="#63b8ff" points="231.69,-168.06 241.11,-163.2 230.72,-161.12 231.69,-168.06"/>
</g>
</g>
</svg>
