<?xml version="1.0" encoding="UTF-8" standalone="no"?>
<!DOCTYPE svg PUBLIC "-//W3C//DTD SVG 1.1//EN"
 "http://www.w3.org/Graphics/SVG/1.1/DTD/svg11.dtd">
<!-- Generated by graphviz version 8.0.2 (20230410.1723)
 -->
<!-- Title: insert Pages: 1 -->
<svg width="322pt" height="138pt"
 viewBox="0.00 0.00 322.00 138.00" xmlns="http://www.w3.org/2000/svg" xmlns:xlink="http://www.w3.org/1999/xlink">
<g id="graph0" class="graph" transform="scale(1 1) rotate(0) translate(4 134)">
<title>insert</title>
<!-- Node1 -->
<g id="node1" class="node">
<title>Node1</title>
<g id="a_node1"><a xlink:title=" ">
<polygon fill="#999999" stroke="#666666" points="41,-74 0,-74 0,-55 41,-55 41,-74"/>
<text text-anchor="middle" x="20.5" y="-62" font-family="Helvetica,sans-Serif" font-size="10.00">insert</text>
</a>
</g>
</g>
<!-- Node1&#45;&gt;Node1 -->
<g id="edge6" class="edge">
<title>Node1&#45;&gt;Node1</title>
<path fill="none" stroke="#63b8ff" d="M6.41,-74.37C-0.02,-82.94 4.68,-92 20.5,-92 29.4,-92 34.78,-89.13 36.64,-85.1"/>
<polygon fill="#63b8ff" stroke="#63b8ff" points="39.9,-84.53 34.59,-75.37 33.03,-85.85 39.9,-84.53"/>
</g>
<!-- Node2 -->
<g id="node2" class="node">
<title>Node2</title>
<g id="a_node2"><a xlink:href="../../d8/dee/avltree_8cpp.html#a48d897353aeb6a721dbc6b6c57e035e6" target="_top" xlink:title=" ">
<polygon fill="white" stroke="#666666" points="144,-130 77,-130 77,-111 144,-111 144,-130"/>
<text text-anchor="middle" x="110.5" y="-118" font-family="Helvetica,sans-Serif" font-size="10.00">createNode</text>
</a>
</g>
</g>
<!-- Node1&#45;&gt;Node2 -->
<g id="edge1" class="edge">
<title>Node1&#45;&gt;Node2</title>
<path fill="none" stroke="#63b8ff" d="M34.95,-74.24C46.04,-82.14 62.29,-93.42 77,-102.5 78.37,-103.35 79.79,-104.2 81.22,-105.05"/>
<polygon fill="#63b8ff" stroke="#63b8ff" points="79.35,-108.58 89.76,-110.52 82.83,-102.51 79.35,-108.58"/>
</g>
<!-- Node3 -->
<g id="node3" class="node">
<title>Node3</title>
<g id="a_node3"><a xlink:href="../../d8/dee/avltree_8cpp.html#aaa457ffec24c9643f2768e7a65e96546" target="_top" xlink:title=" ">
<polygon fill="white" stroke="#666666" points="143,-93 78,-93 78,-74 143,-74 143,-93"/>
<text text-anchor="middle" x="110.5" y="-81" font-family="Helvetica,sans-Serif" font-size="10.00">getBalance</text>
</a>
</g>
</g>
<!-- Node1&#45;&gt;Node3 -->
<g id="edge2" class="edge">
<title>Node1&#45;&gt;Node3</title>
<path fill="none" stroke="#63b8ff" d="M41.47,-68.81C49.04,-70.45 57.98,-72.38 66.85,-74.29"/>
<polygon fill="#63b8ff" stroke="#63b8ff" points="66.02,-77.91 76.53,-76.6 67.49,-71.07 66.02,-77.91"/>
</g>
<!-- Node6 -->
<g id="node6" class="node">
<title>Node6</title>
<g id="a_node6"><a xlink:href="../../d8/dee/avltree_8cpp.html#a473eee1803e4e44a54d685e4b0eef5a6" target="_top" xlink:title=" ">
<polygon fill="white" stroke="#666666" points="140,-56 81,-56 81,-37 140,-37 140,-56"/>
<text text-anchor="middle" x="110.5" y="-44" font-family="Helvetica,sans-Serif" font-size="10.00">leftRotate</text>
</a>
</g>
</g>
<!-- Node1&#45;&gt;Node6 -->
<g id="edge7" class="edge">
<title>Node1&#45;&gt;Node6</title>
<path fill="none" stroke="#63b8ff" d="M41.47,-60.42C49.96,-58.68 60.17,-56.59 70.07,-54.56"/>
<polygon fill="#63b8ff" stroke="#63b8ff" points="70.5,-57.84 79.6,-52.41 69.1,-50.99 70.5,-57.84"/>
</g>
<!-- Node7 -->
<g id="node7" class="node">
<title>Node7</title>
<g id="a_node7"><a xlink:href="../../d8/dee/avltree_8cpp.html#adfc1d482a564c041756719667b955b8c" target="_top" xlink:title=" ">
<polygon fill="white" stroke="#666666" points="143,-19 78,-19 78,0 143,0 143,-19"/>
<text text-anchor="middle" x="110.5" y="-7" font-family="Helvetica,sans-Serif" font-size="10.00">rightRotate</text>
</a>
</g>
</g>
<!-- Node1&#45;&gt;Node7 -->
<g id="edge8" class="edge">
<title>Node1&#45;&gt;Node7</title>
<path fill="none" stroke="#63b8ff" d="M36.46,-54.53C47.56,-47.2 63.12,-37.06 77,-28.5 78.99,-27.27 81.06,-26.02 83.14,-24.77"/>
<polygon fill="#63b8ff" stroke="#63b8ff" points="84.38,-27.51 91.21,-19.41 80.82,-21.49 84.38,-27.51"/>
</g>
<!-- Node4 -->
<g id="node4" class="node">
<title>Node4</title>
<g id="a_node4"><a xlink:href="../../d8/dee/avltree_8cpp.html#ae4a66d8b0c2b0d626aea45977e358c83" target="_top" xlink:title=" ">
<polygon fill="white" stroke="#666666" points="223,-93 180,-93 180,-74 223,-74 223,-93"/>
<text text-anchor="middle" x="201.5" y="-81" font-family="Helvetica,sans-Serif" font-size="10.00">height</text>
</a>
</g>
</g>
<!-- Node3&#45;&gt;Node4 -->
<g id="edge3" class="edge">
<title>Node3&#45;&gt;Node4</title>
<path fill="none" stroke="#63b8ff" d="M143.38,-83.5C151.68,-83.5 160.61,-83.5 168.9,-83.5"/>
<polygon fill="#63b8ff" stroke="#63b8ff" points="168.67,-87 178.67,-83.5 168.67,-80 168.67,-87"/>
</g>
<!-- Node4&#45;&gt;Node4 -->
<g id="edge4" class="edge">
<title>Node4&#45;&gt;Node4</title>
<path fill="none" stroke="#63b8ff" d="M188.19,-93.37C182.12,-101.94 186.56,-111 201.5,-111 209.9,-111 214.99,-108.13 216.74,-104.1"/>
<polygon fill="#63b8ff" stroke="#63b8ff" points="220.03,-103.59 214.81,-94.37 213.14,-104.83 220.03,-103.59"/>
</g>
<!-- Node5 -->
<g id="node5" class="node">
<title>Node5</title>
<g id="a_node5"><a target="_blank" xlink:href="http://en.cppreference.com/w/cpp/algorithm/max.html#" xlink:title=" ">
<polygon fill="white" stroke="#666666" points="314,-93 259,-93 259,-74 314,-74 314,-93"/>
<text text-anchor="middle" x="286.5" y="-81" font-family="Helvetica,sans-Serif" font-size="10.00">std::max</text>
</a>
</g>
</g>
<!-- Node4&#45;&gt;Node5 -->
<g id="edge5" class="edge">
<title>Node4&#45;&gt;Node5</title>
<path fill="none" stroke="#63b8ff" d="M223.44,-83.5C230.86,-83.5 239.44,-83.5 247.82,-83.5"/>
<polygon fill="#63b8ff" stroke="#63b8ff" points="247.59,-87 257.59,-83.5 247.59,-80 247.59,-87"/>
</g>
</g>
</svg>
