<?xml version="1.0" encoding="UTF-8" standalone="no"?>
<!DOCTYPE svg PUBLIC "-//W3C//DTD SVG 1.1//EN"
 "http://www.w3.org/Graphics/SVG/1.1/DTD/svg11.dtd">
<!-- Generated by graphviz version 8.0.2 (20230410.1723)
 -->
<!-- Title: main Pages: 1 -->
<svg width="442pt" height="230pt"
 viewBox="0.00 0.00 442.00 230.00" xmlns="http://www.w3.org/2000/svg" xmlns:xlink="http://www.w3.org/1999/xlink">
<g id="graph0" class="graph" transform="scale(1 1) rotate(0) translate(4 226)">
<title>main</title>
<!-- Node1 -->
<g id="node1" class="node">
<title>Node1</title>
<g id="a_node1"><a xlink:title=" ">
<polygon fill="#999999" stroke="#666666" points="38,-167 0,-167 0,-148 38,-148 38,-167"/>
<text text-anchor="middle" x="19" y="-155" font-family="Helvetica,sans-Serif" font-size="10.00">main</text>
</a>
</g>
</g>
<!-- Node2 -->
<g id="node2" class="node">
<title>Node2</title>
<g id="a_node2"><a xlink:href="../../d8/dee/avltree_8cpp.html#a9977e004a42fade067836b295a0aa7c1" target="_top" xlink:title=" ">
<polygon fill="white" stroke="#666666" points="140,-167 74,-167 74,-148 140,-148 140,-167"/>
<text text-anchor="middle" x="107" y="-155" font-family="Helvetica,sans-Serif" font-size="10.00">deleteNode</text>
</a>
</g>
</g>
<!-- Node1&#45;&gt;Node2 -->
<g id="edge1" class="edge">
<title>Node1&#45;&gt;Node2</title>
<path fill="none" stroke="#63b8ff" d="M38.24,-157.5C45.45,-157.5 54.07,-157.5 62.71,-157.5"/>
<polygon fill="#63b8ff" stroke="#63b8ff" points="62.55,-161 72.55,-157.5 62.55,-154 62.55,-161"/>
</g>
<!-- Node5 -->
<g id="node5" class="node">
<title>Node5</title>
<g id="a_node5"><a xlink:href="../../d8/dee/avltree_8cpp.html#a2473fe7416332495b2678ebe89652e4b" target="_top" xlink:title=" ">
<polygon fill="white" stroke="#666666" points="127.5,-93 86.5,-93 86.5,-74 127.5,-74 127.5,-93"/>
<text text-anchor="middle" x="107" y="-81" font-family="Helvetica,sans-Serif" font-size="10.00">insert</text>
</a>
</g>
</g>
<!-- Node1&#45;&gt;Node5 -->
<g id="edge6" class="edge">
<title>Node1&#45;&gt;Node5</title>
<path fill="none" stroke="#63b8ff" d="M31.6,-147.52C45.65,-135.43 69.55,-114.86 86.47,-100.31"/>
<polygon fill="#63b8ff" stroke="#63b8ff" points="88.29,-102.5 93.59,-93.32 83.72,-97.19 88.29,-102.5"/>
</g>
<!-- Node12 -->
<g id="node12" class="node">
<title>Node12</title>
<g id="a_node12"><a xlink:href="../../d8/dee/avltree_8cpp.html#ae197eb50188fb761346952b9b5f6be59" target="_top" xlink:title=" ">
<polygon fill="white" stroke="#666666" points="137.5,-222 76.5,-222 76.5,-203 137.5,-203 137.5,-222"/>
<text text-anchor="middle" x="107" y="-210" font-family="Helvetica,sans-Serif" font-size="10.00">levelOrder</text>
</a>
</g>
</g>
<!-- Node1&#45;&gt;Node12 -->
<g id="edge15" class="edge">
<title>Node1&#45;&gt;Node12</title>
<path fill="none" stroke="#63b8ff" d="M33.54,-167.27C44.33,-174.93 59.91,-185.73 74,-194.5 75.53,-195.45 77.1,-196.41 78.7,-197.36"/>
<polygon fill="#63b8ff" stroke="#63b8ff" points="76.49,-200.7 86.9,-202.68 80,-194.64 76.49,-200.7"/>
</g>
<!-- Node2&#45;&gt;Node2 -->
<g id="edge3" class="edge">
<title>Node2&#45;&gt;Node2</title>
<path fill="none" stroke="#63b8ff" d="M93.22,-167.37C86.94,-175.94 91.53,-185 107,-185 115.7,-185 120.96,-182.13 122.78,-178.1"/>
<polygon fill="#63b8ff" stroke="#63b8ff" points="126.05,-177.56 120.78,-168.37 119.17,-178.84 126.05,-177.56"/>
</g>
<!-- Node3 -->
<g id="node3" class="node">
<title>Node3</title>
<g id="a_node3"><a target="_blank" xlink:href="http://en.cppreference.com/w/cpp/container/vector/data.html#" xlink:title=" ">
<polygon fill="white" stroke="#666666" points="264,-222 176,-222 176,-203 264,-203 264,-222"/>
<text text-anchor="middle" x="220" y="-210" font-family="Helvetica,sans-Serif" font-size="10.00">std::vector::data</text>
</a>
</g>
</g>
<!-- Node2&#45;&gt;Node3 -->
<g id="edge2" class="edge">
<title>Node2&#45;&gt;Node3</title>
<path fill="none" stroke="#63b8ff" d="M125.08,-167.42C138.68,-175.17 158.31,-186.01 176,-194.5 178.64,-195.77 181.4,-197.04 184.19,-198.29"/>
<polygon fill="#63b8ff" stroke="#63b8ff" points="182.68,-201.88 193.25,-202.65 185.47,-195.46 182.68,-201.88"/>
</g>
<!-- Node4 -->
<g id="node4" class="node">
<title>Node4</title>
<g id="a_node4"><a xlink:href="../../d8/dee/avltree_8cpp.html#a5fa160a678a34dd51c0aea1c0c00ed5e" target="_top" xlink:title=" ">
<polygon fill="white" stroke="#666666" points="248,-167 192,-167 192,-148 248,-148 248,-167"/>
<text text-anchor="middle" x="220" y="-155" font-family="Helvetica,sans-Serif" font-size="10.00">minValue</text>
</a>
</g>
</g>
<!-- Node2&#45;&gt;Node4 -->
<g id="edge4" class="edge">
<title>Node2&#45;&gt;Node4</title>
<path fill="none" stroke="#63b8ff" d="M140.4,-157.5C153.1,-157.5 167.76,-157.5 180.96,-157.5"/>
<polygon fill="#63b8ff" stroke="#63b8ff" points="180.62,-161 190.62,-157.5 180.62,-154 180.62,-161"/>
</g>
<!-- Node4&#45;&gt;Node4 -->
<g id="edge5" class="edge">
<title>Node4&#45;&gt;Node4</title>
<path fill="none" stroke="#63b8ff" d="M204.11,-167.37C196.86,-175.94 202.16,-185 220,-185 230.04,-185 236.1,-182.13 238.2,-178.1"/>
<polygon fill="#63b8ff" stroke="#63b8ff" points="241.42,-177.41 235.89,-168.37 234.57,-178.88 241.42,-177.41"/>
</g>
<!-- Node5&#45;&gt;Node5 -->
<g id="edge12" class="edge">
<title>Node5&#45;&gt;Node5</title>
<path fill="none" stroke="#63b8ff" d="M93.22,-93.37C86.94,-101.94 91.53,-111 107,-111 115.7,-111 120.96,-108.13 122.78,-104.1"/>
<polygon fill="#63b8ff" stroke="#63b8ff" points="126.05,-103.56 120.78,-94.37 119.17,-104.84 126.05,-103.56"/>
</g>
<!-- Node6 -->
<g id="node6" class="node">
<title>Node6</title>
<g id="a_node6"><a xlink:href="../../d8/dee/avltree_8cpp.html#a48d897353aeb6a721dbc6b6c57e035e6" target="_top" xlink:title=" ">
<polygon fill="white" stroke="#666666" points="253.5,-130 186.5,-130 186.5,-111 253.5,-111 253.5,-130"/>
<text text-anchor="middle" x="220" y="-118" font-family="Helvetica,sans-Serif" font-size="10.00">createNode</text>
</a>
</g>
</g>
<!-- Node5&#45;&gt;Node6 -->
<g id="edge7" class="edge">
<title>Node5&#45;&gt;Node6</title>
<path fill="none" stroke="#63b8ff" d="M127.84,-90.11C142.13,-94.88 161.87,-101.46 179.34,-107.28"/>
<polygon fill="#63b8ff" stroke="#63b8ff" points="177.7,-110.76 188.3,-110.6 179.92,-104.12 177.7,-110.76"/>
</g>
<!-- Node7 -->
<g id="node7" class="node">
<title>Node7</title>
<g id="a_node7"><a xlink:href="../../d8/dee/avltree_8cpp.html#aaa457ffec24c9643f2768e7a65e96546" target="_top" xlink:title=" ">
<polygon fill="white" stroke="#666666" points="252.5,-93 187.5,-93 187.5,-74 252.5,-74 252.5,-93"/>
<text text-anchor="middle" x="220" y="-81" font-family="Helvetica,sans-Serif" font-size="10.00">getBalance</text>
</a>
</g>
</g>
<!-- Node5&#45;&gt;Node7 -->
<g id="edge8" class="edge">
<title>Node5&#45;&gt;Node7</title>
<path fill="none" stroke="#63b8ff" d="M127.84,-83.5C141.35,-83.5 159.74,-83.5 176.46,-83.5"/>
<polygon fill="#63b8ff" stroke="#63b8ff" points="176.15,-87 186.15,-83.5 176.15,-80 176.15,-87"/>
</g>
<!-- Node10 -->
<g id="node10" class="node">
<title>Node10</title>
<g id="a_node10"><a xlink:href="../../d8/dee/avltree_8cpp.html#a473eee1803e4e44a54d685e4b0eef5a6" target="_top" xlink:title=" ">
<polygon fill="white" stroke="#666666" points="249.5,-56 190.5,-56 190.5,-37 249.5,-37 249.5,-56"/>
<text text-anchor="middle" x="220" y="-44" font-family="Helvetica,sans-Serif" font-size="10.00">leftRotate</text>
</a>
</g>
</g>
<!-- Node5&#45;&gt;Node10 -->
<g id="edge13" class="edge">
<title>Node5&#45;&gt;Node10</title>
<path fill="none" stroke="#63b8ff" d="M127.84,-76.89C142.34,-72.05 162.45,-65.35 180.1,-59.47"/>
<polygon fill="#63b8ff" stroke="#63b8ff" points="180.77,-62.6 189.15,-56.12 178.55,-55.96 180.77,-62.6"/>
</g>
<!-- Node11 -->
<g id="node11" class="node">
<title>Node11</title>
<g id="a_node11"><a xlink:href="../../d8/dee/avltree_8cpp.html#adfc1d482a564c041756719667b955b8c" target="_top" xlink:title=" ">
<polygon fill="white" stroke="#666666" points="252.5,-19 187.5,-19 187.5,0 252.5,0 252.5,-19"/>
<text text-anchor="middle" x="220" y="-7" font-family="Helvetica,sans-Serif" font-size="10.00">rightRotate</text>
</a>
</g>
</g>
<!-- Node5&#45;&gt;Node11 -->
<g id="edge14" class="edge">
<title>Node5&#45;&gt;Node11</title>
<path fill="none" stroke="#63b8ff" d="M118.41,-73.6C131.21,-61.79 153.97,-41.95 176,-28.5 178.46,-27 181.06,-25.55 183.72,-24.16"/>
<polygon fill="#63b8ff" stroke="#63b8ff" points="184.94,-26.98 192.42,-19.47 181.9,-20.67 184.94,-26.98"/>
</g>
<!-- Node8 -->
<g id="node8" class="node">
<title>Node8</title>
<g id="a_node8"><a xlink:href="../../d8/dee/avltree_8cpp.html#ae4a66d8b0c2b0d626aea45977e358c83" target="_top" xlink:title=" ">
<polygon fill="white" stroke="#666666" points="343,-93 300,-93 300,-74 343,-74 343,-93"/>
<text text-anchor="middle" x="321.5" y="-81" font-family="Helvetica,sans-Serif" font-size="10.00">height</text>
</a>
</g>
</g>
<!-- Node7&#45;&gt;Node8 -->
<g id="edge9" class="edge">
<title>Node7&#45;&gt;Node8</title>
<path fill="none" stroke="#63b8ff" d="M252.76,-83.5C264.27,-83.5 277.28,-83.5 288.79,-83.5"/>
<polygon fill="#63b8ff" stroke="#63b8ff" points="288.7,-87 298.7,-83.5 288.7,-80 288.7,-87"/>
</g>
<!-- Node8&#45;&gt;Node8 -->
<g id="edge10" class="edge">
<title>Node8&#45;&gt;Node8</title>
<path fill="none" stroke="#63b8ff" d="M308.19,-93.37C302.12,-101.94 306.56,-111 321.5,-111 329.9,-111 334.99,-108.13 336.74,-104.1"/>
<polygon fill="#63b8ff" stroke="#63b8ff" points="340.03,-103.59 334.81,-94.37 333.14,-104.83 340.03,-103.59"/>
</g>
<!-- Node9 -->
<g id="node9" class="node">
<title>Node9</title>
<g id="a_node9"><a target="_blank" xlink:href="http://en.cppreference.com/w/cpp/algorithm/max.html#" xlink:title=" ">
<polygon fill="white" stroke="#666666" points="434,-93 379,-93 379,-74 434,-74 434,-93"/>
<text text-anchor="middle" x="406.5" y="-81" font-family="Helvetica,sans-Serif" font-size="10.00">std::max</text>
</a>
</g>
</g>
<!-- Node8&#45;&gt;Node9 -->
<g id="edge11" class="edge">
<title>Node8&#45;&gt;Node9</title>
<path fill="none" stroke="#63b8ff" d="M343.44,-83.5C350.86,-83.5 359.44,-83.5 367.82,-83.5"/>
<polygon fill="#63b8ff" stroke="#63b8ff" points="367.59,-87 377.59,-83.5 367.59,-80 367.59,-87"/>
</g>
<!-- Node12&#45;&gt;Node3 -->
<g id="edge16" class="edge">
<title>Node12&#45;&gt;Node3</title>
<path fill="none" stroke="#63b8ff" d="M137.75,-212.5C146.15,-212.5 155.56,-212.5 164.92,-212.5"/>
<polygon fill="#63b8ff" stroke="#63b8ff" points="164.81,-216 174.81,-212.5 164.81,-209 164.81,-216"/>
</g>
</g>
</svg>
