<?xml version="1.0" encoding="UTF-8" standalone="no"?>
<!DOCTYPE svg PUBLIC "-//W3C//DTD SVG 1.1//EN"
 "http://www.w3.org/Graphics/SVG/1.1/DTD/svg11.dtd">
<!-- Generated by graphviz version 8.0.2 (20230410.1723)
 -->
<!-- Title: main Pages: 1 -->
<svg width="650pt" height="789pt"
 viewBox="0.00 0.00 650.00 789.00" xmlns="http://www.w3.org/2000/svg" xmlns:xlink="http://www.w3.org/1999/xlink">
<g id="graph0" class="graph" transform="scale(1 1) rotate(0) translate(4 785)">
<title>main</title>
<!-- Node1 -->
<g id="node1" class="node">
<title>Node1</title>
<g id="a_node1"><a xlink:title="Main function.">
<polygon fill="#999999" stroke="#666666" points="38,-511 0,-511 0,-492 38,-492 38,-511"/>
<text text-anchor="middle" x="19" y="-499" font-family="Helvetica,sans-Serif" font-size="10.00">main</text>
</a>
</g>
</g>
<!-- Node2 -->
<g id="node2" class="node">
<title>Node2</title>
<g id="a_node2"><a xlink:href="../../d9/d12/classothers_1_1iterative__tree__traversals_1_1_binary_tree.html#a3078a5ccf45d6a7031dcf46e43de65b6" target="_top" xlink:title="function that will create new node for insertion.">
<polygon fill="white" stroke="#666666" points="192,-781 74,-781 74,-740 192,-740 192,-781"/>
<text text-anchor="start" x="82" y="-769" font-family="Helvetica,sans-Serif" font-size="10.00">others::iterative_tree</text>
<text text-anchor="start" x="82" y="-758" font-family="Helvetica,sans-Serif" font-size="10.00">_traversals::BinaryTree</text>
<text text-anchor="middle" x="133" y="-747" font-family="Helvetica,sans-Serif" font-size="10.00">::createNewNode</text>
</a>
</g>
</g>
<!-- Node1&#45;&gt;Node2 -->
<g id="edge1" class="edge">
<title>Node1&#45;&gt;Node2</title>
<path fill="none" stroke="#63b8ff" d="M19.54,-511.03C18.38,-544.96 18.81,-661.67 74,-731.5 74.15,-731.69 74.3,-731.87 74.45,-732.06"/>
<polygon fill="#63b8ff" stroke="#63b8ff" points="71.58,-734.13 81.15,-738.67 76.5,-729.15 71.58,-734.13"/>
</g>
<!-- Node3 -->
<g id="node3" class="node">
<title>Node3</title>
<g id="a_node3"><a target="_blank" xlink:href="http://en.cppreference.com/w/cpp/container/vector/data.html#" xlink:title=" ">
<polygon fill="white" stroke="#666666" points="177,-722 89,-722 89,-703 177,-703 177,-722"/>
<text text-anchor="middle" x="133" y="-710" font-family="Helvetica,sans-Serif" font-size="10.00">std::vector::data</text>
</a>
</g>
</g>
<!-- Node1&#45;&gt;Node3 -->
<g id="edge2" class="edge">
<title>Node1&#45;&gt;Node3</title>
<path fill="none" stroke="#63b8ff" d="M20,-511.44C20.55,-541.9 26.24,-635.11 74,-688.5 77.07,-691.93 80.7,-694.88 84.62,-697.41"/>
<polygon fill="#63b8ff" stroke="#63b8ff" points="82.73,-700.91 93.19,-702.61 86.07,-694.76 82.73,-700.91"/>
</g>
<!-- Node4 -->
<g id="node4" class="node">
<title>Node4</title>
<g id="a_node4"><a target="_blank" xlink:href="http://en.cppreference.com/w/cpp/io/manip/endl.html#" xlink:title=" ">
<polygon fill="white" stroke="#666666" points="615,-608 561,-608 561,-589 615,-589 615,-608"/>
<text text-anchor="middle" x="588" y="-596" font-family="Helvetica,sans-Serif" font-size="10.00">std::endl</text>
</a>
</g>
</g>
<!-- Node1&#45;&gt;Node4 -->
<g id="edge3" class="edge">
<title>Node1&#45;&gt;Node4</title>
<path fill="none" stroke="#63b8ff" d="M25.79,-511.41C34.58,-525.73 52.57,-552.25 74,-568.5 133.34,-613.49 155.2,-618.82 228,-634.5 345.32,-659.77 380.54,-662.11 498,-637.5 520.22,-632.84 543.68,-622.31 560.93,-613.35"/>
<polygon fill="#63b8ff" stroke="#63b8ff" points="562.15,-616.13 569.31,-608.33 558.84,-609.96 562.15,-616.13"/>
</g>
<!-- Node5 -->
<g id="node5" class="node">
<title>Node5</title>
<g id="a_node5"><a xlink:href="../../d3/dae/dsu__path__compression_8cpp.html#ae7880ce913f3058a35ff106d5be9e243" target="_top" xlink:title="Self&#45;test implementations, 1st test.">
<polygon fill="white" stroke="#666666" points="152,-299 114,-299 114,-280 152,-280 152,-299"/>
<text text-anchor="middle" x="133" y="-287" font-family="Helvetica,sans-Serif" font-size="10.00">test1</text>
</a>
</g>
</g>
<!-- Node1&#45;&gt;Node5 -->
<g id="edge4" class="edge">
<title>Node1&#45;&gt;Node5</title>
<path fill="none" stroke="#63b8ff" d="M19.72,-491.53C19.4,-460.09 22.75,-362.04 74,-308.5 81.67,-300.49 92.76,-295.85 103.19,-293.17"/>
<polygon fill="#63b8ff" stroke="#63b8ff" points="103.56,-296.46 112.66,-291.02 102.16,-289.61 103.56,-296.46"/>
</g>
<!-- Node17 -->
<g id="node17" class="node">
<title>Node17</title>
<g id="a_node17"><a xlink:href="../../d3/dae/dsu__path__compression_8cpp.html#a45d94ead4cf4e1ff9f87c38bc99f59ae" target="_top" xlink:title="Self&#45;implementations, 2nd test.">
<polygon fill="white" stroke="#666666" points="152,-336 114,-336 114,-317 152,-317 152,-336"/>
<text text-anchor="middle" x="133" y="-324" font-family="Helvetica,sans-Serif" font-size="10.00">test2</text>
</a>
</g>
</g>
<!-- Node1&#45;&gt;Node17 -->
<g id="edge21" class="edge">
<title>Node1&#45;&gt;Node17</title>
<path fill="none" stroke="#63b8ff" d="M25.87,-491.66C35.67,-475.31 56.03,-441.58 74,-413.5 89.27,-389.63 107.48,-362.53 119.37,-345"/>
<polygon fill="#63b8ff" stroke="#63b8ff" points="122.54,-347.57 125.27,-337.34 116.75,-343.64 122.54,-347.57"/>
</g>
<!-- Node18 -->
<g id="node18" class="node">
<title>Node18</title>
<g id="a_node18"><a xlink:href="../../dd/d0c/hamiltons__cycle_8cpp.html#a0cc94918b6831f308d4fe4fa27f08299" target="_top" xlink:title=" ">
<polygon fill="white" stroke="#666666" points="152,-168 114,-168 114,-149 152,-149 152,-168"/>
<text text-anchor="middle" x="133" y="-156" font-family="Helvetica,sans-Serif" font-size="10.00">test3</text>
</a>
</g>
</g>
<!-- Node1&#45;&gt;Node18 -->
<g id="edge25" class="edge">
<title>Node1&#45;&gt;Node18</title>
<path fill="none" stroke="#63b8ff" d="M21.44,-491.61C26.32,-459.25 43.7,-353.88 74,-271.5 86.68,-237.02 107.42,-199.55 120.36,-177.6"/>
<polygon fill="#63b8ff" stroke="#63b8ff" points="123.73,-179.78 125.86,-169.41 117.72,-176.19 123.73,-179.78"/>
</g>
<!-- Node22 -->
<g id="node22" class="node">
<title>Node22</title>
<g id="a_node22"><a xlink:href="../../d8/d90/iterative__tree__traversals_8cpp.html#a038b236fe900f7bb7e57164f5bed66c2" target="_top" xlink:title="Test the computed preorder with the actual preorder on negative value.">
<polygon fill="white" stroke="#666666" points="152,-441 114,-441 114,-422 152,-422 152,-441"/>
<text text-anchor="middle" x="133" y="-429" font-family="Helvetica,sans-Serif" font-size="10.00">test4</text>
</a>
</g>
</g>
<!-- Node1&#45;&gt;Node22 -->
<g id="edge31" class="edge">
<title>Node1&#45;&gt;Node22</title>
<path fill="none" stroke="#63b8ff" d="M35.57,-491.77C54.02,-480.23 85.02,-460.87 106.87,-447.2"/>
<polygon fill="#63b8ff" stroke="#63b8ff" points="108.57,-449.64 115.2,-441.38 104.86,-443.71 108.57,-449.64"/>
</g>
<!-- Node28 -->
<g id="node28" class="node">
<title>Node28</title>
<g id="a_node28"><a xlink:href="../../d8/d90/iterative__tree__traversals_8cpp.html#aa9ef334cd7eb607f4eb8732566ea00b8" target="_top" xlink:title="Test the computed postorder with the actual postorder on negative value.">
<polygon fill="white" stroke="#666666" points="152,-559 114,-559 114,-540 152,-540 152,-559"/>
<text text-anchor="middle" x="133" y="-547" font-family="Helvetica,sans-Serif" font-size="10.00">test5</text>
</a>
</g>
</g>
<!-- Node1&#45;&gt;Node28 -->
<g id="edge39" class="edge">
<title>Node1&#45;&gt;Node28</title>
<path fill="none" stroke="#63b8ff" d="M38.49,-509.43C56.27,-517.05 83.38,-528.66 103.84,-537.43"/>
<polygon fill="#63b8ff" stroke="#63b8ff" points="102.28,-541 112.85,-541.72 105.04,-534.57 102.28,-541"/>
</g>
<!-- Node30 -->
<g id="node30" class="node">
<title>Node30</title>
<g id="a_node30"><a xlink:href="../../d8/d90/iterative__tree__traversals_8cpp.html#af727f920064f2b8f484b589b60d49b89" target="_top" xlink:title="Test the computed inorder with the actual inorder on negative value.">
<polygon fill="white" stroke="#666666" points="152,-511 114,-511 114,-492 152,-492 152,-511"/>
<text text-anchor="middle" x="133" y="-499" font-family="Helvetica,sans-Serif" font-size="10.00">test6</text>
</a>
</g>
</g>
<!-- Node1&#45;&gt;Node30 -->
<g id="edge45" class="edge">
<title>Node1&#45;&gt;Node30</title>
<path fill="none" stroke="#63b8ff" d="M38.49,-501.5C56.03,-501.5 82.64,-501.5 102.99,-501.5"/>
<polygon fill="#63b8ff" stroke="#63b8ff" points="102.85,-505 112.85,-501.5 102.85,-498 102.85,-505"/>
</g>
<!-- Node6 -->
<g id="node6" class="node">
<title>Node6</title>
<g id="a_node6"><a target="_blank" xlink:href="http://en.cppreference.com/w/cpp/container/vector/at.html#" xlink:title=" ">
<polygon fill="white" stroke="#666666" points="325.5,-299 248.5,-299 248.5,-280 325.5,-280 325.5,-299"/>
<text text-anchor="middle" x="287" y="-287" font-family="Helvetica,sans-Serif" font-size="10.00">std::vector::at</text>
</a>
</g>
</g>
<!-- Node5&#45;&gt;Node6 -->
<g id="edge5" class="edge">
<title>Node5&#45;&gt;Node6</title>
<path fill="none" stroke="#63b8ff" d="M152.33,-289.5C173.27,-289.5 208.36,-289.5 237.34,-289.5"/>
<polygon fill="#63b8ff" stroke="#63b8ff" points="237.11,-293 247.11,-289.5 237.11,-286 237.11,-293"/>
</g>
<!-- Node7 -->
<g id="node7" class="node">
<title>Node7</title>
<g id="a_node7"><a xlink:href="../../dd/d1f/classdsu.html#a0ce2672c570f4235eafddb0c9a58115a" target="_top" xlink:title="prints the minimum, maximum and size of the set to which i belongs to">
<polygon fill="white" stroke="#666666" points="313,-336 261,-336 261,-317 313,-317 313,-336"/>
<text text-anchor="middle" x="287" y="-324" font-family="Helvetica,sans-Serif" font-size="10.00">dsu::get</text>
</a>
</g>
</g>
<!-- Node5&#45;&gt;Node7 -->
<g id="edge6" class="edge">
<title>Node5&#45;&gt;Node7</title>
<path fill="none" stroke="#63b8ff" d="M152.33,-293.96C176.49,-299.84 219.5,-310.31 250.21,-317.79"/>
<polygon fill="#63b8ff" stroke="#63b8ff" points="248.96,-321.33 259.51,-320.29 250.62,-314.53 248.96,-321.33"/>
</g>
<!-- Node12 -->
<g id="node12" class="node">
<title>Node12</title>
<g id="a_node12"><a xlink:href="../../dd/d1f/classdsu.html#a6ac30c07abca2aaa3b291504c25c3559" target="_top" xlink:title="Method that combines two disjoint sets to which i and j belongs to and make a single set having a com...">
<polygon fill="white" stroke="#666666" points="326.5,-225 247.5,-225 247.5,-206 326.5,-206 326.5,-225"/>
<text text-anchor="middle" x="287" y="-213" font-family="Helvetica,sans-Serif" font-size="10.00">dsu::UnionSet</text>
</a>
</g>
</g>
<!-- Node5&#45;&gt;Node12 -->
<g id="edge14" class="edge">
<title>Node5&#45;&gt;Node12</title>
<path fill="none" stroke="#63b8ff" d="M152.33,-280.57C178.02,-268.07 225.01,-245.19 255.87,-230.17"/>
<polygon fill="#63b8ff" stroke="#63b8ff" points="257.21,-232.92 264.66,-225.4 254.14,-226.63 257.21,-232.92"/>
</g>
<!-- Node8 -->
<g id="node8" class="node">
<title>Node8</title>
<g id="a_node8"><a xlink:href="../../dd/d1f/classdsu.html#a696141b8b092466767f4bfe1c5e46cde" target="_top" xlink:title="A utility function that returns the max element of the set to which i belongs to.">
<polygon fill="white" stroke="#666666" points="478,-336 402,-336 402,-317 478,-317 478,-336"/>
<text text-anchor="middle" x="440" y="-324" font-family="Helvetica,sans-Serif" font-size="10.00">dsu::get_max</text>
</a>
</g>
</g>
<!-- Node7&#45;&gt;Node8 -->
<g id="edge7" class="edge">
<title>Node7&#45;&gt;Node8</title>
<path fill="none" stroke="#63b8ff" d="M313.27,-326.5C334.43,-326.5 365.22,-326.5 391.03,-326.5"/>
<polygon fill="#63b8ff" stroke="#63b8ff" points="390.75,-330 400.75,-326.5 390.75,-323 390.75,-330"/>
</g>
<!-- Node10 -->
<g id="node10" class="node">
<title>Node10</title>
<g id="a_node10"><a xlink:href="../../dd/d1f/classdsu.html#ac713a5b496d0405c82e2808a85e58415" target="_top" xlink:title="A utility function that returns the min element of the set to which i belongs to.">
<polygon fill="white" stroke="#666666" points="476.5,-299 403.5,-299 403.5,-280 476.5,-280 476.5,-299"/>
<text text-anchor="middle" x="440" y="-287" font-family="Helvetica,sans-Serif" font-size="10.00">dsu::get_min</text>
</a>
</g>
</g>
<!-- Node7&#45;&gt;Node10 -->
<g id="edge10" class="edge">
<title>Node7&#45;&gt;Node10</title>
<path fill="none" stroke="#63b8ff" d="M313.27,-320.31C334.89,-315.01 366.57,-307.25 392.72,-300.84"/>
<polygon fill="#63b8ff" stroke="#63b8ff" points="393.29,-304.06 402.17,-298.28 391.63,-297.26 393.29,-304.06"/>
</g>
<!-- Node11 -->
<g id="node11" class="node">
<title>Node11</title>
<g id="a_node11"><a xlink:href="../../dd/d1f/classdsu.html#a1c24228b0f2f49220133fb8c3566a55c" target="_top" xlink:title="A utility function that returns the size of the set to which i belongs to.">
<polygon fill="white" stroke="#666666" points="468,-373 412,-373 412,-354 468,-354 468,-373"/>
<text text-anchor="middle" x="440" y="-361" font-family="Helvetica,sans-Serif" font-size="10.00">dsu::size</text>
</a>
</g>
</g>
<!-- Node7&#45;&gt;Node11 -->
<g id="edge12" class="edge">
<title>Node7&#45;&gt;Node11</title>
<path fill="none" stroke="#63b8ff" d="M313.27,-332.69C337.29,-338.58 373.71,-347.5 401.18,-354.23"/>
<polygon fill="#63b8ff" stroke="#63b8ff" points="400.05,-357.8 410.6,-356.79 401.72,-351.01 400.05,-357.8"/>
</g>
<!-- Node9 -->
<g id="node9" class="node">
<title>Node9</title>
<g id="a_node9"><a xlink:href="../../dd/d1f/classdsu.html#a16851f78fe390fc1430905c83d6a2f1c" target="_top" xlink:title="Method to find the representative of the set to which i belongs to, T(n) = O(1)">
<polygon fill="white" stroke="#666666" points="622.5,-299 553.5,-299 553.5,-280 622.5,-280 622.5,-299"/>
<text text-anchor="middle" x="588" y="-287" font-family="Helvetica,sans-Serif" font-size="10.00">dsu::findSet</text>
</a>
</g>
</g>
<!-- Node8&#45;&gt;Node9 -->
<g id="edge8" class="edge">
<title>Node8&#45;&gt;Node9</title>
<path fill="none" stroke="#63b8ff" d="M478.22,-317.07C497.93,-312.07 522.27,-305.9 542.92,-300.67"/>
<polygon fill="#63b8ff" stroke="#63b8ff" points="543.51,-303.88 552.34,-298.03 541.79,-297.09 543.51,-303.88"/>
</g>
<!-- Node9&#45;&gt;Node9 -->
<g id="edge9" class="edge">
<title>Node9&#45;&gt;Node9</title>
<path fill="none" stroke="#63b8ff" d="M564.83,-299.37C554.26,-307.94 561.98,-317 588,-317 603.04,-317 611.97,-313.97 614.78,-309.76"/>
<polygon fill="#63b8ff" stroke="#63b8ff" points="617.76,-308.67 611.17,-300.37 611.15,-310.96 617.76,-308.67"/>
</g>
<!-- Node10&#45;&gt;Node9 -->
<g id="edge11" class="edge">
<title>Node10&#45;&gt;Node9</title>
<path fill="none" stroke="#63b8ff" d="M476.72,-289.5C496.47,-289.5 521.19,-289.5 542.23,-289.5"/>
<polygon fill="#63b8ff" stroke="#63b8ff" points="542.16,-293 552.16,-289.5 542.16,-286 542.16,-293"/>
</g>
<!-- Node11&#45;&gt;Node9 -->
<g id="edge13" class="edge">
<title>Node11&#45;&gt;Node9</title>
<path fill="none" stroke="#63b8ff" d="M468.21,-356.45C477.83,-353.56 488.58,-349.86 498,-345.5 522.04,-334.37 547.43,-317.86 564.91,-305.65"/>
<polygon fill="#63b8ff" stroke="#63b8ff" points="566.62,-308.01 572.74,-299.37 562.57,-302.31 566.62,-308.01"/>
</g>
<!-- Node12&#45;&gt;Node9 -->
<g id="edge15" class="edge">
<title>Node12&#45;&gt;Node9</title>
<path fill="none" stroke="#63b8ff" d="M300.1,-205.52C317.13,-192.2 349.7,-169.26 382,-160.5 431.76,-147.01 452.35,-136.54 498,-160.5 542.01,-183.6 568.52,-239.41 580.11,-269.49"/>
<polygon fill="#63b8ff" stroke="#63b8ff" points="577.1,-270.45 583.82,-278.64 583.67,-268.05 577.1,-270.45"/>
</g>
<!-- Node13 -->
<g id="node13" class="node">
<title>Node13</title>
<g id="a_node13"><a xlink:href="../../dd/d1f/classdsu.html#a64d25c5986742f7c234ed449b2ff7303" target="_top" xlink:title="A utility function which check whether i and j belongs to same set or not.">
<polygon fill="white" stroke="#666666" points="475.5,-262 404.5,-262 404.5,-243 475.5,-243 475.5,-262"/>
<text text-anchor="middle" x="440" y="-250" font-family="Helvetica,sans-Serif" font-size="10.00">dsu::isSame</text>
</a>
</g>
</g>
<!-- Node12&#45;&gt;Node13 -->
<g id="edge16" class="edge">
<title>Node12&#45;&gt;Node13</title>
<path fill="none" stroke="#63b8ff" d="M326.89,-225.03C347.29,-230.03 372.41,-236.18 393.69,-241.4"/>
<polygon fill="#63b8ff" stroke="#63b8ff" points="392.57,-244.97 403.11,-243.95 394.23,-238.17 392.57,-244.97"/>
</g>
<!-- Node14 -->
<g id="node14" class="node">
<title>Node14</title>
<g id="a_node14"><a target="_blank" xlink:href="http://en.cppreference.com/w/cpp/algorithm/max.html#" xlink:title=" ">
<polygon fill="white" stroke="#666666" points="615.5,-66 560.5,-66 560.5,-47 615.5,-47 615.5,-66"/>
<text text-anchor="middle" x="588" y="-54" font-family="Helvetica,sans-Serif" font-size="10.00">std::max</text>
</a>
</g>
</g>
<!-- Node12&#45;&gt;Node14 -->
<g id="edge18" class="edge">
<title>Node12&#45;&gt;Node14</title>
<path fill="none" stroke="#63b8ff" d="M298.57,-205.57C315.26,-190.27 349.21,-160.71 382,-141.5 437.35,-109.07 507.42,-82.87 549.65,-68.51"/>
<polygon fill="#63b8ff" stroke="#63b8ff" points="550.65,-71.53 559.02,-65.03 548.42,-64.9 550.65,-71.53"/>
</g>
<!-- Node15 -->
<g id="node15" class="node">
<title>Node15</title>
<g id="a_node15"><a target="_blank" xlink:href="http://en.cppreference.com/w/cpp/algorithm/min.html#" xlink:title=" ">
<polygon fill="white" stroke="#666666" points="466,-225 414,-225 414,-206 466,-206 466,-225"/>
<text text-anchor="middle" x="440" y="-213" font-family="Helvetica,sans-Serif" font-size="10.00">std::min</text>
</a>
</g>
</g>
<!-- Node12&#45;&gt;Node15 -->
<g id="edge19" class="edge">
<title>Node12&#45;&gt;Node15</title>
<path fill="none" stroke="#63b8ff" d="M326.89,-215.5C350.21,-215.5 379.68,-215.5 402.56,-215.5"/>
<polygon fill="#63b8ff" stroke="#63b8ff" points="402.52,-219 412.52,-215.5 402.52,-212 402.52,-219"/>
</g>
<!-- Node16 -->
<g id="node16" class="node">
<title>Node16</title>
<g id="a_node16"><a target="_blank" xlink:href="http://en.cppreference.com/w/cpp/algorithm/swap.html#" xlink:title=" ">
<polygon fill="white" stroke="#666666" points="469.5,-188 410.5,-188 410.5,-169 469.5,-169 469.5,-188"/>
<text text-anchor="middle" x="440" y="-176" font-family="Helvetica,sans-Serif" font-size="10.00">std::swap</text>
</a>
</g>
</g>
<!-- Node12&#45;&gt;Node16 -->
<g id="edge20" class="edge">
<title>Node12&#45;&gt;Node16</title>
<path fill="none" stroke="#63b8ff" d="M326.89,-205.97C349.26,-200.49 377.31,-193.62 399.75,-188.12"/>
<polygon fill="#63b8ff" stroke="#63b8ff" points="400.38,-191.32 409.26,-185.54 398.72,-184.52 400.38,-191.32"/>
</g>
<!-- Node13&#45;&gt;Node9 -->
<g id="edge17" class="edge">
<title>Node13&#45;&gt;Node9</title>
<path fill="none" stroke="#63b8ff" d="M475.97,-261.36C495.96,-266.43 521.23,-272.83 542.61,-278.25"/>
<polygon fill="#63b8ff" stroke="#63b8ff" points="541.52,-281.84 552.07,-280.9 543.24,-275.05 541.52,-281.84"/>
</g>
<!-- Node17&#45;&gt;Node6 -->
<g id="edge22" class="edge">
<title>Node17&#45;&gt;Node6</title>
<path fill="none" stroke="#63b8ff" d="M152.33,-322.04C173.36,-316.92 208.67,-308.32 237.72,-301.25"/>
<polygon fill="#63b8ff" stroke="#63b8ff" points="238.22,-304.49 247.11,-298.72 236.56,-297.69 238.22,-304.49"/>
</g>
<!-- Node17&#45;&gt;Node7 -->
<g id="edge23" class="edge">
<title>Node17&#45;&gt;Node7</title>
<path fill="none" stroke="#63b8ff" d="M152.33,-326.5C176.39,-326.5 219.13,-326.5 249.81,-326.5"/>
<polygon fill="#63b8ff" stroke="#63b8ff" points="249.51,-330 259.51,-326.5 249.51,-323 249.51,-330"/>
</g>
<!-- Node17&#45;&gt;Node12 -->
<g id="edge24" class="edge">
<title>Node17&#45;&gt;Node12</title>
<path fill="none" stroke="#63b8ff" d="M152.49,-323.22C164.4,-320.54 179.87,-315.94 192,-308.5 211.56,-296.51 211.75,-287.69 228,-271.5 241.25,-258.3 256.46,-243.63 267.98,-232.62"/>
<polygon fill="#63b8ff" stroke="#63b8ff" points="269.82,-235.75 274.64,-226.32 264.99,-230.69 269.82,-235.75"/>
</g>
<!-- Node19 -->
<g id="node19" class="node">
<title>Node19</title>
<g id="a_node19"><a xlink:href="../../dd/d0c/hamiltons__cycle_8cpp.html#abcf824e347eecfeeb69ea0280f34f3e4" target="_top" xlink:title=" ">
<polygon fill="white" stroke="#666666" points="328,-74 246,-74 246,-55 328,-55 328,-74"/>
<text text-anchor="middle" x="287" y="-62" font-family="Helvetica,sans-Serif" font-size="10.00">hamilton_cycle</text>
</a>
</g>
</g>
<!-- Node18&#45;&gt;Node19 -->
<g id="edge26" class="edge">
<title>Node18&#45;&gt;Node19</title>
<path fill="none" stroke="#63b8ff" d="M149.98,-148.62C176.5,-132.21 229.81,-99.25 261.24,-79.81"/>
<polygon fill="#63b8ff" stroke="#63b8ff" points="262.57,-82.49 269.23,-74.25 258.89,-76.53 262.57,-82.49"/>
</g>
<!-- Node20 -->
<g id="node20" class="node">
<title>Node20</title>
<g id="a_node20"><a xlink:href="../../d8/dee/avltree_8cpp.html#ae4a66d8b0c2b0d626aea45977e358c83" target="_top" xlink:title=" ">
<polygon fill="white" stroke="#666666" points="461.5,-19 418.5,-19 418.5,0 461.5,0 461.5,-19"/>
<text text-anchor="middle" x="440" y="-7" font-family="Helvetica,sans-Serif" font-size="10.00">height</text>
</a>
</g>
</g>
<!-- Node19&#45;&gt;Node20 -->
<g id="edge27" class="edge">
<title>Node19&#45;&gt;Node20</title>
<path fill="none" stroke="#63b8ff" d="M315.34,-54.54C341.45,-45.03 380.75,-30.72 408.01,-20.79"/>
<polygon fill="#63b8ff" stroke="#63b8ff" points="408.97,-23.8 417.17,-17.09 406.58,-17.22 408.97,-23.8"/>
</g>
<!-- Node21 -->
<g id="node21" class="node">
<title>Node21</title>
<g id="a_node21"><a target="_blank" xlink:href="http://en.cppreference.com/w/cpp/container/vector/push_back.html#" xlink:title=" ">
<polygon fill="white" stroke="#666666" points="498,-74 382,-74 382,-55 498,-55 498,-74"/>
<text text-anchor="middle" x="440" y="-62" font-family="Helvetica,sans-Serif" font-size="10.00">std::vector::push_back</text>
</a>
</g>
</g>
<!-- Node19&#45;&gt;Node21 -->
<g id="edge30" class="edge">
<title>Node19&#45;&gt;Node21</title>
<path fill="none" stroke="#63b8ff" d="M328.47,-64.5C341.48,-64.5 356.29,-64.5 370.73,-64.5"/>
<polygon fill="#63b8ff" stroke="#63b8ff" points="370.68,-68 380.68,-64.5 370.68,-61 370.68,-68"/>
</g>
<!-- Node20&#45;&gt;Node14 -->
<g id="edge29" class="edge">
<title>Node20&#45;&gt;Node14</title>
<path fill="none" stroke="#63b8ff" d="M461.92,-16.23C484.85,-23.62 522.09,-35.6 549.98,-44.58"/>
<polygon fill="#63b8ff" stroke="#63b8ff" points="548.58,-48.13 559.17,-47.86 550.72,-41.47 548.58,-48.13"/>
</g>
<!-- Node20&#45;&gt;Node20 -->
<g id="edge28" class="edge">
<title>Node20&#45;&gt;Node20</title>
<path fill="none" stroke="#63b8ff" d="M418.35,-18.23C405.61,-27.11 412.83,-37 440,-37 457.83,-37 467.07,-32.74 467.71,-27.3"/>
<polygon fill="#63b8ff" stroke="#63b8ff" points="470.12,-25.6 461.65,-19.23 464.3,-29.49 470.12,-25.6"/>
</g>
<!-- Node22&#45;&gt;Node4 -->
<g id="edge32" class="edge">
<title>Node22&#45;&gt;Node4</title>
<path fill="none" stroke="#63b8ff" d="M152.34,-424.04C171.02,-416.88 200.98,-406.57 228,-402.5 348.22,-384.38 405,-368.18 498,-446.5 525.98,-470.06 515.67,-488.85 534,-520.5 546.23,-541.62 562.18,-564.59 573.38,-580.1"/>
<polygon fill="#63b8ff" stroke="#63b8ff" points="570.94,-581.69 579.66,-587.7 576.6,-577.56 570.94,-581.69"/>
</g>
<!-- Node23 -->
<g id="node23" class="node">
<title>Node23</title>
<g id="a_node23"><a xlink:href="../../d9/d12/classothers_1_1iterative__tree__traversals_1_1_binary_tree.html#ad4c6a8e67fb8267a65439b035666b5ae" target="_top" xlink:title="preOrderIterative() function that will perform the preorder traversal iteratively,...">
<polygon fill="white" stroke="#666666" points="346,-452 228,-452 228,-411 346,-411 346,-452"/>
<text text-anchor="start" x="236" y="-440" font-family="Helvetica,sans-Serif" font-size="10.00">others::iterative_tree</text>
<text text-anchor="start" x="236" y="-429" font-family="Helvetica,sans-Serif" font-size="10.00">_traversals::BinaryTree</text>
<text text-anchor="middle" x="287" y="-418" font-family="Helvetica,sans-Serif" font-size="10.00">::preOrderIterative</text>
</a>
</g>
</g>
<!-- Node22&#45;&gt;Node23 -->
<g id="edge33" class="edge">
<title>Node22&#45;&gt;Node23</title>
<path fill="none" stroke="#63b8ff" d="M152.33,-431.5C168.49,-431.5 193.09,-431.5 216.8,-431.5"/>
<polygon fill="#63b8ff" stroke="#63b8ff" points="216.6,-435 226.6,-431.5 216.6,-428 216.6,-435"/>
</g>
<!-- Node24 -->
<g id="node24" class="node">
<title>Node24</title>
<g id="a_node24"><a xlink:href="../../d1/dc2/classstack.html#a6cd4b95d5de00d41b2491392338384dc" target="_top" xlink:title=" ">
<polygon fill="white" stroke="#666666" points="471,-511 409,-511 409,-492 471,-492 471,-511"/>
<text text-anchor="middle" x="440" y="-499" font-family="Helvetica,sans-Serif" font-size="10.00">stack::pop</text>
</a>
</g>
</g>
<!-- Node23&#45;&gt;Node24 -->
<g id="edge34" class="edge">
<title>Node23&#45;&gt;Node24</title>
<path fill="none" stroke="#63b8ff" d="M329.38,-452.45C335,-455.42 340.67,-458.5 346,-461.5 362.34,-470.7 364.93,-475.73 382,-483.5 387.25,-485.89 392.92,-488.09 398.56,-490.08"/>
<polygon fill="#63b8ff" stroke="#63b8ff" points="397.02,-493.58 407.61,-493.4 399.21,-486.94 397.02,-493.58"/>
</g>
<!-- Node26 -->
<g id="node26" class="node">
<title>Node26</title>
<g id="a_node26"><a xlink:href="../../d1/dc2/classstack.html#a5705c3926dcf5fd3f9c964467a50b81d" target="_top" xlink:title=" ">
<polygon fill="white" stroke="#666666" points="474,-548 406,-548 406,-529 474,-529 474,-548"/>
<text text-anchor="middle" x="440" y="-536" font-family="Helvetica,sans-Serif" font-size="10.00">stack::push</text>
</a>
</g>
</g>
<!-- Node23&#45;&gt;Node26 -->
<g id="edge37" class="edge">
<title>Node23&#45;&gt;Node26</title>
<path fill="none" stroke="#63b8ff" d="M334.23,-452.34C338.43,-455.12 342.43,-458.18 346,-461.5 368.47,-482.44 357.82,-501.56 382,-520.5 386.07,-523.69 390.73,-526.32 395.57,-528.49"/>
<polygon fill="#63b8ff" stroke="#63b8ff" points="394.09,-532.05 404.68,-532.32 396.57,-525.5 394.09,-532.05"/>
</g>
<!-- Node27 -->
<g id="node27" class="node">
<title>Node27</title>
<g id="a_node27"><a xlink:href="../../d1/dc2/classstack.html#a21c0bb6ce7dcfe445cc12031977ea344" target="_top" xlink:title=" ">
<polygon fill="white" stroke="#666666" points="470,-474 410,-474 410,-455 470,-455 470,-474"/>
<text text-anchor="middle" x="440" y="-462" font-family="Helvetica,sans-Serif" font-size="10.00">stack::top</text>
</a>
</g>
</g>
<!-- Node23&#45;&gt;Node27 -->
<g id="edge38" class="edge">
<title>Node23&#45;&gt;Node27</title>
<path fill="none" stroke="#63b8ff" d="M346.38,-444.26C364.05,-448.12 383.03,-452.27 399.19,-455.8"/>
<polygon fill="#63b8ff" stroke="#63b8ff" points="398.35,-459.42 408.87,-458.13 399.85,-452.58 398.35,-459.42"/>
</g>
<!-- Node24&#45;&gt;Node4 -->
<g id="edge35" class="edge">
<title>Node24&#45;&gt;Node4</title>
<path fill="none" stroke="#63b8ff" d="M471.25,-509.12C480.18,-512.01 489.77,-515.78 498,-520.5 526.64,-536.93 554.4,-563.47 571.09,-580.95"/>
<polygon fill="#63b8ff" stroke="#63b8ff" points="567.97,-582.8 577.35,-587.72 573.08,-578.02 567.97,-582.8"/>
</g>
<!-- Node25 -->
<g id="node25" class="node">
<title>Node25</title>
<g id="a_node25"><a xlink:href="../../d1/dc2/classstack.html#a066e4505155b009913c47b2648b1067a" target="_top" xlink:title=" ">
<polygon fill="white" stroke="#666666" points="642,-511 534,-511 534,-492 642,-492 642,-511"/>
<text text-anchor="middle" x="588" y="-499" font-family="Helvetica,sans-Serif" font-size="10.00">stack::isEmptyStack</text>
</a>
</g>
</g>
<!-- Node24&#45;&gt;Node25 -->
<g id="edge36" class="edge">
<title>Node24&#45;&gt;Node25</title>
<path fill="none" stroke="#63b8ff" d="M471.25,-501.5C486.26,-501.5 505,-501.5 522.99,-501.5"/>
<polygon fill="#63b8ff" stroke="#63b8ff" points="522.76,-505 532.76,-501.5 522.76,-498 522.76,-505"/>
</g>
<!-- Node28&#45;&gt;Node4 -->
<g id="edge40" class="edge">
<title>Node28&#45;&gt;Node4</title>
<path fill="none" stroke="#63b8ff" d="M144.18,-559.4C160.35,-574.34 193.6,-602.04 228,-612.5 341.34,-646.97 484.11,-622.59 550.25,-607.7"/>
<polygon fill="#63b8ff" stroke="#63b8ff" points="550.61,-610.98 559.57,-605.32 549.04,-604.16 550.61,-610.98"/>
</g>
<!-- Node29 -->
<g id="node29" class="node">
<title>Node29</title>
<g id="a_node29"><a xlink:href="../../d9/d12/classothers_1_1iterative__tree__traversals_1_1_binary_tree.html#a636a07c90b7f312bb86d2ec104efca25" target="_top" xlink:title="postOrderIterative() function that will perform the postorder traversal iteratively,...">
<polygon fill="white" stroke="#666666" points="346,-570 228,-570 228,-529 346,-529 346,-570"/>
<text text-anchor="start" x="236" y="-558" font-family="Helvetica,sans-Serif" font-size="10.00">others::iterative_tree</text>
<text text-anchor="start" x="236" y="-547" font-family="Helvetica,sans-Serif" font-size="10.00">_traversals::BinaryTree</text>
<text text-anchor="middle" x="287" y="-536" font-family="Helvetica,sans-Serif" font-size="10.00">::postOrderIterative</text>
</a>
</g>
</g>
<!-- Node28&#45;&gt;Node29 -->
<g id="edge41" class="edge">
<title>Node28&#45;&gt;Node29</title>
<path fill="none" stroke="#63b8ff" d="M152.33,-549.5C168.49,-549.5 193.09,-549.5 216.8,-549.5"/>
<polygon fill="#63b8ff" stroke="#63b8ff" points="216.6,-553 226.6,-549.5 216.6,-546 216.6,-553"/>
</g>
<!-- Node29&#45;&gt;Node24 -->
<g id="edge42" class="edge">
<title>Node29&#45;&gt;Node24</title>
<path fill="none" stroke="#63b8ff" d="M346.38,-530.94C363.81,-525.4 382.52,-519.45 398.53,-514.36"/>
<polygon fill="#63b8ff" stroke="#63b8ff" points="399.15,-517.52 407.62,-511.16 397.03,-510.85 399.15,-517.52"/>
</g>
<!-- Node29&#45;&gt;Node26 -->
<g id="edge43" class="edge">
<title>Node29&#45;&gt;Node26</title>
<path fill="none" stroke="#63b8ff" d="M346.38,-545.25C362.54,-544.07 379.81,-542.81 395,-541.71"/>
<polygon fill="#63b8ff" stroke="#63b8ff" points="394.93,-545.15 404.65,-540.93 394.42,-538.17 394.93,-545.15"/>
</g>
<!-- Node29&#45;&gt;Node27 -->
<g id="edge44" class="edge">
<title>Node29&#45;&gt;Node27</title>
<path fill="none" stroke="#63b8ff" d="M333.52,-528.61C337.86,-526.07 342.09,-523.36 346,-520.5 364.52,-506.96 362.57,-495.7 382,-483.5 387.38,-480.13 393.42,-477.28 399.51,-474.91"/>
<polygon fill="#63b8ff" stroke="#63b8ff" points="400.4,-477.95 408.68,-471.34 398.09,-471.35 400.4,-477.95"/>
</g>
<!-- Node30&#45;&gt;Node4 -->
<g id="edge46" class="edge">
<title>Node30&#45;&gt;Node4</title>
<path fill="none" stroke="#63b8ff" d="M152.26,-508.42C164.37,-513.58 180.14,-521.47 192,-531.5 212.36,-548.73 204.47,-566.95 228,-579.5 282.89,-608.79 470.03,-603.98 550.13,-600.42"/>
<polygon fill="#63b8ff" stroke="#63b8ff" points="549.87,-603.89 559.7,-599.93 549.55,-596.9 549.87,-603.89"/>
</g>
<!-- Node31 -->
<g id="node31" class="node">
<title>Node31</title>
<g id="a_node31"><a xlink:href="../../d9/d12/classothers_1_1iterative__tree__traversals_1_1_binary_tree.html#a0c33f2c1a3a3deb486a1c33ee5239499" target="_top" xlink:title="inOrderIterative() function that will perform the inorder traversal iteratively, and return the resul...">
<polygon fill="white" stroke="#666666" points="346,-511 228,-511 228,-470 346,-470 346,-511"/>
<text text-anchor="start" x="236" y="-499" font-family="Helvetica,sans-Serif" font-size="10.00">others::iterative_tree</text>
<text text-anchor="start" x="236" y="-488" font-family="Helvetica,sans-Serif" font-size="10.00">_traversals::BinaryTree</text>
<text text-anchor="middle" x="287" y="-477" font-family="Helvetica,sans-Serif" font-size="10.00">::inOrderIterative</text>
</a>
</g>
</g>
<!-- Node30&#45;&gt;Node31 -->
<g id="edge47" class="edge">
<title>Node30&#45;&gt;Node31</title>
<path fill="none" stroke="#63b8ff" d="M152.33,-500.17C168.49,-499 193.09,-497.22 216.8,-495.51"/>
<polygon fill="#63b8ff" stroke="#63b8ff" points="216.88,-498.94 226.6,-494.73 216.37,-491.96 216.88,-498.94"/>
</g>
<!-- Node31&#45;&gt;Node24 -->
<g id="edge48" class="edge">
<title>Node31&#45;&gt;Node24</title>
<path fill="none" stroke="#63b8ff" d="M346.38,-494.75C363.64,-496.01 382.17,-497.36 398.08,-498.52"/>
<polygon fill="#63b8ff" stroke="#63b8ff" points="397.4,-502.05 407.62,-499.29 397.91,-495.07 397.4,-502.05"/>
</g>
<!-- Node31&#45;&gt;Node26 -->
<g id="edge49" class="edge">
<title>Node31&#45;&gt;Node26</title>
<path fill="none" stroke="#63b8ff" d="M346.41,-509.17C358.19,-512.93 370.49,-516.85 382,-520.5 386.87,-522.05 391.98,-523.67 397.06,-525.27"/>
<polygon fill="#63b8ff" stroke="#63b8ff" points="395.75,-528.84 406.34,-528.52 397.86,-522.17 395.75,-528.84"/>
</g>
<!-- Node31&#45;&gt;Node27 -->
<g id="edge50" class="edge">
<title>Node31&#45;&gt;Node27</title>
<path fill="none" stroke="#63b8ff" d="M346.38,-480.45C364.05,-477.41 383.03,-474.14 399.19,-471.35"/>
<polygon fill="#63b8ff" stroke="#63b8ff" points="399.61,-474.66 408.87,-469.52 398.42,-467.76 399.61,-474.66"/>
</g>
</g>
</svg>
