<?xml version="1.0" encoding="UTF-8" standalone="no"?>
<!DOCTYPE svg PUBLIC "-//W3C//DTD SVG 1.1//EN"
 "http://www.w3.org/Graphics/SVG/1.1/DTD/svg11.dtd">
<!-- Generated by graphviz version 8.0.2 (20230410.1723)
 -->
<!-- Title: stack&lt; Type &gt; Pages: 1 -->
<svg width="132pt" height="261pt"
 viewBox="0.00 0.00 131.50 261.00" xmlns="http://www.w3.org/2000/svg" xmlns:xlink="http://www.w3.org/1999/xlink">
<g id="graph0" class="graph" transform="scale(1 1) rotate(0) translate(4 257)">
<title>stack&lt; Type &gt;</title>
<!-- Node1 -->
<g id="node1" class="node">
<title>Node1</title>
<g id="a_node1"><a xlink:title=" ">
<polygon fill="#999999" stroke="#666666" points="80,-19 0,-19 0,0 80,0 80,-19"/>
<text text-anchor="middle" x="40" y="-7" font-family="Helvetica,sans-Serif" font-size="10.00">stack&lt; Type &gt;</text>
</a>
</g>
</g>
<!-- Node2 -->
<g id="node2" class="node">
<title>Node2</title>
<g id="a_node2"><a xlink:href="../../d5/da1/structnode.html" target="_top" xlink:title=" ">
<polygon fill="white" stroke="#666666" points="78.5,-85 1.5,-85 1.5,-66 78.5,-66 78.5,-85"/>
<text text-anchor="middle" x="40" y="-73" font-family="Helvetica,sans-Serif" font-size="10.00">node&lt; Type &gt;</text>
</a>
</g>
</g>
<!-- Node2&#45;&gt;Node1 -->
<g id="edge1" class="edge">
<title>Node2&#45;&gt;Node1</title>
<path fill="none" stroke="#9a32cd" stroke-dasharray="5,2" d="M40,-54.93C40,-43.05 40,-28.46 40,-19.32"/>
<polygon fill="#9a32cd" stroke="#9a32cd" points="36.5,-54.6 40,-64.6 43.5,-54.6 36.5,-54.6"/>
<text text-anchor="middle" x="61.5" y="-40" font-family="Helvetica,sans-Serif" font-size="10.00"> stackTop</text>
</g>
<!-- Node2&#45;&gt;Node2 -->
<g id="edge4" class="edge">
<title>Node2&#45;&gt;Node2</title>
<path fill="none" stroke="#9a32cd" stroke-dasharray="5,2" d="M89.53,-80.34C93.82,-79.31 96.5,-77.7 96.5,-75.5 96.5,-71.79 88.9,-69.75 78.82,-69.38"/>
<polygon fill="#9a32cd" stroke="#9a32cd" points="89.33,-76.96 79.82,-81.62 90.16,-83.91 89.33,-76.96"/>
<text text-anchor="middle" x="107.5" y="-73" font-family="Helvetica,sans-Serif" font-size="10.00"> next</text>
</g>
<!-- Node3 -->
<g id="node3" class="node">
<title>Node3</title>
<g id="a_node3"><a xlink:href="../../d5/da1/structnode.html" target="_top" xlink:title=" ">
<polygon fill="white" stroke="#666666" points="77.5,-229.5 2.5,-229.5 2.5,-210.5 77.5,-210.5 77.5,-229.5"/>
<text text-anchor="middle" x="40" y="-217.5" font-family="Helvetica,sans-Serif" font-size="10.00">node&lt; Kind &gt;</text>
</a>
</g>
</g>
<!-- Node3&#45;&gt;Node2 -->
<g id="edge2" class="edge">
<title>Node3&#45;&gt;Node2</title>
<path fill="none" stroke="#9a32cd" stroke-dasharray="5,2" d="M40,-199.27C40,-167.93 40,-108 40,-85.41"/>
<polygon fill="#9a32cd" stroke="#9a32cd" points="36.5,-199.09 40,-209.09 43.5,-199.09 36.5,-199.09"/>
<text text-anchor="middle" x="54" y="-161" font-family="Helvetica,sans-Serif" font-size="10.00"> left</text>
<text text-anchor="middle" x="54" y="-150" font-family="Helvetica,sans-Serif" font-size="10.00">link</text>
<text text-anchor="middle" x="54" y="-139" font-family="Helvetica,sans-Serif" font-size="10.00">next</text>
<text text-anchor="middle" x="54" y="-128" font-family="Helvetica,sans-Serif" font-size="10.00">parent</text>
<text text-anchor="middle" x="54" y="-117" font-family="Helvetica,sans-Serif" font-size="10.00">prev</text>
<text text-anchor="middle" x="54" y="-106" font-family="Helvetica,sans-Serif" font-size="10.00">right</text>
</g>
<!-- Node3&#45;&gt;Node3 -->
<g id="edge3" class="edge">
<title>Node3&#45;&gt;Node3</title>
<path fill="none" stroke="#9a32cd" stroke-dasharray="5,2" d="M62.63,-234.01C79.07,-238.66 95.5,-233.99 95.5,-220 95.5,-203.1 71.54,-199.8 52.54,-210.1"/>
<polygon fill="#9a32cd" stroke="#9a32cd" points="64.13,-230.43 53.54,-229.9 61.49,-236.91 64.13,-230.43"/>
<text text-anchor="middle" x="109.5" y="-245" font-family="Helvetica,sans-Serif" font-size="10.00"> left</text>
<text text-anchor="middle" x="109.5" y="-234" font-family="Helvetica,sans-Serif" font-size="10.00">link</text>
<text text-anchor="middle" x="109.5" y="-223" font-family="Helvetica,sans-Serif" font-size="10.00">next</text>
<text text-anchor="middle" x="109.5" y="-212" font-family="Helvetica,sans-Serif" font-size="10.00">parent</text>
<text text-anchor="middle" x="109.5" y="-201" font-family="Helvetica,sans-Serif" font-size="10.00">prev</text>
<text text-anchor="middle" x="109.5" y="-190" font-family="Helvetica,sans-Serif" font-size="10.00">right</text>
</g>
</g>
</svg>
