<?xml version="1.0" encoding="UTF-8" standalone="no"?>
<!DOCTYPE svg PUBLIC "-//W3C//DTD SVG 1.1//EN"
 "http://www.w3.org/Graphics/SVG/1.1/DTD/svg11.dtd">
<!-- Generated by graphviz version 8.0.2 (20230410.1723)
 -->
<!-- Title: cll Pages: 1 -->
<svg width="129pt" height="140pt"
 viewBox="0.00 0.00 129.00 140.00" xmlns="http://www.w3.org/2000/svg" xmlns:xlink="http://www.w3.org/1999/xlink">
<g id="graph0" class="graph" transform="scale(1 1) rotate(0) translate(4 136)">
<title>cll</title>
<!-- Node1 -->
<g id="node1" class="node">
<title>Node1</title>
<g id="a_node1"><a xlink:title=" ">
<polygon fill="#999999" stroke="#666666" points="52,-19 23,-19 23,0 52,0 52,-19"/>
<text text-anchor="middle" x="37.5" y="-7" font-family="Helvetica,sans-Serif" font-size="10.00">cll</text>
</a>
</g>
</g>
<!-- Node2 -->
<g id="node2" class="node">
<title>Node2</title>
<g id="a_node2"><a xlink:href="../../d5/da1/structnode.html" target="_top" xlink:title=" ">
<polygon fill="white" stroke="#666666" points="75,-108.5 0,-108.5 0,-89.5 75,-89.5 75,-108.5"/>
<text text-anchor="middle" x="37.5" y="-96.5" font-family="Helvetica,sans-Serif" font-size="10.00">node&lt; Kind &gt;</text>
</a>
</g>
</g>
<!-- Node2&#45;&gt;Node1 -->
<g id="edge1" class="edge">
<title>Node2&#45;&gt;Node1</title>
<path fill="none" stroke="#9a32cd" stroke-dasharray="5,2" d="M37.5,-78.36C37.5,-59.93 37.5,-33.2 37.5,-19.44"/>
<polygon fill="#9a32cd" stroke="#9a32cd" points="34,-78.29 37.5,-88.29 41,-78.29 34,-78.29"/>
<text text-anchor="middle" x="50" y="-40" font-family="Helvetica,sans-Serif" font-size="10.00"> head</text>
</g>
<!-- Node2&#45;&gt;Node2 -->
<g id="edge2" class="edge">
<title>Node2&#45;&gt;Node2</title>
<path fill="none" stroke="#9a32cd" stroke-dasharray="5,2" d="M74.2,-109.56C84.8,-109.17 93,-105.65 93,-99 93,-90.23 78.73,-86.9 63.48,-89.03"/>
<polygon fill="#9a32cd" stroke="#9a32cd" points="74.65,-106.02 64.48,-108.97 74.27,-113.01 74.65,-106.02"/>
<text text-anchor="middle" x="107" y="-124" font-family="Helvetica,sans-Serif" font-size="10.00"> left</text>
<text text-anchor="middle" x="107" y="-113" font-family="Helvetica,sans-Serif" font-size="10.00">link</text>
<text text-anchor="middle" x="107" y="-102" font-family="Helvetica,sans-Serif" font-size="10.00">next</text>
<text text-anchor="middle" x="107" y="-91" font-family="Helvetica,sans-Serif" font-size="10.00">parent</text>
<text text-anchor="middle" x="107" y="-80" font-family="Helvetica,sans-Serif" font-size="10.00">prev</text>
<text text-anchor="middle" x="107" y="-69" font-family="Helvetica,sans-Serif" font-size="10.00">right</text>
</g>
</g>
</svg>
