<?xml version="1.0" encoding="UTF-8" standalone="no"?>
<!DOCTYPE svg PUBLIC "-//W3C//DTD SVG 1.1//EN"
 "http://www.w3.org/Graphics/SVG/1.1/DTD/svg11.dtd">
<!-- Generated by graphviz version 8.0.2 (20230410.1723)
 -->
<!-- Title: backtracking::minimax Pages: 1 -->
<svg width="302pt" height="121pt"
 viewBox="0.00 0.00 302.00 121.00" xmlns="http://www.w3.org/2000/svg" xmlns:xlink="http://www.w3.org/1999/xlink">
<g id="graph0" class="graph" transform="scale(1 1) rotate(0) translate(4 117)">
<title>backtracking::minimax</title>
<!-- Node1 -->
<g id="node1" class="node">
<title>Node1</title>
<g id="a_node1"><a xlink:title="Check which is the maximum/minimum number in the array.">
<polygon fill="#999999" stroke="#666666" points="115,-57 0,-57 0,-38 115,-38 115,-57"/>
<text text-anchor="middle" x="57.5" y="-45" font-family="Helvetica,sans-Serif" font-size="10.00">backtracking::minimax</text>
</a>
</g>
</g>
<!-- Node1&#45;&gt;Node1 -->
<g id="edge6" class="edge">
<title>Node1&#45;&gt;Node1</title>
<path fill="none" stroke="#63b8ff" d="M38.79,-57.37C30.26,-65.94 36.49,-75 57.5,-75 69.64,-75 76.85,-71.97 79.12,-67.76"/>
<polygon fill="#63b8ff" stroke="#63b8ff" points="82.28,-67.05 76.21,-58.37 75.54,-68.94 82.28,-67.05"/>
</g>
<!-- Node2 -->
<g id="node2" class="node">
<title>Node2</title>
<g id="a_node2"><a xlink:href="../../d8/dee/avltree_8cpp.html#ae4a66d8b0c2b0d626aea45977e358c83" target="_top" xlink:title=" ">
<polygon fill="white" stroke="#666666" points="198.5,-95 155.5,-95 155.5,-76 198.5,-76 198.5,-95"/>
<text text-anchor="middle" x="177" y="-83" font-family="Helvetica,sans-Serif" font-size="10.00">height</text>
</a>
</g>
</g>
<!-- Node1&#45;&gt;Node2 -->
<g id="edge1" class="edge">
<title>Node1&#45;&gt;Node2</title>
<path fill="none" stroke="#63b8ff" d="M89.37,-57.48C106.6,-63.06 128,-69.98 145.21,-75.54"/>
<polygon fill="#63b8ff" stroke="#63b8ff" points="143.73,-79.06 154.32,-78.81 145.88,-72.4 143.73,-79.06"/>
</g>
<!-- Node3 -->
<g id="node3" class="node">
<title>Node3</title>
<g id="a_node3"><a target="_blank" xlink:href="http://en.cppreference.com/w/cpp/algorithm/max.html#" xlink:title=" ">
<polygon fill="white" stroke="#666666" points="294,-76 239,-76 239,-57 294,-57 294,-76"/>
<text text-anchor="middle" x="266.5" y="-64" font-family="Helvetica,sans-Serif" font-size="10.00">std::max</text>
</a>
</g>
</g>
<!-- Node1&#45;&gt;Node3 -->
<g id="edge4" class="edge">
<title>Node1&#45;&gt;Node3</title>
<path fill="none" stroke="#63b8ff" d="M115.34,-52.72C151.15,-56 196.4,-60.16 227.82,-63.04"/>
<polygon fill="#63b8ff" stroke="#63b8ff" points="227.45,-66.61 237.72,-64.04 228.09,-59.64 227.45,-66.61"/>
</g>
<!-- Node4 -->
<g id="node4" class="node">
<title>Node4</title>
<g id="a_node4"><a target="_blank" xlink:href="http://en.cppreference.com/w/cpp/algorithm/min.html#" xlink:title=" ">
<polygon fill="white" stroke="#666666" points="203,-19 151,-19 151,0 203,0 203,-19"/>
<text text-anchor="middle" x="177" y="-7" font-family="Helvetica,sans-Serif" font-size="10.00">std::min</text>
</a>
</g>
</g>
<!-- Node1&#45;&gt;Node4 -->
<g id="edge5" class="edge">
<title>Node1&#45;&gt;Node4</title>
<path fill="none" stroke="#63b8ff" d="M89.37,-37.52C105.1,-32.43 124.3,-26.22 140.62,-20.94"/>
<polygon fill="#63b8ff" stroke="#63b8ff" points="141.43,-24.03 149.87,-17.63 139.28,-17.37 141.43,-24.03"/>
</g>
<!-- Node2&#45;&gt;Node2 -->
<g id="edge2" class="edge">
<title>Node2&#45;&gt;Node2</title>
<path fill="none" stroke="#63b8ff" d="M162.99,-95.37C156.6,-103.94 161.27,-113 177,-113 185.85,-113 191.2,-110.13 193.05,-106.1"/>
<polygon fill="#63b8ff" stroke="#63b8ff" points="196.32,-105.54 191.01,-96.37 189.44,-106.85 196.32,-105.54"/>
</g>
<!-- Node2&#45;&gt;Node3 -->
<g id="edge3" class="edge">
<title>Node2&#45;&gt;Node3</title>
<path fill="none" stroke="#63b8ff" d="M198.74,-81C207.49,-79.1 217.97,-76.82 228.01,-74.64"/>
<polygon fill="#63b8ff" stroke="#63b8ff" points="228.58,-77.88 237.61,-72.34 227.1,-71.04 228.58,-77.88"/>
</g>
</g>
</svg>
