<?xml version="1.0" encoding="UTF-8" standalone="no"?>
<!DOCTYPE svg PUBLIC "-//W3C//DTD SVG 1.1//EN"
 "http://www.w3.org/Graphics/SVG/1.1/DTD/svg11.dtd">
<!-- Generated by graphviz version 8.0.2 (20230410.1723)
 -->
<!-- Title: math::cylinder_volume Pages: 1 -->
<svg width="304pt" height="82pt"
 viewBox="0.00 0.00 304.00 82.00" xmlns="http://www.w3.org/2000/svg" xmlns:xlink="http://www.w3.org/1999/xlink">
<g id="graph0" class="graph" transform="scale(1 1) rotate(0) translate(4 78)">
<title>math::cylinder_volume</title>
<!-- Node1 -->
<g id="node1" class="node">
<title>Node1</title>
<g id="a_node1"><a xlink:title="The volume of a cylinder">
<polygon fill="#999999" stroke="#666666" points="115,-37 0,-37 0,-18 115,-18 115,-37"/>
<text text-anchor="middle" x="57.5" y="-25" font-family="Helvetica,sans-Serif" font-size="10.00">math::cylinder_volume</text>
</a>
</g>
</g>
<!-- Node2 -->
<g id="node2" class="node">
<title>Node2</title>
<g id="a_node2"><a xlink:href="../../d8/dee/avltree_8cpp.html#ae4a66d8b0c2b0d626aea45977e358c83" target="_top" xlink:title=" ">
<polygon fill="white" stroke="#666666" points="199.5,-56 156.5,-56 156.5,-37 199.5,-37 199.5,-56"/>
<text text-anchor="middle" x="178" y="-44" font-family="Helvetica,sans-Serif" font-size="10.00">height</text>
</a>
</g>
</g>
<!-- Node1&#45;&gt;Node2 -->
<g id="edge1" class="edge">
<title>Node1&#45;&gt;Node2</title>
<path fill="none" stroke="#63b8ff" d="M115.32,-36.61C125.71,-38.28 136.2,-39.96 145.5,-41.45"/>
<polygon fill="#63b8ff" stroke="#63b8ff" points="144.76,-45.04 155.19,-43.16 145.87,-38.12 144.76,-45.04"/>
</g>
<!-- Node4 -->
<g id="node4" class="node">
<title>Node4</title>
<g id="a_node4"><a target="_blank" xlink:href="http://en.cppreference.com/w/cpp/numeric/math/pow.html#" xlink:title=" ">
<polygon fill="white" stroke="#666666" points="205,-19 151,-19 151,0 205,0 205,-19"/>
<text text-anchor="middle" x="178" y="-7" font-family="Helvetica,sans-Serif" font-size="10.00">std::pow</text>
</a>
</g>
</g>
<!-- Node1&#45;&gt;Node4 -->
<g id="edge4" class="edge">
<title>Node1&#45;&gt;Node4</title>
<path fill="none" stroke="#63b8ff" d="M115.32,-18.87C123.72,-17.59 132.18,-16.31 140.03,-15.12"/>
<polygon fill="#63b8ff" stroke="#63b8ff" points="140.29,-18.46 149.66,-13.5 139.24,-11.54 140.29,-18.46"/>
</g>
<!-- Node2&#45;&gt;Node2 -->
<g id="edge2" class="edge">
<title>Node2&#45;&gt;Node2</title>
<path fill="none" stroke="#63b8ff" d="M163.83,-56.37C157.37,-64.94 162.09,-74 178,-74 186.95,-74 192.36,-71.13 194.23,-67.1"/>
<polygon fill="#63b8ff" stroke="#63b8ff" points="197.49,-66.53 192.17,-57.37 190.62,-67.85 197.49,-66.53"/>
</g>
<!-- Node3 -->
<g id="node3" class="node">
<title>Node3</title>
<g id="a_node3"><a target="_blank" xlink:href="http://en.cppreference.com/w/cpp/algorithm/max.html#" xlink:title=" ">
<polygon fill="white" stroke="#666666" points="296,-56 241,-56 241,-37 296,-37 296,-56"/>
<text text-anchor="middle" x="268.5" y="-44" font-family="Helvetica,sans-Serif" font-size="10.00">std::max</text>
</a>
</g>
</g>
<!-- Node2&#45;&gt;Node3 -->
<g id="edge3" class="edge">
<title>Node2&#45;&gt;Node3</title>
<path fill="none" stroke="#63b8ff" d="M199.97,-46.5C208.91,-46.5 219.61,-46.5 229.83,-46.5"/>
<polygon fill="#63b8ff" stroke="#63b8ff" points="229.63,-50 239.63,-46.5 229.63,-43 229.63,-50"/>
</g>
</g>
</svg>
