<?xml version="1.0" encoding="UTF-8" standalone="no"?>
<!DOCTYPE svg PUBLIC "-//W3C//DTD SVG 1.1//EN"
 "http://www.w3.org/Graphics/SVG/1.1/DTD/svg11.dtd">
<!-- Generated by graphviz version 8.0.2 (20230410.1723)
 -->
<!-- Title: math::cone_volume Pages: 1 -->
<svg width="291pt" height="82pt"
 viewBox="0.00 0.00 291.00 82.00" xmlns="http://www.w3.org/2000/svg" xmlns:xlink="http://www.w3.org/1999/xlink">
<g id="graph0" class="graph" transform="scale(1 1) rotate(0) translate(4 78)">
<title>math::cone_volume</title>
<!-- Node1 -->
<g id="node1" class="node">
<title>Node1</title>
<g id="a_node1"><a xlink:title="The volume of a cone">
<polygon fill="#999999" stroke="#666666" points="102,-37 0,-37 0,-18 102,-18 102,-37"/>
<text text-anchor="middle" x="51" y="-25" font-family="Helvetica,sans-Serif" font-size="10.00">math::cone_volume</text>
</a>
</g>
</g>
<!-- Node2 -->
<g id="node2" class="node">
<title>Node2</title>
<g id="a_node2"><a xlink:href="../../d8/dee/avltree_8cpp.html#ae4a66d8b0c2b0d626aea45977e358c83" target="_top" xlink:title=" ">
<polygon fill="white" stroke="#666666" points="186.5,-56 143.5,-56 143.5,-37 186.5,-37 186.5,-56"/>
<text text-anchor="middle" x="165" y="-44" font-family="Helvetica,sans-Serif" font-size="10.00">height</text>
</a>
</g>
</g>
<!-- Node1&#45;&gt;Node2 -->
<g id="edge1" class="edge">
<title>Node1&#45;&gt;Node2</title>
<path fill="none" stroke="#63b8ff" d="M102.43,-36.06C112.67,-37.79 123.15,-39.57 132.51,-41.16"/>
<polygon fill="#63b8ff" stroke="#63b8ff" points="131.81,-44.76 142.26,-42.98 132.98,-37.86 131.81,-44.76"/>
</g>
<!-- Node4 -->
<g id="node4" class="node">
<title>Node4</title>
<g id="a_node4"><a target="_blank" xlink:href="http://en.cppreference.com/w/cpp/numeric/math/pow.html#" xlink:title=" ">
<polygon fill="white" stroke="#666666" points="192,-19 138,-19 138,0 192,0 192,-19"/>
<text text-anchor="middle" x="165" y="-7" font-family="Helvetica,sans-Serif" font-size="10.00">std::pow</text>
</a>
</g>
</g>
<!-- Node1&#45;&gt;Node4 -->
<g id="edge4" class="edge">
<title>Node1&#45;&gt;Node4</title>
<path fill="none" stroke="#63b8ff" d="M102.43,-19.4C110.72,-18.06 119.17,-16.7 127.05,-15.44"/>
<polygon fill="#63b8ff" stroke="#63b8ff" points="127.42,-18.76 136.73,-13.72 126.3,-11.85 127.42,-18.76"/>
</g>
<!-- Node2&#45;&gt;Node2 -->
<g id="edge2" class="edge">
<title>Node2&#45;&gt;Node2</title>
<path fill="none" stroke="#63b8ff" d="M150.83,-56.37C144.37,-64.94 149.09,-74 165,-74 173.95,-74 179.36,-71.13 181.23,-67.1"/>
<polygon fill="#63b8ff" stroke="#63b8ff" points="184.49,-66.53 179.17,-57.37 177.62,-67.85 184.49,-66.53"/>
</g>
<!-- Node3 -->
<g id="node3" class="node">
<title>Node3</title>
<g id="a_node3"><a target="_blank" xlink:href="http://en.cppreference.com/w/cpp/algorithm/max.html#" xlink:title=" ">
<polygon fill="white" stroke="#666666" points="283,-56 228,-56 228,-37 283,-37 283,-56"/>
<text text-anchor="middle" x="255.5" y="-44" font-family="Helvetica,sans-Serif" font-size="10.00">std::max</text>
</a>
</g>
</g>
<!-- Node2&#45;&gt;Node3 -->
<g id="edge3" class="edge">
<title>Node2&#45;&gt;Node3</title>
<path fill="none" stroke="#63b8ff" d="M186.97,-46.5C195.91,-46.5 206.61,-46.5 216.83,-46.5"/>
<polygon fill="#63b8ff" stroke="#63b8ff" points="216.63,-50 226.63,-46.5 216.63,-43 216.63,-50"/>
</g>
</g>
</svg>
