<?xml version="1.0" encoding="UTF-8" standalone="no"?>
<!DOCTYPE svg PUBLIC "-//W3C//DTD SVG 1.1//EN"
 "http://www.w3.org/Graphics/SVG/1.1/DTD/svg11.dtd">
<!-- Generated by graphviz version 8.0.2 (20230410.1723)
 -->
<!-- Title: main Pages: 1 -->
<!--zoomable 382 -->
<svg id="main" version="1.1" xmlns="http://www.w3.org/2000/svg" xmlns:xlink="http://www.w3.org/1999/xlink" xml:space="preserve" onload="init(evt)">
<style type="text/css"><![CDATA[
.edge:hover path { stroke: red; }
.edge:hover polygon { stroke: red; fill: red; }
]]></style>
<script type="text/javascript"><![CDATA[
var edges = document.getElementsByTagName('g');
if (edges && edges.length) {
  for (var i=0;i<edges.length;i++) {
    if (edges[i].id.substr(0,4)=='edge') {
      edges[i].setAttribute('class','edge');
    }
  }
}
]]></script>
        <defs>
                <circle id="rim" cx="0" cy="0" r="7"/>
                <circle id="rim2" cx="0" cy="0" r="3.5"/>
                <g id="zoomPlus">
                        <use xlink:href="#rim" fill="#404040">
                                <set attributeName="fill" to="#808080" begin="zoomplus.mouseover" end="zoomplus.mouseout"/>
                        </use>
                        <path d="M-4,0h8M0,-4v8" fill="none" stroke="white" stroke-width="1.5" pointer-events="none"/>
                </g>
                <g id="zoomMin">
                        <use xlink:href="#rim" fill="#404040">
                                <set attributeName="fill" to="#808080" begin="zoomminus.mouseover" end="zoomminus.mouseout"/>
                        </use>
                        <path d="M-4,0h8" fill="none" stroke="white" stroke-width="1.5" pointer-events="none"/>
                </g>
                <g id="dirArrow">
                        <path fill="none" stroke="white" stroke-width="1.5" d="M0,-3.0v7 M-2.5,-0.5L0,-3.0L2.5,-0.5"/>
                </g>
               <g id="resetDef">
                       <use xlink:href="#rim2" fill="#404040">
                               <set attributeName="fill" to="#808080" begin="reset.mouseover" end="reset.mouseout"/>
                       </use>
               </g>
        </defs>

<script type="text/javascript">
var viewWidth = 517;
var viewHeight = 382;
var sectionId = 'dynsection-1';
</script>
<script xlink:href="../../svgpan.js"/>
<svg id="graph" class="graph">
<g id="viewport">
<title>main</title>
<!-- Node1 -->
<g id="node1" class="node">
<title>Node1</title>
<g id="a_node1"><a xlink:title=" ">
<polygon fill="#999999" stroke="#666666" points="38,-262 0,-262 0,-243 38,-243 38,-262"/>
<text text-anchor="middle" x="19" y="-250" font-family="Helvetica,sans-Serif" font-size="10.00">main</text>
</a>
</g>
</g>
<!-- Node2 -->
<g id="node2" class="node">
<title>Node2</title>
<g id="a_node2"><a target="_blank" xlink:href="http://en.cppreference.com/w/cpp/io/manip/endl.html#" xlink:title=" ">
<polygon fill="white" stroke="#666666" points="131,-355 77,-355 77,-336 131,-336 131,-355"/>
<text text-anchor="middle" x="104" y="-343" font-family="Helvetica,sans-Serif" font-size="10.00">std::endl</text>
</a>
</g>
</g>
<!-- Node1&#45;&gt;Node2 -->
<g id="edge1" class="edge">
<title>Node1&#45;&gt;Node2</title>
<path fill="none" stroke="#63b8ff" d="M25.43,-262.43C34.17,-277.75 52.54,-307.46 74,-327.5 74.7,-328.15 75.43,-328.8 76.18,-329.43"/>
<polygon fill="#63b8ff" stroke="#63b8ff" points="73.59,-332.6 83.73,-335.68 77.72,-326.95 73.59,-332.6"/>
</g>
<!-- Node3 -->
<g id="node3" class="node">
<title>Node3</title>
<g id="a_node3"><a target="_blank" xlink:href="http://en.cppreference.com/w/cpp/numeric/random/srand.html#" xlink:title=" ">
<polygon fill="white" stroke="#666666" points="134,-318 74,-318 74,-299 134,-299 134,-318"/>
<text text-anchor="middle" x="104" y="-306" font-family="Helvetica,sans-Serif" font-size="10.00">std::srand</text>
</a>
</g>
</g>
<!-- Node1&#45;&gt;Node3 -->
<g id="edge2" class="edge">
<title>Node1&#45;&gt;Node3</title>
<path fill="none" stroke="#63b8ff" d="M33.61,-262.4C44.44,-270.21 60.04,-281.27 74,-290.5 75.14,-291.25 76.31,-292.02 77.49,-292.78"/>
<polygon fill="#63b8ff" stroke="#63b8ff" points="75.32,-296.18 85.64,-298.57 79.06,-290.27 75.32,-296.18"/>
</g>
<!-- Node4 -->
<g id="node4" class="node">
<title>Node4</title>
<g id="a_node4"><a xlink:href="../../d3/dae/dsu__path__compression_8cpp.html#ae7880ce913f3058a35ff106d5be9e243" target="_top" xlink:title="Self&#45;test implementations, 1st test.">
<polygon fill="white" stroke="#666666" points="123,-281 85,-281 85,-262 123,-262 123,-281"/>
<text text-anchor="middle" x="104" y="-269" font-family="Helvetica,sans-Serif" font-size="10.00">test1</text>
</a>
</g>
</g>
<!-- Node1&#45;&gt;Node4 -->
<g id="edge3" class="edge">
<title>Node1&#45;&gt;Node4</title>
<path fill="none" stroke="#63b8ff" d="M38.42,-256.72C48.84,-259.1 62.12,-262.14 73.91,-264.84"/>
<polygon fill="#63b8ff" stroke="#63b8ff" points="73.1,-268.48 83.63,-267.3 74.66,-261.65 73.1,-268.48"/>
</g>
<!-- Node16 -->
<g id="node16" class="node">
<title>Node16</title>
<g id="a_node16"><a xlink:href="../../d3/dae/dsu__path__compression_8cpp.html#a45d94ead4cf4e1ff9f87c38bc99f59ae" target="_top" xlink:title="Self&#45;implementations, 2nd test.">
<polygon fill="white" stroke="#666666" points="123,-244 85,-244 85,-225 123,-225 123,-244"/>
<text text-anchor="middle" x="104" y="-232" font-family="Helvetica,sans-Serif" font-size="10.00">test2</text>
</a>
</g>
</g>
<!-- Node1&#45;&gt;Node16 -->
<g id="edge20" class="edge">
<title>Node1&#45;&gt;Node16</title>
<path fill="none" stroke="#63b8ff" d="M38.42,-248.51C48.84,-246.24 62.12,-243.37 73.91,-240.81"/>
<polygon fill="#63b8ff" stroke="#63b8ff" points="74.6,-244.02 83.63,-238.48 73.12,-237.18 74.6,-244.02"/>
</g>
<!-- Node17 -->
<g id="node17" class="node">
<title>Node17</title>
<g id="a_node17"><a xlink:href="../../dd/d0c/hamiltons__cycle_8cpp.html#a0cc94918b6831f308d4fe4fa27f08299" target="_top" xlink:title=" ">
<polygon fill="white" stroke="#666666" points="123,-207 85,-207 85,-188 123,-188 123,-207"/>
<text text-anchor="middle" x="104" y="-195" font-family="Helvetica,sans-Serif" font-size="10.00">test3</text>
</a>
</g>
</g>
<!-- Node1&#45;&gt;Node17 -->
<g id="edge24" class="edge">
<title>Node1&#45;&gt;Node17</title>
<path fill="none" stroke="#63b8ff" d="M34.65,-242.69C45.5,-235.43 60.65,-225.32 74,-216.5 75.55,-215.47 77.16,-214.42 78.77,-213.35"/>
<polygon fill="#63b8ff" stroke="#63b8ff" points="80.49,-215.75 86.93,-207.34 76.65,-209.9 80.49,-215.75"/>
</g>
<!-- Node21 -->
<g id="node21" class="node">
<title>Node21</title>
<g id="a_node21"><a target="_blank" xlink:href="http://en.cppreference.com/w/cpp/chrono/c/time.html#" xlink:title=" ">
<polygon fill="white" stroke="#666666" points="131.5,-170 76.5,-170 76.5,-151 131.5,-151 131.5,-170"/>
<text text-anchor="middle" x="104" y="-158" font-family="Helvetica,sans-Serif" font-size="10.00">std::time</text>
</a>
</g>
</g>
<!-- Node1&#45;&gt;Node21 -->
<g id="edge30" class="edge">
<title>Node1&#45;&gt;Node21</title>
<path fill="none" stroke="#63b8ff" d="M25.7,-242.67C34.65,-227.79 53.14,-199.2 74,-179.5 74.98,-178.57 76.02,-177.66 77.09,-176.76"/>
<polygon fill="#63b8ff" stroke="#63b8ff" points="78.73,-179.16 84.69,-170.4 74.57,-173.54 78.73,-179.16"/>
</g>
<!-- Node5 -->
<g id="node5" class="node">
<title>Node5</title>
<g id="a_node5"><a target="_blank" xlink:href="http://en.cppreference.com/w/cpp/container/vector/at.html#" xlink:title=" ">
<polygon fill="white" stroke="#666666" points="249.5,-318 172.5,-318 172.5,-299 249.5,-299 249.5,-318"/>
<text text-anchor="middle" x="211" y="-306" font-family="Helvetica,sans-Serif" font-size="10.00">std::vector::at</text>
</a>
</g>
</g>
<!-- Node4&#45;&gt;Node5 -->
<g id="edge4" class="edge">
<title>Node4&#45;&gt;Node5</title>
<path fill="none" stroke="#63b8ff" d="M123.29,-277.94C136.62,-282.64 155.17,-289.18 171.69,-295"/>
<polygon fill="#63b8ff" stroke="#63b8ff" points="170.05,-298.49 180.65,-298.51 172.38,-291.88 170.05,-298.49"/>
</g>
<!-- Node6 -->
<g id="node6" class="node">
<title>Node6</title>
<g id="a_node6"><a xlink:href="../../dd/d1f/classdsu.html#a0ce2672c570f4235eafddb0c9a58115a" target="_top" xlink:title="prints the minimum, maximum and size of the set to which i belongs to">
<polygon fill="white" stroke="#666666" points="237,-281 185,-281 185,-262 237,-262 237,-281"/>
<text text-anchor="middle" x="211" y="-269" font-family="Helvetica,sans-Serif" font-size="10.00">dsu::get</text>
</a>
</g>
</g>
<!-- Node4&#45;&gt;Node6 -->
<g id="edge5" class="edge">
<title>Node4&#45;&gt;Node6</title>
<path fill="none" stroke="#63b8ff" d="M123.29,-271.5C137.27,-271.5 156.98,-271.5 174.07,-271.5"/>
<polygon fill="#63b8ff" stroke="#63b8ff" points="173.84,-275 183.84,-271.5 173.84,-268 173.84,-275"/>
</g>
<!-- Node11 -->
<g id="node11" class="node">
<title>Node11</title>
<g id="a_node11"><a xlink:href="../../dd/d1f/classdsu.html#a6ac30c07abca2aaa3b291504c25c3559" target="_top" xlink:title="Method that combines two disjoint sets to which i and j belongs to and make a single set having a com...">
<polygon fill="white" stroke="#666666" points="250.5,-225 171.5,-225 171.5,-206 250.5,-206 250.5,-225"/>
<text text-anchor="middle" x="211" y="-213" font-family="Helvetica,sans-Serif" font-size="10.00">dsu::UnionSet</text>
</a>
</g>
</g>
<!-- Node4&#45;&gt;Node11 -->
<g id="edge13" class="edge">
<title>Node4&#45;&gt;Node11</title>
<path fill="none" stroke="#63b8ff" d="M123.29,-261.75C139.53,-253.09 163.49,-240.3 182.12,-230.37"/>
<polygon fill="#63b8ff" stroke="#63b8ff" points="183.39,-233.12 190.57,-225.33 180.1,-226.95 183.39,-233.12"/>
</g>
<!-- Node7 -->
<g id="node7" class="node">
<title>Node7</title>
<g id="a_node7"><a xlink:href="../../dd/d1f/classdsu.html#a696141b8b092466767f4bfe1c5e46cde" target="_top" xlink:title="A utility function that returns the max element of the set to which i belongs to.">
<polygon fill="white" stroke="#666666" points="384,-374 308,-374 308,-355 384,-355 384,-374"/>
<text text-anchor="middle" x="346" y="-362" font-family="Helvetica,sans-Serif" font-size="10.00">dsu::get_max</text>
</a>
</g>
</g>
<!-- Node6&#45;&gt;Node7 -->
<g id="edge6" class="edge">
<title>Node6&#45;&gt;Node7</title>
<path fill="none" stroke="#63b8ff" d="M237.43,-280.96C242.58,-283.57 247.73,-286.74 252,-290.5 274.22,-310.04 264.49,-328.53 288,-346.5 290.98,-348.77 294.25,-350.77 297.67,-352.51"/>
<polygon fill="#63b8ff" stroke="#63b8ff" points="296.03,-356.04 306.59,-356.79 298.8,-349.61 296.03,-356.04"/>
</g>
<!-- Node9 -->
<g id="node9" class="node">
<title>Node9</title>
<g id="a_node9"><a xlink:href="../../dd/d1f/classdsu.html#ac713a5b496d0405c82e2808a85e58415" target="_top" xlink:title="A utility function that returns the min element of the set to which i belongs to.">
<polygon fill="white" stroke="#666666" points="382.5,-337 309.5,-337 309.5,-318 382.5,-318 382.5,-337"/>
<text text-anchor="middle" x="346" y="-325" font-family="Helvetica,sans-Serif" font-size="10.00">dsu::get_min</text>
</a>
</g>
</g>
<!-- Node6&#45;&gt;Node9 -->
<g id="edge9" class="edge">
<title>Node6&#45;&gt;Node9</title>
<path fill="none" stroke="#63b8ff" d="M233.26,-281.39C239.33,-284.28 245.95,-287.47 252,-290.5 268.17,-298.61 271.31,-302.53 288,-309.5 291.82,-311.1 295.84,-312.63 299.9,-314.09"/>
<polygon fill="#63b8ff" stroke="#63b8ff" points="298.38,-317.61 308.98,-317.53 300.65,-310.99 298.38,-317.61"/>
</g>
<!-- Node10 -->
<g id="node10" class="node">
<title>Node10</title>
<g id="a_node10"><a xlink:href="../../dd/d1f/classdsu.html#a1c24228b0f2f49220133fb8c3566a55c" target="_top" xlink:title="A utility function that returns the size of the set to which i belongs to.">
<polygon fill="white" stroke="#666666" points="374,-300 318,-300 318,-281 374,-281 374,-300"/>
<text text-anchor="middle" x="346" y="-288" font-family="Helvetica,sans-Serif" font-size="10.00">dsu::size</text>
</a>
</g>
</g>
<!-- Node6&#45;&gt;Node10 -->
<g id="edge11" class="edge">
<title>Node6&#45;&gt;Node10</title>
<path fill="none" stroke="#63b8ff" d="M237.33,-275.12C257.06,-277.94 284.76,-281.89 307.12,-285.09"/>
<polygon fill="#63b8ff" stroke="#63b8ff" points="306.54,-288.68 316.94,-286.63 307.53,-281.75 306.54,-288.68"/>
</g>
<!-- Node8 -->
<g id="node8" class="node">
<title>Node8</title>
<g id="a_node8"><a xlink:href="../../dd/d1f/classdsu.html#a16851f78fe390fc1430905c83d6a2f1c" target="_top" xlink:title="Method to find the representative of the set to which i belongs to, T(n) = O(1)">
<polygon fill="white" stroke="#666666" points="509,-300 440,-300 440,-281 509,-281 509,-300"/>
<text text-anchor="middle" x="474.5" y="-288" font-family="Helvetica,sans-Serif" font-size="10.00">dsu::findSet</text>
</a>
</g>
</g>
<!-- Node7&#45;&gt;Node8 -->
<g id="edge7" class="edge">
<title>Node7&#45;&gt;Node8</title>
<path fill="none" stroke="#63b8ff" d="M384.31,-354.92C391.05,-352.58 397.87,-349.78 404,-346.5 423.49,-336.05 442.85,-319.85 456.17,-307.55"/>
<polygon fill="#63b8ff" stroke="#63b8ff" points="458.14,-310.56 462.99,-301.14 453.33,-305.48 458.14,-310.56"/>
</g>
<!-- Node8&#45;&gt;Node8 -->
<g id="edge8" class="edge">
<title>Node8&#45;&gt;Node8</title>
<path fill="none" stroke="#63b8ff" d="M454.38,-300.37C445.21,-308.94 451.91,-318 474.5,-318 487.56,-318 495.31,-314.97 497.75,-310.76"/>
<polygon fill="#63b8ff" stroke="#63b8ff" points="500.86,-309.93 494.62,-301.37 494.15,-311.95 500.86,-309.93"/>
</g>
<!-- Node9&#45;&gt;Node8 -->
<g id="edge10" class="edge">
<title>Node9&#45;&gt;Node8</title>
<path fill="none" stroke="#63b8ff" d="M380.9,-317.58C395.79,-313.23 413.46,-308.06 429.36,-303.41"/>
<polygon fill="#63b8ff" stroke="#63b8ff" points="429.89,-306.61 438.51,-300.44 427.93,-299.89 429.89,-306.61"/>
</g>
<!-- Node10&#45;&gt;Node8 -->
<g id="edge12" class="edge">
<title>Node10&#45;&gt;Node8</title>
<path fill="none" stroke="#63b8ff" d="M374.45,-290.5C390.34,-290.5 410.71,-290.5 428.85,-290.5"/>
<polygon fill="#63b8ff" stroke="#63b8ff" points="428.8,-294 438.8,-290.5 428.8,-287 428.8,-294"/>
</g>
<!-- Node11&#45;&gt;Node8 -->
<g id="edge14" class="edge">
<title>Node11&#45;&gt;Node8</title>
<path fill="none" stroke="#63b8ff" d="M250.68,-213.32C290.58,-212.47 353.87,-215.09 404,-235.5 424.58,-243.88 444.05,-260.3 457.12,-273.03"/>
<polygon fill="#63b8ff" stroke="#63b8ff" points="454.21,-275.08 463.73,-279.74 459.19,-270.16 454.21,-275.08"/>
</g>
<!-- Node12 -->
<g id="node12" class="node">
<title>Node12</title>
<g id="a_node12"><a xlink:href="../../dd/d1f/classdsu.html#a64d25c5986742f7c234ed449b2ff7303" target="_top" xlink:title="A utility function which check whether i and j belongs to same set or not.">
<polygon fill="white" stroke="#666666" points="381.5,-187 310.5,-187 310.5,-168 381.5,-168 381.5,-187"/>
<text text-anchor="middle" x="346" y="-175" font-family="Helvetica,sans-Serif" font-size="10.00">dsu::isSame</text>
</a>
</g>
</g>
<!-- Node11&#45;&gt;Node12 -->
<g id="edge15" class="edge">
<title>Node11&#45;&gt;Node12</title>
<path fill="none" stroke="#63b8ff" d="M246.94,-205.52C263.13,-200.89 282.57,-195.34 299.85,-190.4"/>
<polygon fill="#63b8ff" stroke="#63b8ff" points="300.64,-193.53 309.29,-187.42 298.71,-186.8 300.64,-193.53"/>
</g>
<!-- Node13 -->
<g id="node13" class="node">
<title>Node13</title>
<g id="a_node13"><a target="_blank" xlink:href="http://en.cppreference.com/w/cpp/algorithm/max.html#" xlink:title=" ">
<polygon fill="white" stroke="#666666" points="502,-103 447,-103 447,-84 502,-84 502,-103"/>
<text text-anchor="middle" x="474.5" y="-91" font-family="Helvetica,sans-Serif" font-size="10.00">std::max</text>
</a>
</g>
</g>
<!-- Node11&#45;&gt;Node13 -->
<g id="edge17" class="edge">
<title>Node11&#45;&gt;Node13</title>
<path fill="none" stroke="#63b8ff" d="M223.1,-205.57C237.28,-193.32 262.99,-172.51 288,-159.5 336.25,-134.4 352.86,-139.02 404,-120.5 415.34,-116.39 427.64,-111.7 438.69,-107.38"/>
<polygon fill="#63b8ff" stroke="#63b8ff" points="439.81,-110.31 447.84,-103.4 437.25,-103.8 439.81,-110.31"/>
</g>
<!-- Node14 -->
<g id="node14" class="node">
<title>Node14</title>
<g id="a_node14"><a target="_blank" xlink:href="http://en.cppreference.com/w/cpp/algorithm/min.html#" xlink:title=" ">
<polygon fill="white" stroke="#666666" points="372,-111 320,-111 320,-92 372,-92 372,-111"/>
<text text-anchor="middle" x="346" y="-99" font-family="Helvetica,sans-Serif" font-size="10.00">std::min</text>
</a>
</g>
</g>
<!-- Node11&#45;&gt;Node14 -->
<g id="edge18" class="edge">
<title>Node11&#45;&gt;Node14</title>
<path fill="none" stroke="#63b8ff" d="M218.12,-205.52C229.71,-187.35 256.53,-148.64 288,-125.5 294.48,-120.73 302.05,-116.7 309.52,-113.38"/>
<polygon fill="#63b8ff" stroke="#63b8ff" points="310.59,-116.32 318.53,-109.29 307.95,-109.84 310.59,-116.32"/>
</g>
<!-- Node15 -->
<g id="node15" class="node">
<title>Node15</title>
<g id="a_node15"><a target="_blank" xlink:href="http://en.cppreference.com/w/cpp/algorithm/swap.html#" xlink:title=" ">
<polygon fill="white" stroke="#666666" points="375.5,-263 316.5,-263 316.5,-244 375.5,-244 375.5,-263"/>
<text text-anchor="middle" x="346" y="-251" font-family="Helvetica,sans-Serif" font-size="10.00">std::swap</text>
</a>
</g>
</g>
<!-- Node11&#45;&gt;Node15 -->
<g id="edge19" class="edge">
<title>Node11&#45;&gt;Node15</title>
<path fill="none" stroke="#63b8ff" d="M246.94,-225.48C264.96,-230.63 286.99,-236.93 305.61,-242.25"/>
<polygon fill="#63b8ff" stroke="#63b8ff" points="304.54,-245.87 315.12,-245.25 306.47,-239.14 304.54,-245.87"/>
</g>
<!-- Node12&#45;&gt;Node8 -->
<g id="edge16" class="edge">
<title>Node12&#45;&gt;Node8</title>
<path fill="none" stroke="#63b8ff" d="M378.43,-187.4C387.21,-191.02 396.41,-195.69 404,-201.5 429.32,-220.88 450.52,-251.56 462.62,-271.36"/>
<polygon fill="#63b8ff" stroke="#63b8ff" points="459.98,-272.78 468.08,-279.6 466.01,-269.21 459.98,-272.78"/>
</g>
<!-- Node16&#45;&gt;Node5 -->
<g id="edge21" class="edge">
<title>Node16&#45;&gt;Node5</title>
<path fill="none" stroke="#63b8ff" d="M121.4,-244.35C125.64,-247.13 130.1,-250.28 134,-253.5 151.7,-268.1 151.21,-277.34 170,-290.5 171.5,-291.55 173.07,-292.56 174.69,-293.54"/>
<polygon fill="#63b8ff" stroke="#63b8ff" points="172.78,-297.02 183.25,-298.64 176.08,-290.84 172.78,-297.02"/>
</g>
<!-- Node16&#45;&gt;Node6 -->
<g id="edge22" class="edge">
<title>Node16&#45;&gt;Node6</title>
<path fill="none" stroke="#63b8ff" d="M123.29,-240.94C137.4,-245.92 157.35,-252.95 174.56,-259.01"/>
<polygon fill="#63b8ff" stroke="#63b8ff" points="173.25,-262.61 183.84,-262.63 175.57,-256.01 173.25,-262.61"/>
</g>
<!-- Node16&#45;&gt;Node11 -->
<g id="edge23" class="edge">
<title>Node16&#45;&gt;Node11</title>
<path fill="none" stroke="#63b8ff" d="M123.29,-231.19C133.67,-229.31 147.22,-226.86 160.51,-224.45"/>
<polygon fill="#63b8ff" stroke="#63b8ff" points="160.83,-227.77 170.05,-222.55 159.59,-220.88 160.83,-227.77"/>
</g>
<!-- Node18 -->
<g id="node18" class="node">
<title>Node18</title>
<g id="a_node18"><a xlink:href="../../dd/d0c/hamiltons__cycle_8cpp.html#abcf824e347eecfeeb69ea0280f34f3e4" target="_top" xlink:title=" ">
<polygon fill="white" stroke="#666666" points="252,-56 170,-56 170,-37 252,-37 252,-56"/>
<text text-anchor="middle" x="211" y="-44" font-family="Helvetica,sans-Serif" font-size="10.00">hamilton_cycle</text>
</a>
</g>
</g>
<!-- Node17&#45;&gt;Node18 -->
<g id="edge25" class="edge">
<title>Node17&#45;&gt;Node18</title>
<path fill="none" stroke="#63b8ff" d="M123.21,-188.13C127.05,-185.65 130.87,-182.74 134,-179.5 166.94,-145.34 190.88,-94.2 202.37,-66.33"/>
<polygon fill="#63b8ff" stroke="#63b8ff" points="205.94,-67.83 206.39,-57.24 199.43,-65.23 205.94,-67.83"/>
</g>
<!-- Node19 -->
<g id="node19" class="node">
<title>Node19</title>
<g id="a_node19"><a xlink:href="../../d8/dee/avltree_8cpp.html#ae4a66d8b0c2b0d626aea45977e358c83" target="_top" xlink:title=" ">
<polygon fill="white" stroke="#666666" points="367.5,-56 324.5,-56 324.5,-37 367.5,-37 367.5,-56"/>
<text text-anchor="middle" x="346" y="-44" font-family="Helvetica,sans-Serif" font-size="10.00">height</text>
</a>
</g>
</g>
<!-- Node18&#45;&gt;Node19 -->
<g id="edge26" class="edge">
<title>Node18&#45;&gt;Node19</title>
<path fill="none" stroke="#63b8ff" d="M252.27,-46.5C271.8,-46.5 294.93,-46.5 313.21,-46.5"/>
<polygon fill="#63b8ff" stroke="#63b8ff" points="313.15,-50 323.15,-46.5 313.15,-43 313.15,-50"/>
</g>
<!-- Node20 -->
<g id="node20" class="node">
<title>Node20</title>
<g id="a_node20"><a target="_blank" xlink:href="http://en.cppreference.com/w/cpp/container/vector/push_back.html#" xlink:title=" ">
<polygon fill="white" stroke="#666666" points="404,-19 288,-19 288,0 404,0 404,-19"/>
<text text-anchor="middle" x="346" y="-7" font-family="Helvetica,sans-Serif" font-size="10.00">std::vector::push_back</text>
</a>
</g>
</g>
<!-- Node18&#45;&gt;Node20 -->
<g id="edge29" class="edge">
<title>Node18&#45;&gt;Node20</title>
<path fill="none" stroke="#63b8ff" d="M247.64,-36.58C263.44,-32.19 282.23,-26.96 299.07,-22.28"/>
<polygon fill="#63b8ff" stroke="#63b8ff" points="299.56,-25.49 308.26,-19.44 297.69,-18.75 299.56,-25.49"/>
</g>
<!-- Node19&#45;&gt;Node13 -->
<g id="edge28" class="edge">
<title>Node19&#45;&gt;Node13</title>
<path fill="none" stroke="#63b8ff" d="M367.89,-54.26C386.55,-61.19 414.31,-71.51 436.69,-79.82"/>
<polygon fill="#63b8ff" stroke="#63b8ff" points="435.26,-83.4 445.86,-83.6 437.7,-76.84 435.26,-83.4"/>
</g>
<!-- Node19&#45;&gt;Node19 -->
<g id="edge27" class="edge">
<title>Node19&#45;&gt;Node19</title>
<path fill="none" stroke="#63b8ff" d="M325.88,-56.37C316.71,-64.94 323.41,-74 346,-74 359.06,-74 366.81,-70.97 369.25,-66.76"/>
<polygon fill="#63b8ff" stroke="#63b8ff" points="372.36,-65.93 366.12,-57.37 365.65,-67.95 372.36,-65.93"/>
</g>
</g>
</svg>
        <g id="navigator" transform="translate(0 0)" fill="#404254">
                <rect fill="#f2f5e9" fill-opacity="0.5" stroke="#606060" stroke-width=".5" x="0" y="0" width="60" height="60"/>
                <use id="zoomplus" xlink:href="#zoomPlus" x="17" y="9" onmousedown="handleZoom(evt,'in')"/>
                <use id="zoomminus" xlink:href="#zoomMin" x="42" y="9" onmousedown="handleZoom(evt,'out')"/>
                <use id="reset" xlink:href="#resetDef" x="30" y="36" onmousedown="handleReset()"/>
                <g id="arrowUp" xlink:href="#dirArrow" transform="translate(30 24)" onmousedown="handlePan(0,-1)">
                  <use xlink:href="#rim" fill="#404040">
                        <set attributeName="fill" to="#808080" begin="arrowUp.mouseover" end="arrowUp.mouseout"/>
                  </use>
                  <path fill="none" stroke="white" stroke-width="1.5" d="M0,-3.0v7 M-2.5,-0.5L0,-3.0L2.5,-0.5"/>
                </g>
                <g id="arrowRight" xlink:href="#dirArrow" transform="rotate(90) translate(36 -43)" onmousedown="handlePan(1,0)">
                  <use xlink:href="#rim" fill="#404040">
                        <set attributeName="fill" to="#808080" begin="arrowRight.mouseover" end="arrowRight.mouseout"/>
                  </use>
                  <path fill="none" stroke="white" stroke-width="1.5" d="M0,-3.0v7 M-2.5,-0.5L0,-3.0L2.5,-0.5"/>
                </g>
                <g id="arrowDown" xlink:href="#dirArrow" transform="rotate(180) translate(-30 -48)" onmousedown="handlePan(0,1)">
                  <use xlink:href="#rim" fill="#404040">
                        <set attributeName="fill" to="#808080" begin="arrowDown.mouseover" end="arrowDown.mouseout"/>
                  </use>
                  <path fill="none" stroke="white" stroke-width="1.5" d="M0,-3.0v7 M-2.5,-0.5L0,-3.0L2.5,-0.5"/>
                </g>
                <g id="arrowLeft" xlink:href="#dirArrow" transform="rotate(270) translate(-36 17)" onmousedown="handlePan(-1,0)">
                  <use xlink:href="#rim" fill="#404040">
                        <set attributeName="fill" to="#808080" begin="arrowLeft.mouseover" end="arrowLeft.mouseout"/>
                  </use>
                  <path fill="none" stroke="white" stroke-width="1.5" d="M0,-3.0v7 M-2.5,-0.5L0,-3.0L2.5,-0.5"/>
                </g>
        </g>
        <svg viewBox="0 0 15 15" width="100%" height="30px" preserveAspectRatio="xMaxYMin meet">
         <g id="arrow_out" transform="scale(0.3 0.3)">
          <a xlink:href="adaline__learning_8cpp_a3c04138a5bfe5d72780bb7e82a18e627_cgraph_org.svg" target="_base">
           <rect id="button" ry="5" rx="5" y="6" x="6" height="38" width="38"
                fill="#f2f5e9" fill-opacity="0.5" stroke="#606060" stroke-width="1.0"/>
           <path id="arrow"
             d="M 11.500037,31.436501 C 11.940474,20.09759 22.043105,11.32322 32.158766,21.979434 L 37.068811,17.246167 C 37.068811,17.246167 37.088388,32 37.088388,32 L 22.160133,31.978069 C 22.160133,31.978069 26.997745,27.140456 26.997745,27.140456 C 18.528582,18.264221 13.291696,25.230495 11.500037,31.436501 z"
             style="fill:#404040;"/>
          </a>
         </g>
        </svg>
</svg>
