<?xml version="1.0" encoding="UTF-8" standalone="no"?>
<!DOCTYPE svg PUBLIC "-//W3C//DTD SVG 1.1//EN"
 "http://www.w3.org/Graphics/SVG/1.1/DTD/svg11.dtd">
<!-- Generated by graphviz version 8.0.2 (20230410.1723)
 -->
<!-- Title: divide_and_conquer::karatsuba_algorithm::karatsuba_algorithm Pages: 1 -->
<svg width="384pt" height="180pt"
 viewBox="0.00 0.00 384.00 180.00" xmlns="http://www.w3.org/2000/svg" xmlns:xlink="http://www.w3.org/1999/xlink">
<g id="graph0" class="graph" transform="scale(1 1) rotate(0) translate(4 176)">
<title>divide_and_conquer::karatsuba_algorithm::karatsuba_algorithm</title>
<!-- Node1 -->
<g id="node1" class="node">
<title>Node1</title>
<g id="a_node1"><a xlink:title="The main function implements Karatsuba&#39;s algorithm for fast multiplication.">
<polygon fill="#999999" stroke="#666666" points="110,-92 0,-92 0,-51 110,-51 110,-92"/>
<text text-anchor="start" x="8" y="-80" font-family="Helvetica,sans-Serif" font-size="10.00">divide_and_conquer</text>
<text text-anchor="start" x="8" y="-69" font-family="Helvetica,sans-Serif" font-size="10.00">::karatsuba_algorithm</text>
<text text-anchor="middle" x="55" y="-58" font-family="Helvetica,sans-Serif" font-size="10.00">::karatsuba_algorithm</text>
</a>
</g>
</g>
<!-- Node2 -->
<g id="node2" class="node">
<title>Node2</title>
<g id="a_node2"><a xlink:href="../../da/dd3/karatsuba__algorithm__for__fast__multiplication_8cpp.html#a7d1dbae365c7746295d3322e6f7f80b6" target="_top" xlink:title="Helper function for the main function, that implements Karatsuba&#39;s algorithm for fast multiplication.">
<polygon fill="white" stroke="#666666" points="256,-117 146,-117 146,-76 256,-76 256,-117"/>
<text text-anchor="start" x="154" y="-105" font-family="Helvetica,sans-Serif" font-size="10.00">divide_and_conquer</text>
<text text-anchor="start" x="154" y="-94" font-family="Helvetica,sans-Serif" font-size="10.00">::karatsuba_algorithm</text>
<text text-anchor="middle" x="201" y="-83" font-family="Helvetica,sans-Serif" font-size="10.00">::addStrings</text>
</a>
</g>
</g>
<!-- Node1&#45;&gt;Node2 -->
<g id="edge1" class="edge">
<title>Node1&#45;&gt;Node2</title>
<path fill="none" stroke="#63b8ff" d="M110.44,-80.95C118.53,-82.36 126.93,-83.81 135.2,-85.25"/>
<polygon fill="#63b8ff" stroke="#63b8ff" points="134.51,-88.86 144.96,-87.12 135.71,-81.96 134.51,-88.86"/>
</g>
<!-- Node4 -->
<g id="node4" class="node">
<title>Node4</title>
<g id="a_node4"><a target="_blank" xlink:href="http://en.cppreference.com/w/cpp/algorithm/max.html#" xlink:title=" ">
<polygon fill="white" stroke="#666666" points="361.5,-172 306.5,-172 306.5,-153 361.5,-153 361.5,-172"/>
<text text-anchor="middle" x="334" y="-160" font-family="Helvetica,sans-Serif" font-size="10.00">std::max</text>
</a>
</g>
</g>
<!-- Node1&#45;&gt;Node4 -->
<g id="edge7" class="edge">
<title>Node1&#45;&gt;Node4</title>
<path fill="none" stroke="#63b8ff" d="M75.22,-92.47C92.09,-109.38 118.22,-132.14 146,-143.5 194.8,-163.45 256.48,-165.78 295.35,-164.79"/>
<polygon fill="#63b8ff" stroke="#63b8ff" points="295.29,-168.26 305.16,-164.42 295.04,-161.27 295.29,-168.26"/>
</g>
<!-- Node5 -->
<g id="node5" class="node">
<title>Node5</title>
<g id="a_node5"><a target="_blank" xlink:href="http://en.cppreference.com/w/cpp/string/basic_string/size.html#" xlink:title=" ">
<polygon fill="white" stroke="#666666" points="376,-59 292,-59 292,-40 376,-40 376,-59"/>
<text text-anchor="middle" x="334" y="-47" font-family="Helvetica,sans-Serif" font-size="10.00">std::string::size</text>
</a>
</g>
</g>
<!-- Node1&#45;&gt;Node5 -->
<g id="edge8" class="edge">
<title>Node1&#45;&gt;Node5</title>
<path fill="none" stroke="#63b8ff" d="M110.4,-67.18C159.8,-63.26 232.19,-57.51 280.87,-53.64"/>
<polygon fill="#63b8ff" stroke="#63b8ff" points="281.11,-57.05 290.8,-52.77 280.55,-50.08 281.11,-57.05"/>
</g>
<!-- Node7 -->
<g id="node7" class="node">
<title>Node7</title>
<g id="a_node7"><a target="_blank" xlink:href="http://en.cppreference.com/w/cpp/string/basic_string/substr.html#" xlink:title=" ">
<polygon fill="white" stroke="#666666" points="247.5,-19 154.5,-19 154.5,0 247.5,0 247.5,-19"/>
<text text-anchor="middle" x="201" y="-7" font-family="Helvetica,sans-Serif" font-size="10.00">std::string::substr</text>
</a>
</g>
</g>
<!-- Node1&#45;&gt;Node7 -->
<g id="edge9" class="edge">
<title>Node1&#45;&gt;Node7</title>
<path fill="none" stroke="#63b8ff" d="M104.75,-50.51C125.31,-41.66 148.7,-31.59 167.16,-23.64"/>
<polygon fill="#63b8ff" stroke="#63b8ff" points="168.32,-26.52 176.12,-19.35 165.55,-20.09 168.32,-26.52"/>
</g>
<!-- Node2&#45;&gt;Node2 -->
<g id="edge2" class="edge">
<title>Node2&#45;&gt;Node2</title>
<path fill="none" stroke="#63b8ff" d="M176.45,-117.49C174.11,-126.88 182.3,-135 201,-135 212.1,-135 219.5,-132.14 223.19,-127.85"/>
<polygon fill="#63b8ff" stroke="#63b8ff" points="226.74,-129.02 225.55,-118.49 219.91,-127.46 226.74,-129.02"/>
</g>
<!-- Node3 -->
<g id="node3" class="node">
<title>Node3</title>
<g id="a_node3"><a target="_blank" xlink:href="http://en.cppreference.com/w/cpp/string/basic_string/at.html#" xlink:title=" ">
<polygon fill="white" stroke="#666666" points="371,-134 297,-134 297,-115 371,-115 371,-134"/>
<text text-anchor="middle" x="334" y="-122" font-family="Helvetica,sans-Serif" font-size="10.00">std::string::at</text>
</a>
</g>
</g>
<!-- Node2&#45;&gt;Node3 -->
<g id="edge3" class="edge">
<title>Node2&#45;&gt;Node3</title>
<path fill="none" stroke="#63b8ff" d="M256.42,-108.13C266.33,-110.25 276.58,-112.44 286.25,-114.51"/>
<polygon fill="#63b8ff" stroke="#63b8ff" points="285.34,-118.11 295.85,-116.77 286.81,-111.26 285.34,-118.11"/>
</g>
<!-- Node2&#45;&gt;Node4 -->
<g id="edge4" class="edge">
<title>Node2&#45;&gt;Node4</title>
<path fill="none" stroke="#63b8ff" d="M242.69,-117.5C258.1,-125.4 275.83,-134.42 292,-142.5 295.54,-144.27 299.26,-146.11 302.95,-147.92"/>
<polygon fill="#63b8ff" stroke="#63b8ff" points="301,-151.36 311.53,-152.61 304.08,-145.07 301,-151.36"/>
</g>
<!-- Node2&#45;&gt;Node5 -->
<g id="edge5" class="edge">
<title>Node2&#45;&gt;Node5</title>
<path fill="none" stroke="#63b8ff" d="M256.42,-76.98C269.47,-72.29 283.12,-67.4 295.22,-63.05"/>
<polygon fill="#63b8ff" stroke="#63b8ff" points="296.18,-66.07 304.41,-59.4 293.81,-59.48 296.18,-66.07"/>
</g>
<!-- Node6 -->
<g id="node6" class="node">
<title>Node6</title>
<g id="a_node6"><a target="_blank" xlink:href="http://en.cppreference.com/w/cpp/string/basic_string/to_string.html#" xlink:title=" ">
<polygon fill="white" stroke="#666666" points="371,-97 297,-97 297,-78 371,-78 371,-97"/>
<text text-anchor="middle" x="334" y="-85" font-family="Helvetica,sans-Serif" font-size="10.00">std::to_string</text>
</a>
</g>
</g>
<!-- Node2&#45;&gt;Node6 -->
<g id="edge6" class="edge">
<title>Node2&#45;&gt;Node6</title>
<path fill="none" stroke="#63b8ff" d="M256.42,-92.76C266.22,-92.09 276.36,-91.39 285.93,-90.73"/>
<polygon fill="#63b8ff" stroke="#63b8ff" points="286.12,-94.16 295.85,-89.98 285.64,-87.18 286.12,-94.16"/>
</g>
</g>
</svg>
