<?xml version="1.0" encoding="UTF-8" standalone="no"?>
<!DOCTYPE svg PUBLIC "-//W3C//DTD SVG 1.1//EN"
 "http://www.w3.org/Graphics/SVG/1.1/DTD/svg11.dtd">
<!-- Generated by graphviz version 8.0.2 (20230410.1723)
 -->
<!-- Title: divide_and_conquer::karatsuba_algorithm::addStrings Pages: 1 -->
<svg width="238pt" height="138pt"
 viewBox="0.00 0.00 238.00 138.00" xmlns="http://www.w3.org/2000/svg" xmlns:xlink="http://www.w3.org/1999/xlink">
<g id="graph0" class="graph" transform="scale(1 1) rotate(0) translate(4 134)">
<title>divide_and_conquer::karatsuba_algorithm::addStrings</title>
<!-- Node1 -->
<g id="node1" class="node">
<title>Node1</title>
<g id="a_node1"><a xlink:title="Helper function for the main function, that implements Karatsuba&#39;s algorithm for fast multiplication.">
<polygon fill="#999999" stroke="#666666" points="110,-85 0,-85 0,-44 110,-44 110,-85"/>
<text text-anchor="start" x="8" y="-73" font-family="Helvetica,sans-Serif" font-size="10.00">divide_and_conquer</text>
<text text-anchor="start" x="8" y="-62" font-family="Helvetica,sans-Serif" font-size="10.00">::karatsuba_algorithm</text>
<text text-anchor="middle" x="55" y="-51" font-family="Helvetica,sans-Serif" font-size="10.00">::addStrings</text>
</a>
</g>
</g>
<!-- Node1&#45;&gt;Node1 -->
<g id="edge1" class="edge">
<title>Node1&#45;&gt;Node1</title>
<path fill="none" stroke="#63b8ff" d="M30.45,-85.49C28.11,-94.88 36.3,-103 55,-103 66.1,-103 73.5,-100.14 77.19,-95.85"/>
<polygon fill="#63b8ff" stroke="#63b8ff" points="80.74,-97.02 79.55,-86.49 73.91,-95.46 80.74,-97.02"/>
</g>
<!-- Node2 -->
<g id="node2" class="node">
<title>Node2</title>
<g id="a_node2"><a target="_blank" xlink:href="http://en.cppreference.com/w/cpp/string/basic_string/at.html#" xlink:title=" ">
<polygon fill="white" stroke="#666666" points="225,-130 151,-130 151,-111 225,-111 225,-130"/>
<text text-anchor="middle" x="188" y="-118" font-family="Helvetica,sans-Serif" font-size="10.00">std::string::at</text>
</a>
</g>
</g>
<!-- Node1&#45;&gt;Node2 -->
<g id="edge2" class="edge">
<title>Node1&#45;&gt;Node2</title>
<path fill="none" stroke="#63b8ff" d="M104.78,-85.35C121.21,-92.38 139.15,-100.04 154.06,-106.42"/>
<polygon fill="#63b8ff" stroke="#63b8ff" points="152.28,-109.89 162.85,-110.6 155.03,-103.45 152.28,-109.89"/>
</g>
<!-- Node3 -->
<g id="node3" class="node">
<title>Node3</title>
<g id="a_node3"><a target="_blank" xlink:href="http://en.cppreference.com/w/cpp/algorithm/max.html#" xlink:title=" ">
<polygon fill="white" stroke="#666666" points="215.5,-93 160.5,-93 160.5,-74 215.5,-74 215.5,-93"/>
<text text-anchor="middle" x="188" y="-81" font-family="Helvetica,sans-Serif" font-size="10.00">std::max</text>
</a>
</g>
</g>
<!-- Node1&#45;&gt;Node3 -->
<g id="edge3" class="edge">
<title>Node1&#45;&gt;Node3</title>
<path fill="none" stroke="#63b8ff" d="M110.42,-72.39C123.55,-74.3 137.29,-76.29 149.46,-78.05"/>
<polygon fill="#63b8ff" stroke="#63b8ff" points="148.72,-81.63 159.12,-79.6 149.72,-74.7 148.72,-81.63"/>
</g>
<!-- Node4 -->
<g id="node4" class="node">
<title>Node4</title>
<g id="a_node4"><a target="_blank" xlink:href="http://en.cppreference.com/w/cpp/string/basic_string/size.html#" xlink:title=" ">
<polygon fill="white" stroke="#666666" points="230,-56 146,-56 146,-37 230,-37 230,-56"/>
<text text-anchor="middle" x="188" y="-44" font-family="Helvetica,sans-Serif" font-size="10.00">std::string::size</text>
</a>
</g>
</g>
<!-- Node1&#45;&gt;Node4 -->
<g id="edge4" class="edge">
<title>Node1&#45;&gt;Node4</title>
<path fill="none" stroke="#63b8ff" d="M110.42,-57.02C118.54,-55.91 126.89,-54.76 134.96,-53.65"/>
<polygon fill="#63b8ff" stroke="#63b8ff" points="135.31,-57 144.74,-52.17 134.35,-50.06 135.31,-57"/>
</g>
<!-- Node5 -->
<g id="node5" class="node">
<title>Node5</title>
<g id="a_node5"><a target="_blank" xlink:href="http://en.cppreference.com/w/cpp/string/basic_string/to_string.html#" xlink:title=" ">
<polygon fill="white" stroke="#666666" points="225,-19 151,-19 151,0 225,0 225,-19"/>
<text text-anchor="middle" x="188" y="-7" font-family="Helvetica,sans-Serif" font-size="10.00">std::to_string</text>
</a>
</g>
</g>
<!-- Node1&#45;&gt;Node5 -->
<g id="edge5" class="edge">
<title>Node1&#45;&gt;Node5</title>
<path fill="none" stroke="#63b8ff" d="M105.9,-43.55C121.73,-36.91 138.84,-29.72 153.25,-23.67"/>
<polygon fill="#63b8ff" stroke="#63b8ff" points="154.35,-26.59 162.21,-19.49 151.64,-20.13 154.35,-26.59"/>
</g>
</g>
</svg>
