<?xml version="1.0" encoding="UTF-8" standalone="no"?>
<!DOCTYPE svg PUBLIC "-//W3C//DTD SVG 1.1//EN"
 "http://www.w3.org/Graphics/SVG/1.1/DTD/svg11.dtd">
<!-- Generated by graphviz version 8.0.2 (20230410.1723)
 -->
<!-- Title: main Pages: 1 -->
<svg width="459pt" height="298pt"
 viewBox="0.00 0.00 459.00 298.00" xmlns="http://www.w3.org/2000/svg" xmlns:xlink="http://www.w3.org/1999/xlink">
<g id="graph0" class="graph" transform="scale(1 1) rotate(0) translate(4 294)">
<title>main</title>
<!-- Node1 -->
<g id="node1" class="node">
<title>Node1</title>
<g id="a_node1"><a xlink:title="Main function.">
<polygon fill="#999999" stroke="#666666" points="38,-148 0,-148 0,-129 38,-129 38,-148"/>
<text text-anchor="middle" x="19" y="-136" font-family="Helvetica,sans-Serif" font-size="10.00">main</text>
</a>
</g>
</g>
<!-- Node2 -->
<g id="node2" class="node">
<title>Node2</title>
<g id="a_node2"><a xlink:href="../../da/d39/volume_8cpp.html#aa8dca7b867074164d5f45b0f3851269d" target="_top" xlink:title="Self&#45;test implementations.">
<polygon fill="white" stroke="#666666" points="107,-148 74,-148 74,-129 107,-129 107,-148"/>
<text text-anchor="middle" x="90.5" y="-136" font-family="Helvetica,sans-Serif" font-size="10.00">test</text>
</a>
</g>
</g>
<!-- Node1&#45;&gt;Node2 -->
<g id="edge1" class="edge">
<title>Node1&#45;&gt;Node2</title>
<path fill="none" stroke="#63b8ff" d="M38.26,-138.5C45.89,-138.5 54.9,-138.5 63.23,-138.5"/>
<polygon fill="#63b8ff" stroke="#63b8ff" points="62.95,-142 72.95,-138.5 62.95,-135 62.95,-142"/>
</g>
<!-- Node3 -->
<g id="node3" class="node">
<title>Node3</title>
<g id="a_node3"><a xlink:href="../../dd/d47/namespacemath.html#a3fe35440c27758ecc2287e08217d63a7" target="_top" xlink:title="The volume of a cone">
<polygon fill="white" stroke="#666666" points="257.5,-167 155.5,-167 155.5,-148 257.5,-148 257.5,-167"/>
<text text-anchor="middle" x="206.5" y="-155" font-family="Helvetica,sans-Serif" font-size="10.00">math::cone_volume</text>
</a>
</g>
</g>
<!-- Node2&#45;&gt;Node3 -->
<g id="edge2" class="edge">
<title>Node2&#45;&gt;Node3</title>
<path fill="none" stroke="#63b8ff" d="M107.35,-141.14C117.3,-142.8 130.82,-145.05 144.65,-147.36"/>
<polygon fill="#63b8ff" stroke="#63b8ff" points="143.79,-150.93 154.23,-149.12 144.94,-144.02 143.79,-150.93"/>
</g>
<!-- Node7 -->
<g id="node7" class="node">
<title>Node7</title>
<g id="a_node7"><a xlink:href="../../dd/d47/namespacemath.html#ae413098478fa38acaac887b7654f0725" target="_top" xlink:title="The volume of a cube">
<polygon fill="white" stroke="#666666" points="257.5,-93 155.5,-93 155.5,-74 257.5,-74 257.5,-93"/>
<text text-anchor="middle" x="206.5" y="-81" font-family="Helvetica,sans-Serif" font-size="10.00">math::cube_volume</text>
</a>
</g>
</g>
<!-- Node2&#45;&gt;Node7 -->
<g id="edge7" class="edge">
<title>Node2&#45;&gt;Node7</title>
<path fill="none" stroke="#63b8ff" d="M102.64,-128.76C112.61,-120.48 127.94,-108.8 143,-101.5 146.3,-99.9 149.77,-98.41 153.31,-97.04"/>
<polygon fill="#63b8ff" stroke="#63b8ff" points="154.15,-100.11 162.41,-93.47 151.81,-93.51 154.15,-100.11"/>
</g>
<!-- Node8 -->
<g id="node8" class="node">
<title>Node8</title>
<g id="a_node8"><a xlink:href="../../dd/d47/namespacemath.html#abde24398be43538c62e4a496968e60ca" target="_top" xlink:title="The volume of a cylinder">
<polygon fill="white" stroke="#666666" points="264,-130 149,-130 149,-111 264,-111 264,-130"/>
<text text-anchor="middle" x="206.5" y="-118" font-family="Helvetica,sans-Serif" font-size="10.00">math::cylinder_volume</text>
</a>
</g>
</g>
<!-- Node2&#45;&gt;Node8 -->
<g id="edge9" class="edge">
<title>Node2&#45;&gt;Node8</title>
<path fill="none" stroke="#63b8ff" d="M107.35,-136C115.69,-134.68 126.54,-132.97 137.98,-131.16"/>
<polygon fill="#63b8ff" stroke="#63b8ff" points="138.26,-134.5 147.59,-129.49 137.17,-127.59 138.26,-134.5"/>
</g>
<!-- Node9 -->
<g id="node9" class="node">
<title>Node9</title>
<g id="a_node9"><a target="_blank" xlink:href="http://en.cppreference.com/w/cpp/io/manip/endl.html#" xlink:title=" ">
<polygon fill="white" stroke="#666666" points="233.5,-19 179.5,-19 179.5,0 233.5,0 233.5,-19"/>
<text text-anchor="middle" x="206.5" y="-7" font-family="Helvetica,sans-Serif" font-size="10.00">std::endl</text>
</a>
</g>
</g>
<!-- Node2&#45;&gt;Node9 -->
<g id="edge12" class="edge">
<title>Node2&#45;&gt;Node9</title>
<path fill="none" stroke="#63b8ff" d="M93.25,-128.53C97.58,-106.82 110.9,-55.01 143,-27.5 150.21,-21.32 159.43,-17.26 168.56,-14.59"/>
<polygon fill="#63b8ff" stroke="#63b8ff" points="169.2,-17.8 178.1,-12.05 167.56,-10.99 169.2,-17.8"/>
</g>
<!-- Node10 -->
<g id="node10" class="node">
<title>Node10</title>
<g id="a_node10"><a xlink:href="../../dd/d47/namespacemath.html#a94db02b3c9e55a69ac1696f30e2f761c" target="_top" xlink:title="The volume of a pyramid">
<polygon fill="white" stroke="#666666" points="264.5,-290 148.5,-290 148.5,-271 264.5,-271 264.5,-290"/>
<text text-anchor="middle" x="206.5" y="-278" font-family="Helvetica,sans-Serif" font-size="10.00">math::pyramid_volume</text>
</a>
</g>
</g>
<!-- Node2&#45;&gt;Node10 -->
<g id="edge13" class="edge">
<title>Node2&#45;&gt;Node10</title>
<path fill="none" stroke="#63b8ff" d="M92.67,-148.19C96,-171.48 107.7,-230.99 143,-262.5 144.02,-263.41 145.08,-264.27 146.18,-265.09"/>
<polygon fill="#63b8ff" stroke="#63b8ff" points="143.85,-268.38 154.22,-270.57 147.48,-262.39 143.85,-268.38"/>
</g>
<!-- Node11 -->
<g id="node11" class="node">
<title>Node11</title>
<g id="a_node11"><a xlink:href="../../dd/d47/namespacemath.html#a3fdc74c24697ec5bb5c3698c96117c12" target="_top" xlink:title="The volume of a rectangular prism.">
<polygon fill="white" stroke="#666666" points="270,-253 143,-253 143,-234 270,-234 270,-253"/>
<text text-anchor="middle" x="206.5" y="-241" font-family="Helvetica,sans-Serif" font-size="10.00">math::rect_prism_volume</text>
</a>
</g>
</g>
<!-- Node2&#45;&gt;Node11 -->
<g id="edge15" class="edge">
<title>Node2&#45;&gt;Node11</title>
<path fill="none" stroke="#63b8ff" d="M94.71,-148.36C101.03,-166.24 116.81,-204.04 143,-224.5 144.92,-226 146.97,-227.39 149.09,-228.66"/>
<polygon fill="#63b8ff" stroke="#63b8ff" points="147.36,-232.21 157.86,-233.59 150.51,-225.96 147.36,-232.21"/>
</g>
<!-- Node12 -->
<g id="node12" class="node">
<title>Node12</title>
<g id="a_node12"><a xlink:href="../../dd/d47/namespacemath.html#a34d66a77c19ce9b8b3a3d14352b34551" target="_top" xlink:title="The volume of a sphere">
<polygon fill="white" stroke="#666666" points="261.5,-56 151.5,-56 151.5,-37 261.5,-37 261.5,-56"/>
<text text-anchor="middle" x="206.5" y="-44" font-family="Helvetica,sans-Serif" font-size="10.00">math::sphere_volume</text>
</a>
</g>
</g>
<!-- Node2&#45;&gt;Node12 -->
<g id="edge17" class="edge">
<title>Node2&#45;&gt;Node12</title>
<path fill="none" stroke="#63b8ff" d="M95.64,-128.73C102.87,-112.84 119.33,-81.45 143,-64.5 144.69,-63.29 146.45,-62.16 148.28,-61.11"/>
<polygon fill="#63b8ff" stroke="#63b8ff" points="149.37,-63.99 156.82,-56.45 146.29,-57.7 149.37,-63.99"/>
</g>
<!-- Node13 -->
<g id="node13" class="node">
<title>Node13</title>
<g id="a_node13"><a xlink:href="../../dd/d47/namespacemath.html#a2d704a7b72a6b2db8b76c8581b577b2c" target="_top" xlink:title="The volume of a triangular prism.">
<polygon fill="white" stroke="#666666" points="259,-215.5 154,-215.5 154,-185.5 259,-185.5 259,-215.5"/>
<text text-anchor="start" x="162" y="-203.5" font-family="Helvetica,sans-Serif" font-size="10.00">math::triangle_prism</text>
<text text-anchor="middle" x="206.5" y="-192.5" font-family="Helvetica,sans-Serif" font-size="10.00">_volume</text>
</a>
</g>
</g>
<!-- Node2&#45;&gt;Node13 -->
<g id="edge19" class="edge">
<title>Node2&#45;&gt;Node13</title>
<path fill="none" stroke="#63b8ff" d="M103.23,-148.19C113.33,-156.22 128.52,-167.56 143,-175.5 146.22,-177.27 149.6,-178.98 153.04,-180.62"/>
<polygon fill="#63b8ff" stroke="#63b8ff" points="151.28,-184.12 161.83,-185.05 154.16,-177.74 151.28,-184.12"/>
</g>
<!-- Node4 -->
<g id="node4" class="node">
<title>Node4</title>
<g id="a_node4"><a xlink:href="../../d8/dee/avltree_8cpp.html#ae4a66d8b0c2b0d626aea45977e358c83" target="_top" xlink:title=" ">
<polygon fill="white" stroke="#666666" points="354.5,-210 311.5,-210 311.5,-191 354.5,-191 354.5,-210"/>
<text text-anchor="middle" x="333" y="-198" font-family="Helvetica,sans-Serif" font-size="10.00">height</text>
</a>
</g>
</g>
<!-- Node3&#45;&gt;Node4 -->
<g id="edge3" class="edge">
<title>Node3&#45;&gt;Node4</title>
<path fill="none" stroke="#63b8ff" d="M242.03,-167.5C251.17,-170.28 260.99,-173.39 270,-176.5 280.18,-180.01 291.17,-184.15 301.03,-187.99"/>
<polygon fill="#63b8ff" stroke="#63b8ff" points="299.61,-191.59 310.19,-192 302.17,-185.08 299.61,-191.59"/>
</g>
<!-- Node6 -->
<g id="node6" class="node">
<title>Node6</title>
<g id="a_node6"><a target="_blank" xlink:href="http://en.cppreference.com/w/cpp/numeric/math/pow.html#" xlink:title=" ">
<polygon fill="white" stroke="#666666" points="360,-112 306,-112 306,-93 360,-93 360,-112"/>
<text text-anchor="middle" x="333" y="-100" font-family="Helvetica,sans-Serif" font-size="10.00">std::pow</text>
</a>
</g>
</g>
<!-- Node3&#45;&gt;Node6 -->
<g id="edge6" class="edge">
<title>Node3&#45;&gt;Node6</title>
<path fill="none" stroke="#63b8ff" d="M245.35,-147.53C253.61,-144.93 262.2,-141.9 270,-138.5 283.06,-132.81 296.84,-125.01 308.08,-118.13"/>
<polygon fill="#63b8ff" stroke="#63b8ff" points="309.62,-120.67 316.22,-112.39 305.89,-114.74 309.62,-120.67"/>
</g>
<!-- Node4&#45;&gt;Node4 -->
<g id="edge4" class="edge">
<title>Node4&#45;&gt;Node4</title>
<path fill="none" stroke="#63b8ff" d="M318.83,-210.37C312.37,-218.94 317.09,-228 333,-228 341.95,-228 347.36,-225.13 349.23,-221.1"/>
<polygon fill="#63b8ff" stroke="#63b8ff" points="352.49,-220.53 347.17,-211.37 345.62,-221.85 352.49,-220.53"/>
</g>
<!-- Node5 -->
<g id="node5" class="node">
<title>Node5</title>
<g id="a_node5"><a target="_blank" xlink:href="http://en.cppreference.com/w/cpp/algorithm/max.html#" xlink:title=" ">
<polygon fill="white" stroke="#666666" points="451,-210 396,-210 396,-191 451,-191 451,-210"/>
<text text-anchor="middle" x="423.5" y="-198" font-family="Helvetica,sans-Serif" font-size="10.00">std::max</text>
</a>
</g>
</g>
<!-- Node4&#45;&gt;Node5 -->
<g id="edge5" class="edge">
<title>Node4&#45;&gt;Node5</title>
<path fill="none" stroke="#63b8ff" d="M354.97,-200.5C363.91,-200.5 374.61,-200.5 384.83,-200.5"/>
<polygon fill="#63b8ff" stroke="#63b8ff" points="384.63,-204 394.63,-200.5 384.63,-197 384.63,-204"/>
</g>
<!-- Node7&#45;&gt;Node6 -->
<g id="edge8" class="edge">
<title>Node7&#45;&gt;Node6</title>
<path fill="none" stroke="#63b8ff" d="M257.78,-91.17C270.26,-93.08 283.4,-95.08 295.11,-96.87"/>
<polygon fill="#63b8ff" stroke="#63b8ff" points="294.4,-100.46 304.82,-98.5 295.46,-93.54 294.4,-100.46"/>
</g>
<!-- Node8&#45;&gt;Node4 -->
<g id="edge10" class="edge">
<title>Node8&#45;&gt;Node4</title>
<path fill="none" stroke="#63b8ff" d="M252.36,-130.41C258.5,-132.62 264.55,-135.29 270,-138.5 289.15,-149.79 306.62,-168.37 318.1,-182.25"/>
<polygon fill="#63b8ff" stroke="#63b8ff" points="315.77,-183.94 324.74,-189.57 321.24,-179.57 315.77,-183.94"/>
</g>
<!-- Node8&#45;&gt;Node6 -->
<g id="edge11" class="edge">
<title>Node8&#45;&gt;Node6</title>
<path fill="none" stroke="#63b8ff" d="M264.29,-112.29C274.7,-110.78 285.33,-109.25 294.98,-107.85"/>
<polygon fill="#63b8ff" stroke="#63b8ff" points="295.39,-111.18 304.79,-106.29 294.39,-104.26 295.39,-111.18"/>
</g>
<!-- Node10&#45;&gt;Node4 -->
<g id="edge14" class="edge">
<title>Node10&#45;&gt;Node4</title>
<path fill="none" stroke="#63b8ff" d="M252.36,-270.59C258.5,-268.38 264.55,-265.71 270,-262.5 289.15,-251.21 306.62,-232.63 318.1,-218.75"/>
<polygon fill="#63b8ff" stroke="#63b8ff" points="321.24,-221.43 324.74,-211.43 315.77,-217.06 321.24,-221.43"/>
</g>
<!-- Node11&#45;&gt;Node4 -->
<g id="edge16" class="edge">
<title>Node11&#45;&gt;Node4</title>
<path fill="none" stroke="#63b8ff" d="M242.03,-233.5C251.17,-230.72 260.99,-227.61 270,-224.5 280.18,-220.99 291.17,-216.85 301.03,-213.01"/>
<polygon fill="#63b8ff" stroke="#63b8ff" points="302.17,-215.92 310.19,-209 299.61,-209.41 302.17,-215.92"/>
</g>
<!-- Node12&#45;&gt;Node6 -->
<g id="edge18" class="edge">
<title>Node12&#45;&gt;Node6</title>
<path fill="none" stroke="#63b8ff" d="M248.08,-56.46C255.5,-58.76 263.08,-61.45 270,-64.5 283.72,-70.55 298.05,-79.16 309.48,-86.66"/>
<polygon fill="#63b8ff" stroke="#63b8ff" points="307.06,-89.93 317.31,-92.61 310.97,-84.12 307.06,-89.93"/>
</g>
<!-- Node13&#45;&gt;Node4 -->
<g id="edge20" class="edge">
<title>Node13&#45;&gt;Node4</title>
<path fill="none" stroke="#63b8ff" d="M259.22,-200.5C273.23,-200.5 287.98,-200.5 300.51,-200.5"/>
<polygon fill="#63b8ff" stroke="#63b8ff" points="300.31,-204 310.31,-200.5 300.31,-197 300.31,-204"/>
</g>
</g>
</svg>
