<?xml version="1.0" encoding="UTF-8" standalone="no"?>
<!DOCTYPE svg PUBLIC "-//W3C//DTD SVG 1.1//EN"
 "http://www.w3.org/Graphics/SVG/1.1/DTD/svg11.dtd">
<!-- Generated by graphviz version 8.0.2 (20230410.1723)
 -->
<!-- Title: test Pages: 1 -->
<svg width="385pt" height="298pt"
 viewBox="0.00 0.00 385.00 298.00" xmlns="http://www.w3.org/2000/svg" xmlns:xlink="http://www.w3.org/1999/xlink">
<g id="graph0" class="graph" transform="scale(1 1) rotate(0) translate(4 294)">
<title>test</title>
<!-- Node1 -->
<g id="node1" class="node">
<title>Node1</title>
<g id="a_node1"><a xlink:title="Self&#45;test implementations.">
<polygon fill="#999999" stroke="#666666" points="33,-148 0,-148 0,-129 33,-129 33,-148"/>
<text text-anchor="middle" x="16.5" y="-136" font-family="Helvetica,sans-Serif" font-size="10.00">test</text>
</a>
</g>
</g>
<!-- Node2 -->
<g id="node2" class="node">
<title>Node2</title>
<g id="a_node2"><a xlink:href="../../dd/d47/namespacemath.html#a3fe35440c27758ecc2287e08217d63a7" target="_top" xlink:title="The volume of a cone">
<polygon fill="white" stroke="#666666" points="183.5,-167 81.5,-167 81.5,-148 183.5,-148 183.5,-167"/>
<text text-anchor="middle" x="132.5" y="-155" font-family="Helvetica,sans-Serif" font-size="10.00">math::cone_volume</text>
</a>
</g>
</g>
<!-- Node1&#45;&gt;Node2 -->
<g id="edge1" class="edge">
<title>Node1&#45;&gt;Node2</title>
<path fill="none" stroke="#63b8ff" d="M33.35,-141.14C43.3,-142.8 56.82,-145.05 70.65,-147.36"/>
<polygon fill="#63b8ff" stroke="#63b8ff" points="69.79,-150.93 80.23,-149.12 70.94,-144.02 69.79,-150.93"/>
</g>
<!-- Node6 -->
<g id="node6" class="node">
<title>Node6</title>
<g id="a_node6"><a xlink:href="../../dd/d47/namespacemath.html#ae413098478fa38acaac887b7654f0725" target="_top" xlink:title="The volume of a cube">
<polygon fill="white" stroke="#666666" points="183.5,-93 81.5,-93 81.5,-74 183.5,-74 183.5,-93"/>
<text text-anchor="middle" x="132.5" y="-81" font-family="Helvetica,sans-Serif" font-size="10.00">math::cube_volume</text>
</a>
</g>
</g>
<!-- Node1&#45;&gt;Node6 -->
<g id="edge6" class="edge">
<title>Node1&#45;&gt;Node6</title>
<path fill="none" stroke="#63b8ff" d="M28.64,-128.76C38.61,-120.48 53.94,-108.8 69,-101.5 72.3,-99.9 75.77,-98.41 79.31,-97.04"/>
<polygon fill="#63b8ff" stroke="#63b8ff" points="80.15,-100.11 88.41,-93.47 77.81,-93.51 80.15,-100.11"/>
</g>
<!-- Node7 -->
<g id="node7" class="node">
<title>Node7</title>
<g id="a_node7"><a xlink:href="../../dd/d47/namespacemath.html#abde24398be43538c62e4a496968e60ca" target="_top" xlink:title="The volume of a cylinder">
<polygon fill="white" stroke="#666666" points="190,-130 75,-130 75,-111 190,-111 190,-130"/>
<text text-anchor="middle" x="132.5" y="-118" font-family="Helvetica,sans-Serif" font-size="10.00">math::cylinder_volume</text>
</a>
</g>
</g>
<!-- Node1&#45;&gt;Node7 -->
<g id="edge8" class="edge">
<title>Node1&#45;&gt;Node7</title>
<path fill="none" stroke="#63b8ff" d="M33.35,-136C41.69,-134.68 52.54,-132.97 63.98,-131.16"/>
<polygon fill="#63b8ff" stroke="#63b8ff" points="64.26,-134.5 73.59,-129.49 63.17,-127.59 64.26,-134.5"/>
</g>
<!-- Node8 -->
<g id="node8" class="node">
<title>Node8</title>
<g id="a_node8"><a target="_blank" xlink:href="http://en.cppreference.com/w/cpp/io/manip/endl.html#" xlink:title=" ">
<polygon fill="white" stroke="#666666" points="159.5,-19 105.5,-19 105.5,0 159.5,0 159.5,-19"/>
<text text-anchor="middle" x="132.5" y="-7" font-family="Helvetica,sans-Serif" font-size="10.00">std::endl</text>
</a>
</g>
</g>
<!-- Node1&#45;&gt;Node8 -->
<g id="edge11" class="edge">
<title>Node1&#45;&gt;Node8</title>
<path fill="none" stroke="#63b8ff" d="M19.25,-128.53C23.58,-106.82 36.9,-55.01 69,-27.5 76.21,-21.32 85.43,-17.26 94.56,-14.59"/>
<polygon fill="#63b8ff" stroke="#63b8ff" points="95.2,-17.8 104.1,-12.05 93.56,-10.99 95.2,-17.8"/>
</g>
<!-- Node9 -->
<g id="node9" class="node">
<title>Node9</title>
<g id="a_node9"><a xlink:href="../../dd/d47/namespacemath.html#a94db02b3c9e55a69ac1696f30e2f761c" target="_top" xlink:title="The volume of a pyramid">
<polygon fill="white" stroke="#666666" points="190.5,-290 74.5,-290 74.5,-271 190.5,-271 190.5,-290"/>
<text text-anchor="middle" x="132.5" y="-278" font-family="Helvetica,sans-Serif" font-size="10.00">math::pyramid_volume</text>
</a>
</g>
</g>
<!-- Node1&#45;&gt;Node9 -->
<g id="edge12" class="edge">
<title>Node1&#45;&gt;Node9</title>
<path fill="none" stroke="#63b8ff" d="M18.67,-148.19C22,-171.48 33.7,-230.99 69,-262.5 70.02,-263.41 71.08,-264.27 72.18,-265.09"/>
<polygon fill="#63b8ff" stroke="#63b8ff" points="69.85,-268.38 80.22,-270.57 73.48,-262.39 69.85,-268.38"/>
</g>
<!-- Node10 -->
<g id="node10" class="node">
<title>Node10</title>
<g id="a_node10"><a xlink:href="../../dd/d47/namespacemath.html#a3fdc74c24697ec5bb5c3698c96117c12" target="_top" xlink:title="The volume of a rectangular prism.">
<polygon fill="white" stroke="#666666" points="196,-253 69,-253 69,-234 196,-234 196,-253"/>
<text text-anchor="middle" x="132.5" y="-241" font-family="Helvetica,sans-Serif" font-size="10.00">math::rect_prism_volume</text>
</a>
</g>
</g>
<!-- Node1&#45;&gt;Node10 -->
<g id="edge14" class="edge">
<title>Node1&#45;&gt;Node10</title>
<path fill="none" stroke="#63b8ff" d="M20.71,-148.36C27.03,-166.24 42.81,-204.04 69,-224.5 70.92,-226 72.97,-227.39 75.09,-228.66"/>
<polygon fill="#63b8ff" stroke="#63b8ff" points="73.36,-232.21 83.86,-233.59 76.51,-225.96 73.36,-232.21"/>
</g>
<!-- Node11 -->
<g id="node11" class="node">
<title>Node11</title>
<g id="a_node11"><a xlink:href="../../dd/d47/namespacemath.html#a34d66a77c19ce9b8b3a3d14352b34551" target="_top" xlink:title="The volume of a sphere">
<polygon fill="white" stroke="#666666" points="187.5,-56 77.5,-56 77.5,-37 187.5,-37 187.5,-56"/>
<text text-anchor="middle" x="132.5" y="-44" font-family="Helvetica,sans-Serif" font-size="10.00">math::sphere_volume</text>
</a>
</g>
</g>
<!-- Node1&#45;&gt;Node11 -->
<g id="edge16" class="edge">
<title>Node1&#45;&gt;Node11</title>
<path fill="none" stroke="#63b8ff" d="M21.64,-128.73C28.87,-112.84 45.33,-81.45 69,-64.5 70.69,-63.29 72.45,-62.16 74.28,-61.11"/>
<polygon fill="#63b8ff" stroke="#63b8ff" points="75.37,-63.99 82.82,-56.45 72.29,-57.7 75.37,-63.99"/>
</g>
<!-- Node12 -->
<g id="node12" class="node">
<title>Node12</title>
<g id="a_node12"><a xlink:href="../../dd/d47/namespacemath.html#a2d704a7b72a6b2db8b76c8581b577b2c" target="_top" xlink:title="The volume of a triangular prism.">
<polygon fill="white" stroke="#666666" points="185,-215.5 80,-215.5 80,-185.5 185,-185.5 185,-215.5"/>
<text text-anchor="start" x="88" y="-203.5" font-family="Helvetica,sans-Serif" font-size="10.00">math::triangle_prism</text>
<text text-anchor="middle" x="132.5" y="-192.5" font-family="Helvetica,sans-Serif" font-size="10.00">_volume</text>
</a>
</g>
</g>
<!-- Node1&#45;&gt;Node12 -->
<g id="edge18" class="edge">
<title>Node1&#45;&gt;Node12</title>
<path fill="none" stroke="#63b8ff" d="M29.23,-148.19C39.33,-156.22 54.52,-167.56 69,-175.5 72.22,-177.27 75.6,-178.98 79.04,-180.62"/>
<polygon fill="#63b8ff" stroke="#63b8ff" points="77.28,-184.12 87.83,-185.05 80.16,-177.74 77.28,-184.12"/>
</g>
<!-- Node3 -->
<g id="node3" class="node">
<title>Node3</title>
<g id="a_node3"><a xlink:href="../../d8/dee/avltree_8cpp.html#ae4a66d8b0c2b0d626aea45977e358c83" target="_top" xlink:title=" ">
<polygon fill="white" stroke="#666666" points="280.5,-210 237.5,-210 237.5,-191 280.5,-191 280.5,-210"/>
<text text-anchor="middle" x="259" y="-198" font-family="Helvetica,sans-Serif" font-size="10.00">height</text>
</a>
</g>
</g>
<!-- Node2&#45;&gt;Node3 -->
<g id="edge2" class="edge">
<title>Node2&#45;&gt;Node3</title>
<path fill="none" stroke="#63b8ff" d="M168.03,-167.5C177.17,-170.28 186.99,-173.39 196,-176.5 206.18,-180.01 217.17,-184.15 227.03,-187.99"/>
<polygon fill="#63b8ff" stroke="#63b8ff" points="225.61,-191.59 236.19,-192 228.17,-185.08 225.61,-191.59"/>
</g>
<!-- Node5 -->
<g id="node5" class="node">
<title>Node5</title>
<g id="a_node5"><a target="_blank" xlink:href="http://en.cppreference.com/w/cpp/numeric/math/pow.html#" xlink:title=" ">
<polygon fill="white" stroke="#666666" points="286,-112 232,-112 232,-93 286,-93 286,-112"/>
<text text-anchor="middle" x="259" y="-100" font-family="Helvetica,sans-Serif" font-size="10.00">std::pow</text>
</a>
</g>
</g>
<!-- Node2&#45;&gt;Node5 -->
<g id="edge5" class="edge">
<title>Node2&#45;&gt;Node5</title>
<path fill="none" stroke="#63b8ff" d="M171.35,-147.53C179.61,-144.93 188.2,-141.9 196,-138.5 209.06,-132.81 222.84,-125.01 234.08,-118.13"/>
<polygon fill="#63b8ff" stroke="#63b8ff" points="235.62,-120.67 242.22,-112.39 231.89,-114.74 235.62,-120.67"/>
</g>
<!-- Node3&#45;&gt;Node3 -->
<g id="edge3" class="edge">
<title>Node3&#45;&gt;Node3</title>
<path fill="none" stroke="#63b8ff" d="M244.83,-210.37C238.37,-218.94 243.09,-228 259,-228 267.95,-228 273.36,-225.13 275.23,-221.1"/>
<polygon fill="#63b8ff" stroke="#63b8ff" points="278.49,-220.53 273.17,-211.37 271.62,-221.85 278.49,-220.53"/>
</g>
<!-- Node4 -->
<g id="node4" class="node">
<title>Node4</title>
<g id="a_node4"><a target="_blank" xlink:href="http://en.cppreference.com/w/cpp/algorithm/max.html#" xlink:title=" ">
<polygon fill="white" stroke="#666666" points="377,-210 322,-210 322,-191 377,-191 377,-210"/>
<text text-anchor="middle" x="349.5" y="-198" font-family="Helvetica,sans-Serif" font-size="10.00">std::max</text>
</a>
</g>
</g>
<!-- Node3&#45;&gt;Node4 -->
<g id="edge4" class="edge">
<title>Node3&#45;&gt;Node4</title>
<path fill="none" stroke="#63b8ff" d="M280.97,-200.5C289.91,-200.5 300.61,-200.5 310.83,-200.5"/>
<polygon fill="#63b8ff" stroke="#63b8ff" points="310.63,-204 320.63,-200.5 310.63,-197 310.63,-204"/>
</g>
<!-- Node6&#45;&gt;Node5 -->
<g id="edge7" class="edge">
<title>Node6&#45;&gt;Node5</title>
<path fill="none" stroke="#63b8ff" d="M183.78,-91.17C196.26,-93.08 209.4,-95.08 221.11,-96.87"/>
<polygon fill="#63b8ff" stroke="#63b8ff" points="220.4,-100.46 230.82,-98.5 221.46,-93.54 220.4,-100.46"/>
</g>
<!-- Node7&#45;&gt;Node3 -->
<g id="edge9" class="edge">
<title>Node7&#45;&gt;Node3</title>
<path fill="none" stroke="#63b8ff" d="M178.36,-130.41C184.5,-132.62 190.55,-135.29 196,-138.5 215.15,-149.79 232.62,-168.37 244.1,-182.25"/>
<polygon fill="#63b8ff" stroke="#63b8ff" points="241.77,-183.94 250.74,-189.57 247.24,-179.57 241.77,-183.94"/>
</g>
<!-- Node7&#45;&gt;Node5 -->
<g id="edge10" class="edge">
<title>Node7&#45;&gt;Node5</title>
<path fill="none" stroke="#63b8ff" d="M190.29,-112.29C200.7,-110.78 211.33,-109.25 220.98,-107.85"/>
<polygon fill="#63b8ff" stroke="#63b8ff" points="221.39,-111.18 230.79,-106.29 220.39,-104.26 221.39,-111.18"/>
</g>
<!-- Node9&#45;&gt;Node3 -->
<g id="edge13" class="edge">
<title>Node9&#45;&gt;Node3</title>
<path fill="none" stroke="#63b8ff" d="M178.36,-270.59C184.5,-268.38 190.55,-265.71 196,-262.5 215.15,-251.21 232.62,-232.63 244.1,-218.75"/>
<polygon fill="#63b8ff" stroke="#63b8ff" points="247.24,-221.43 250.74,-211.43 241.77,-217.06 247.24,-221.43"/>
</g>
<!-- Node10&#45;&gt;Node3 -->
<g id="edge15" class="edge">
<title>Node10&#45;&gt;Node3</title>
<path fill="none" stroke="#63b8ff" d="M168.03,-233.5C177.17,-230.72 186.99,-227.61 196,-224.5 206.18,-220.99 217.17,-216.85 227.03,-213.01"/>
<polygon fill="#63b8ff" stroke="#63b8ff" points="228.17,-215.92 236.19,-209 225.61,-209.41 228.17,-215.92"/>
</g>
<!-- Node11&#45;&gt;Node5 -->
<g id="edge17" class="edge">
<title>Node11&#45;&gt;Node5</title>
<path fill="none" stroke="#63b8ff" d="M174.08,-56.46C181.5,-58.76 189.08,-61.45 196,-64.5 209.72,-70.55 224.05,-79.16 235.48,-86.66"/>
<polygon fill="#63b8ff" stroke="#63b8ff" points="233.06,-89.93 243.31,-92.61 236.97,-84.12 233.06,-89.93"/>
</g>
<!-- Node12&#45;&gt;Node3 -->
<g id="edge19" class="edge">
<title>Node12&#45;&gt;Node3</title>
<path fill="none" stroke="#63b8ff" d="M185.22,-200.5C199.23,-200.5 213.98,-200.5 226.51,-200.5"/>
<polygon fill="#63b8ff" stroke="#63b8ff" points="226.31,-204 236.31,-200.5 226.31,-197 226.31,-204"/>
</g>
</g>
</svg>
