<?xml version="1.0" encoding="UTF-8" standalone="no"?>
<!DOCTYPE svg PUBLIC "-//W3C//DTD SVG 1.1//EN"
 "http://www.w3.org/Graphics/SVG/1.1/DTD/svg11.dtd">
<!-- Generated by graphviz version 8.0.2 (20230410.1723)
 -->
<!-- Title: others::iterative_tree_traversals::BinaryTree::postOrderIterative Pages: 1 -->
<svg width="374pt" height="119pt"
 viewBox="0.00 0.00 374.00 119.00" xmlns="http://www.w3.org/2000/svg" xmlns:xlink="http://www.w3.org/1999/xlink">
<g id="graph0" class="graph" transform="scale(1 1) rotate(0) translate(4 115)">
<title>others::iterative_tree_traversals::BinaryTree::postOrderIterative</title>
<!-- Node1 -->
<g id="node1" class="node">
<title>Node1</title>
<g id="a_node1"><a xlink:title="postOrderIterative() function that will perform the postorder traversal iteratively,...">
<polygon fill="#999999" stroke="#666666" points="118,-67 0,-67 0,-26 118,-26 118,-67"/>
<text text-anchor="start" x="8" y="-55" font-family="Helvetica,sans-Serif" font-size="10.00">others::iterative_tree</text>
<text text-anchor="start" x="8" y="-44" font-family="Helvetica,sans-Serif" font-size="10.00">_traversals::BinaryTree</text>
<text text-anchor="middle" x="59" y="-33" font-family="Helvetica,sans-Serif" font-size="10.00">::postOrderIterative</text>
</a>
</g>
</g>
<!-- Node2 -->
<g id="node2" class="node">
<title>Node2</title>
<g id="a_node2"><a xlink:href="../../d1/dc2/classstack.html#a6cd4b95d5de00d41b2491392338384dc" target="_top" xlink:title=" ">
<polygon fill="white" stroke="#666666" points="219,-93 157,-93 157,-74 219,-74 219,-93"/>
<text text-anchor="middle" x="188" y="-81" font-family="Helvetica,sans-Serif" font-size="10.00">stack::pop</text>
</a>
</g>
</g>
<!-- Node1&#45;&gt;Node2 -->
<g id="edge1" class="edge">
<title>Node1&#45;&gt;Node2</title>
<path fill="none" stroke="#63b8ff" d="M118.3,-63.48C127.75,-66.24 137.37,-69.04 146.29,-71.64"/>
<polygon fill="#63b8ff" stroke="#63b8ff" points="145.19,-75.26 155.77,-74.69 147.15,-68.53 145.19,-75.26"/>
</g>
<!-- Node5 -->
<g id="node5" class="node">
<title>Node5</title>
<g id="a_node5"><a xlink:href="../../d1/dc2/classstack.html#a5705c3926dcf5fd3f9c964467a50b81d" target="_top" xlink:title=" ">
<polygon fill="white" stroke="#666666" points="222,-56 154,-56 154,-37 222,-37 222,-56"/>
<text text-anchor="middle" x="188" y="-44" font-family="Helvetica,sans-Serif" font-size="10.00">stack::push</text>
</a>
</g>
</g>
<!-- Node1&#45;&gt;Node5 -->
<g id="edge4" class="edge">
<title>Node1&#45;&gt;Node5</title>
<path fill="none" stroke="#63b8ff" d="M118.3,-46.5C126.54,-46.5 134.9,-46.5 142.82,-46.5"/>
<polygon fill="#63b8ff" stroke="#63b8ff" points="142.66,-50 152.66,-46.5 142.66,-43 142.66,-50"/>
</g>
<!-- Node6 -->
<g id="node6" class="node">
<title>Node6</title>
<g id="a_node6"><a xlink:href="../../d1/dc2/classstack.html#a21c0bb6ce7dcfe445cc12031977ea344" target="_top" xlink:title=" ">
<polygon fill="white" stroke="#666666" points="218,-19 158,-19 158,0 218,0 218,-19"/>
<text text-anchor="middle" x="188" y="-7" font-family="Helvetica,sans-Serif" font-size="10.00">stack::top</text>
</a>
</g>
</g>
<!-- Node1&#45;&gt;Node6 -->
<g id="edge5" class="edge">
<title>Node1&#45;&gt;Node6</title>
<path fill="none" stroke="#63b8ff" d="M118.3,-29.52C128.14,-26.65 138.15,-23.73 147.37,-21.05"/>
<polygon fill="#63b8ff" stroke="#63b8ff" points="148.16,-24.17 156.78,-18.01 146.2,-17.45 148.16,-24.17"/>
</g>
<!-- Node3 -->
<g id="node3" class="node">
<title>Node3</title>
<g id="a_node3"><a target="_blank" xlink:href="http://en.cppreference.com/w/cpp/io/manip/endl.html#" xlink:title=" ">
<polygon fill="white" stroke="#666666" points="339,-111 285,-111 285,-92 339,-92 339,-111"/>
<text text-anchor="middle" x="312" y="-99" font-family="Helvetica,sans-Serif" font-size="10.00">std::endl</text>
</a>
</g>
</g>
<!-- Node2&#45;&gt;Node3 -->
<g id="edge2" class="edge">
<title>Node2&#45;&gt;Node3</title>
<path fill="none" stroke="#63b8ff" d="M219.47,-88C236.07,-90.44 256.73,-93.49 274.22,-96.07"/>
<polygon fill="#63b8ff" stroke="#63b8ff" points="273.23,-99.61 283.64,-97.61 274.26,-92.69 273.23,-99.61"/>
</g>
<!-- Node4 -->
<g id="node4" class="node">
<title>Node4</title>
<g id="a_node4"><a xlink:href="../../d1/dc2/classstack.html#a066e4505155b009913c47b2648b1067a" target="_top" xlink:title=" ">
<polygon fill="white" stroke="#666666" points="366,-74 258,-74 258,-55 366,-55 366,-74"/>
<text text-anchor="middle" x="312" y="-62" font-family="Helvetica,sans-Serif" font-size="10.00">stack::isEmptyStack</text>
</a>
</g>
</g>
<!-- Node2&#45;&gt;Node4 -->
<g id="edge3" class="edge">
<title>Node2&#45;&gt;Node4</title>
<path fill="none" stroke="#63b8ff" d="M219.47,-78.75C227.88,-77.44 237.33,-75.97 246.89,-74.48"/>
<polygon fill="#63b8ff" stroke="#63b8ff" points="247.33,-77.8 256.67,-72.81 246.25,-70.89 247.33,-77.8"/>
</g>
</g>
</svg>
