<?xml version="1.0" encoding="UTF-8" standalone="no"?>
<!DOCTYPE svg PUBLIC "-//W3C//DTD SVG 1.1//EN"
 "http://www.w3.org/Graphics/SVG/1.1/DTD/svg11.dtd">
<!-- Generated by graphviz version 8.0.2 (20230410.1723)
 -->
<!-- Title: hamilton_cycle Pages: 1 -->
<svg width="333pt" height="82pt"
 viewBox="0.00 0.00 333.00 82.00" xmlns="http://www.w3.org/2000/svg" xmlns:xlink="http://www.w3.org/1999/xlink">
<g id="graph0" class="graph" transform="scale(1 1) rotate(0) translate(4 78)">
<title>hamilton_cycle</title>
<!-- Node1 -->
<g id="node1" class="node">
<title>Node1</title>
<g id="a_node1"><a xlink:title=" ">
<polygon fill="#999999" stroke="#666666" points="82,-37 0,-37 0,-18 82,-18 82,-37"/>
<text text-anchor="middle" x="41" y="-25" font-family="Helvetica,sans-Serif" font-size="10.00">hamilton_cycle</text>
</a>
</g>
</g>
<!-- Node2 -->
<g id="node2" class="node">
<title>Node2</title>
<g id="a_node2"><a xlink:href="../../d8/dee/avltree_8cpp.html#ae4a66d8b0c2b0d626aea45977e358c83" target="_top" xlink:title=" ">
<polygon fill="white" stroke="#666666" points="197.5,-56 154.5,-56 154.5,-37 197.5,-37 197.5,-56"/>
<text text-anchor="middle" x="176" y="-44" font-family="Helvetica,sans-Serif" font-size="10.00">height</text>
</a>
</g>
</g>
<!-- Node1&#45;&gt;Node2 -->
<g id="edge1" class="edge">
<title>Node1&#45;&gt;Node2</title>
<path fill="none" stroke="#63b8ff" d="M82.27,-33.25C101.89,-36.06 125.15,-39.38 143.47,-42"/>
<polygon fill="#63b8ff" stroke="#63b8ff" points="142.76,-45.57 153.15,-43.52 143.75,-38.64 142.76,-45.57"/>
</g>
<!-- Node4 -->
<g id="node4" class="node">
<title>Node4</title>
<g id="a_node4"><a target="_blank" xlink:href="http://en.cppreference.com/w/cpp/container/vector/push_back.html#" xlink:title=" ">
<polygon fill="white" stroke="#666666" points="234,-19 118,-19 118,0 234,0 234,-19"/>
<text text-anchor="middle" x="176" y="-7" font-family="Helvetica,sans-Serif" font-size="10.00">std::vector::push_back</text>
</a>
</g>
</g>
<!-- Node1&#45;&gt;Node4 -->
<g id="edge4" class="edge">
<title>Node1&#45;&gt;Node4</title>
<path fill="none" stroke="#63b8ff" d="M82.27,-22.05C90.11,-20.99 98.54,-19.85 107,-18.7"/>
<polygon fill="#63b8ff" stroke="#63b8ff" points="107.26,-22.06 116.7,-17.26 106.32,-15.13 107.26,-22.06"/>
</g>
<!-- Node2&#45;&gt;Node2 -->
<g id="edge2" class="edge">
<title>Node2&#45;&gt;Node2</title>
<path fill="none" stroke="#63b8ff" d="M156.98,-56.37C148.3,-64.94 154.64,-74 176,-74 188.35,-74 195.68,-70.97 197.98,-66.76"/>
<polygon fill="#63b8ff" stroke="#63b8ff" points="201.13,-66.03 195.02,-57.37 194.4,-67.94 201.13,-66.03"/>
</g>
<!-- Node3 -->
<g id="node3" class="node">
<title>Node3</title>
<g id="a_node3"><a target="_blank" xlink:href="http://en.cppreference.com/w/cpp/algorithm/max.html#" xlink:title=" ">
<polygon fill="white" stroke="#666666" points="325,-56 270,-56 270,-37 325,-37 325,-56"/>
<text text-anchor="middle" x="297.5" y="-44" font-family="Helvetica,sans-Serif" font-size="10.00">std::max</text>
</a>
</g>
</g>
<!-- Node2&#45;&gt;Node3 -->
<g id="edge3" class="edge">
<title>Node2&#45;&gt;Node3</title>
<path fill="none" stroke="#63b8ff" d="M197.82,-46.5C214.63,-46.5 238.73,-46.5 258.9,-46.5"/>
<polygon fill="#63b8ff" stroke="#63b8ff" points="258.64,-50 268.64,-46.5 258.64,-43 258.64,-50"/>
</g>
</g>
</svg>
